<?xml version="1.0" encoding="utf-8"?>
<!-- Generator: Adobe Illustrator 15.0.0, SVG Export Plug-In . SVG Version: 6.00 Build 0)  -->
<!DOCTYPE svg PUBLIC "-//W3C//DTD SVG 1.1//EN" "http://www.w3.org/Graphics/SVG/1.1/DTD/svg11.dtd">
<svg version="1.1" xmlns="http://www.w3.org/2000/svg" xmlns:xlink="http://www.w3.org/1999/xlink" x="0px" y="0px" width="1876px"
	 height="1202.939px" viewBox="0 0 1876 1202.939" enable-background="new 0 0 1876 1202.939" xml:space="preserve">
<symbol  id="drzwi" viewBox="-19.209 -18.761 38.417 37.521">
	<path fill="none" stroke="#AFACAC" stroke-width="2" stroke-miterlimit="10" d="M-16.313,17.761
		c0-19.618,15.902-35.521,35.521-35.521"/>
	<line fill="none" stroke="#5D5F5F" stroke-width="2" stroke-miterlimit="10" x1="19.208" y1="17.761" x2="-19.209" y2="17.761"/>
</symbol>
<g id="kontury">
	
		<use xlink:href="#drzwi"  width="38.417" height="37.521" x="-19.209" y="-18.761" transform="matrix(0.952 0 0 -0.952 424.7139 693.5752)" overflow="visible"/>
	
		<use xlink:href="#drzwi"  width="38.417" height="37.521" x="-19.209" y="-18.761" transform="matrix(0.952 0 0 -0.952 473.3799 613.9746)" overflow="visible"/>
	
		<use xlink:href="#drzwi"  width="38.417" height="37.521" x="-19.209" y="-18.761" transform="matrix(-0.6863 0 0 -0.6863 231.6387 588.2598)" overflow="visible"/>
	
		<use xlink:href="#drzwi"  width="38.417" height="37.521" x="-19.209" y="-18.761" transform="matrix(0.6863 0 0 0.6863 205.2734 556.373)" overflow="visible"/>
	
		<use xlink:href="#drzwi"  width="38.417" height="37.521" x="-19.209" y="-18.761" transform="matrix(-0.6732 0.6732 -0.6732 -0.6732 591.5229 434.1025)" overflow="visible"/>
	
		<use xlink:href="#drzwi"  width="38.417" height="37.521" x="-19.209" y="-18.761" transform="matrix(-0.5264 0.5264 -0.5264 -0.5264 627.5171 399.0879)" overflow="visible"/>
	
		<use xlink:href="#drzwi"  width="38.417" height="37.521" x="-19.209" y="-18.761" transform="matrix(0.6732 0.6732 0.6732 -0.6732 1438.7676 434.1025)" overflow="visible"/>
	
		<use xlink:href="#drzwi"  width="38.417" height="37.521" x="-19.209" y="-18.761" transform="matrix(0.5264 0.5264 0.5264 -0.5264 1402.7734 399.0879)" overflow="visible"/>
	
		<use xlink:href="#drzwi"  width="38.417" height="37.521" x="-19.209" y="-18.761" transform="matrix(0.7049 0 0 0.7049 780.7515 399.0527)" overflow="visible"/>
	
		<use xlink:href="#drzwi"  width="38.417" height="37.521" x="-19.209" y="-18.761" transform="matrix(0.7049 0 0 0.7049 827.9692 399.0527)" overflow="visible"/>
	
		<use xlink:href="#drzwi"  width="38.417" height="37.521" x="-19.209" y="-18.761" transform="matrix(-0.7049 0 0 0.7049 1251.3555 399.0527)" overflow="visible"/>
	
		<use xlink:href="#drzwi"  width="38.417" height="37.521" x="-19.209" y="-18.761" transform="matrix(-0.7049 0 0 0.7049 1204.1387 399.0527)" overflow="visible"/>
	<g>
		
			<use xlink:href="#drzwi"  width="38.417" height="37.521" x="-19.209" y="-18.761" transform="matrix(0 0.7049 0.7049 0 1095.2715 79.7607)" overflow="visible"/>
		
			<use xlink:href="#drzwi"  width="38.417" height="37.521" x="-19.209" y="-18.761" transform="matrix(0 0.7049 -0.7049 0 1070.123 79.7607)" overflow="visible"/>
	</g>
	<g>
		
			<use xlink:href="#drzwi"  width="38.417" height="37.521" x="-19.209" y="-18.761" transform="matrix(0 0.7049 0.7049 0 942.7627 79.7607)" overflow="visible"/>
		
			<use xlink:href="#drzwi"  width="38.417" height="37.521" x="-19.209" y="-18.761" transform="matrix(0 0.7049 -0.7049 0 917.6143 79.7607)" overflow="visible"/>
	</g>
	<g>
		
			<use xlink:href="#drzwi"  width="38.417" height="37.521" x="-19.209" y="-18.761" transform="matrix(0 0.7049 0.7049 0 874.627 79.7607)" overflow="visible"/>
		
			<use xlink:href="#drzwi"  width="38.417" height="37.521" x="-19.209" y="-18.761" transform="matrix(0 0.7049 -0.7049 0 849.4785 79.7607)" overflow="visible"/>
	</g>
	<g>
		
			<use xlink:href="#drzwi"  width="38.417" height="37.521" x="-19.209" y="-18.761" transform="matrix(0 0.6239 0.6239 0 718.3794 81.3174)" overflow="visible"/>
		
			<use xlink:href="#drzwi"  width="38.417" height="37.521" x="-19.209" y="-18.761" transform="matrix(0 0.6239 -0.6239 0 696.1226 81.3174)" overflow="visible"/>
	</g>
	<g>
		
			<use xlink:href="#drzwi"  width="38.417" height="37.521" x="-19.209" y="-18.761" transform="matrix(0 -0.3489 0.3489 0 654.2466 88.3213)" overflow="visible"/>
		
			<use xlink:href="#drzwi"  width="38.417" height="37.521" x="-19.209" y="-18.761" transform="matrix(0 -0.3489 -0.3489 0 641.7983 88.3213)" overflow="visible"/>
	</g>
	
		<use xlink:href="#drzwi"  width="38.417" height="37.521" x="-19.209" y="-18.761" transform="matrix(-0.626 0 0 -0.626 357.7607 604.2031)" overflow="visible"/>
	
		<use xlink:href="#drzwi"  width="38.417" height="37.521" x="-19.209" y="-18.761" transform="matrix(0.8317 0 0 -0.8317 475.6899 978.9824)" overflow="visible"/>
	
		<use xlink:href="#drzwi"  width="38.417" height="37.521" x="-19.209" y="-18.761" transform="matrix(0 -0.72 -0.72 0 1175.7422 1108.7813)" overflow="visible"/>
	
		<use xlink:href="#drzwi"  width="38.417" height="37.521" x="-19.209" y="-18.761" transform="matrix(0 -0.72 0.72 0 855.6035 1108.7813)" overflow="visible"/>
	
		<use xlink:href="#drzwi"  width="38.417" height="37.521" x="-19.209" y="-18.761" transform="matrix(-0.9726 0 0 -0.9726 1556.833 981.6543)" overflow="visible"/>
	
		<use xlink:href="#drzwi"  width="38.417" height="37.521" x="-19.209" y="-18.761" transform="matrix(-0.9726 0 0 0.9726 1605.7549 1051.1143)" overflow="visible"/>
	
		<use xlink:href="#drzwi"  width="38.417" height="37.521" x="-19.209" y="-18.761" transform="matrix(0.7254 0 0 0.7254 477.7314 1062.3115)" overflow="visible"/>
	
		<use xlink:href="#drzwi"  width="38.417" height="37.521" x="-19.209" y="-18.761" transform="matrix(0.8946 0 0 0.8946 425.8159 1050.9277)" overflow="visible"/>
	
		<use xlink:href="#drzwi"  width="38.417" height="37.521" x="-19.209" y="-18.761" transform="matrix(0 0.6429 -0.6429 0 145.9834 1082.6025)" overflow="visible"/>
	
		<use xlink:href="#drzwi"  width="38.417" height="37.521" x="-19.209" y="-18.761" transform="matrix(0 0.6429 0.6429 0 168.8257 1082.6025)" overflow="visible"/>
	
		<use xlink:href="#drzwi"  width="38.417" height="37.521" x="-19.209" y="-18.761" transform="matrix(0 -0.8184 -0.8184 0 467.354 735.4238)" overflow="visible"/>
	
		<use xlink:href="#drzwi"  width="38.417" height="37.521" x="-19.209" y="-18.761" transform="matrix(-0.952 0 0 -0.952 1605.1035 693.5752)" overflow="visible"/>
	
		<use xlink:href="#drzwi"  width="38.417" height="37.521" x="-19.209" y="-18.761" transform="matrix(-0.952 0 0 -0.952 1556.4375 613.9746)" overflow="visible"/>
	
		<use xlink:href="#drzwi"  width="38.417" height="37.521" x="-19.209" y="-18.761" transform="matrix(0 -0.8184 0.8184 0 1562.4639 735.4238)" overflow="visible"/>
	<g>
		
			<use xlink:href="#drzwi"  width="38.417" height="37.521" x="-19.209" y="-18.761" transform="matrix(0 -0.7662 -0.7662 0 140.2993 660.3369)" overflow="visible"/>
		
			<use xlink:href="#drzwi"  width="38.417" height="37.521" x="-19.209" y="-18.761" transform="matrix(0 -0.7662 0.7662 0 167.6323 660.3369)" overflow="visible"/>
	</g>
	<g>
		
			<use xlink:href="#drzwi"  width="38.417" height="37.521" x="-19.209" y="-18.761" transform="matrix(0 1.0395 1.0395 0 1012.543 -422.8477)" overflow="visible"/>
		
			<use xlink:href="#drzwi"  width="38.417" height="37.521" x="-19.209" y="-18.761" transform="matrix(0 1.0395 -1.0395 0 975.4609 -422.8477)" overflow="visible"/>
	</g>
	<g>
		
			<use xlink:href="#drzwi"  width="38.417" height="37.521" x="-19.209" y="-18.761" transform="matrix(0 0.7042 0.7042 0 1645.7578 -342.4375)" overflow="visible"/>
		
			<use xlink:href="#drzwi"  width="38.417" height="37.521" x="-19.209" y="-18.761" transform="matrix(0 0.7042 -0.7042 0 1620.6377 -342.4375)" overflow="visible"/>
	</g>
	
		<use xlink:href="#drzwi"  width="38.417" height="37.521" x="-19.209" y="-18.761" transform="matrix(0 0.8839 -0.8839 0 1489.0723 -566.6738)" overflow="visible"/>
	
		<use xlink:href="#drzwi"  width="38.417" height="37.521" x="-19.209" y="-18.761" transform="matrix(0 -0.8839 -0.8839 0 1489.0723 -472.5156)" overflow="visible"/>
	
		<use xlink:href="#drzwi"  width="38.417" height="37.521" x="-19.209" y="-18.761" transform="matrix(-0.8839 0 0 0.8839 1482.0615 -525.8975)" overflow="visible"/>
	
		<use xlink:href="#drzwi"  width="38.417" height="37.521" x="-19.209" y="-18.761" transform="matrix(-0.6441 0 0 0.6441 1477.501 -441.6113)" overflow="visible"/>
	
		<use xlink:href="#drzwi"  width="38.417" height="37.521" x="-19.209" y="-18.761" transform="matrix(-0.7418 0 0 -0.7418 1479.2344 -621.0537)" overflow="visible"/>
	
		<use xlink:href="#drzwi"  width="38.417" height="37.521" x="-19.209" y="-18.761" transform="matrix(-0.6072 0 0 0.6072 1433.2285 -624.7998)" overflow="visible"/>
	<g>
		
			<use xlink:href="#drzwi"  width="38.417" height="37.521" x="-19.209" y="-18.761" transform="matrix(0 0.3961 0.3961 0 1528.3945 -336.5195)" overflow="visible"/>
		
			<use xlink:href="#drzwi"  width="38.417" height="37.521" x="-19.209" y="-18.761" transform="matrix(0 0.3961 -0.3961 0 1514.2646 -336.5195)" overflow="visible"/>
	</g>
	<g>
		
			<use xlink:href="#drzwi"  width="38.417" height="37.521" x="-19.209" y="-18.761" transform="matrix(0 0.7042 0.7042 0 1748.5967 -342.4375)" overflow="visible"/>
		
			<use xlink:href="#drzwi"  width="38.417" height="37.521" x="-19.209" y="-18.761" transform="matrix(0 0.7042 -0.7042 0 1723.4766 -342.4375)" overflow="visible"/>
	</g>
	
		<use xlink:href="#drzwi"  width="38.417" height="37.521" x="-19.209" y="-18.761" transform="matrix(0.5993 -0.5993 0.5993 0.5993 1156.668 -370.6182)" overflow="visible"/>
	
		<use xlink:href="#drzwi"  width="38.417" height="37.521" x="-19.209" y="-18.761" transform="matrix(0.9253 0 0 0.9253 643.1265 -367.0566)" overflow="visible"/>
	
		<use xlink:href="#drzwi"  width="38.417" height="37.521" x="-19.209" y="-18.761" transform="matrix(0.9253 0 0 0.9253 570.2935 -367.0566)" overflow="visible"/>
	
		<use xlink:href="#drzwi"  width="38.417" height="37.521" x="-19.209" y="-18.761" transform="matrix(0 0.818 0.818 0 691.9229 -407.0918)" overflow="visible"/>
	
		<use xlink:href="#drzwi"  width="38.417" height="37.521" x="-19.209" y="-18.761" transform="matrix(0 -0.7825 0.7825 0 560.249 -376.3486)" overflow="visible"/>
	
		<use xlink:href="#drzwi"  width="38.417" height="37.521" x="-19.209" y="-18.761" transform="matrix(0 -0.7825 -0.7825 0 553.4658 -714.4014)" overflow="visible"/>
	
		<use xlink:href="#drzwi"  width="38.417" height="37.521" x="-19.209" y="-18.761" transform="matrix(0.6978 0.6978 0.6978 -0.6978 636.708 -940.6846)" overflow="visible"/>
	
		<use xlink:href="#drzwi"  width="38.417" height="37.521" x="-19.209" y="-18.761" transform="matrix(0 0.7805 -0.7805 0 743.606 -1021.7065)" overflow="visible"/>
	
		<use xlink:href="#drzwi"  width="38.417" height="37.521" x="-19.209" y="-18.761" transform="matrix(0.6978 0.6978 0.6978 -0.6978 683.7627 -893.6299)" overflow="visible"/>
	
		<use xlink:href="#drzwi"  width="38.417" height="37.521" x="-19.209" y="-18.761" transform="matrix(-0.6978 0.6978 -0.6978 -0.6978 1354.3398 -940.6846)" overflow="visible"/>
	
		<use xlink:href="#drzwi"  width="38.417" height="37.521" x="-19.209" y="-18.761" transform="matrix(-0.6978 0.6978 -0.6978 -0.6978 1307.2852 -893.6299)" overflow="visible"/>
	
		<use xlink:href="#drzwi"  width="38.417" height="37.521" x="-19.209" y="-18.761" transform="matrix(0.7507 0 0 0.7507 1417.0244 -854.772)" overflow="visible"/>
	
		<use xlink:href="#drzwi"  width="38.417" height="37.521" x="-19.209" y="-18.761" transform="matrix(0 0.7177 -0.7177 0 167.9072 -621.166)" overflow="visible"/>
	
		<rect x="1255.098" y="-391.379" fill="none" stroke="#AFACAC" stroke-width="2" stroke-miterlimit="10" width="9.368" height="60.751"/>
	
		<rect x="1264.466" y="-391.379" fill="none" stroke="#AFACAC" stroke-width="2" stroke-miterlimit="10" width="9.368" height="60.751"/>
	
		<rect x="1280.198" y="372.341" fill="none" stroke="#AFACAC" stroke-width="2" stroke-miterlimit="10" width="8.541" height="51.832"/>
	
		<rect x="1143.457" y="374.953" fill="none" stroke="#AFACAC" stroke-width="2" stroke-miterlimit="10" width="8.541" height="36.719"/>
	
		<rect x="1134.916" y="374.953" fill="none" stroke="#AFACAC" stroke-width="2" stroke-miterlimit="10" width="8.541" height="36.719"/>
	
		<rect x="1288.739" y="372.341" fill="none" stroke="#AFACAC" stroke-width="2" stroke-miterlimit="10" width="8.54" height="51.832"/>
	
		<rect x="1297.279" y="372.341" fill="none" stroke="#AFACAC" stroke-width="2" stroke-miterlimit="10" width="8.541" height="51.832"/>
	
		<rect x="1345.804" y="372.341" fill="none" stroke="#AFACAC" stroke-width="2" stroke-miterlimit="10" width="8.541" height="51.832"/>
	
		<rect x="1354.345" y="372.341" fill="none" stroke="#AFACAC" stroke-width="2" stroke-miterlimit="10" width="8.54" height="51.832"/>
	
		<rect x="1362.885" y="372.341" fill="none" stroke="#AFACAC" stroke-width="2" stroke-miterlimit="10" width="8.541" height="51.832"/>
	
		<rect x="1726.126" y="796.283" transform="matrix(0.7071 0.7071 -0.7071 0.7071 1076.6201 -987.5563)" fill="none" stroke="#AFACAC" stroke-width="2" stroke-miterlimit="10" width="8.541" height="19.069"/>
	
		<rect x="1739.609" y="782.8" transform="matrix(0.7071 0.7071 -0.7071 0.7071 1071.0347 -1001.0394)" fill="none" stroke="#AFACAC" stroke-width="2" stroke-miterlimit="10" width="8.541" height="19.068"/>
	
		<rect x="1732.164" y="802.322" transform="matrix(0.707 0.7072 -0.7072 0.707 1082.8053 -990.1105)" fill="none" stroke="#AFACAC" stroke-width="2" stroke-miterlimit="10" width="8.541" height="19.069"/>
	
		<rect x="1745.648" y="788.84" transform="matrix(0.7071 0.7071 -0.7071 0.7071 1077.0747 -1003.5414)" fill="none" stroke="#AFACAC" stroke-width="2" stroke-miterlimit="10" width="8.542" height="19.068"/>
	<g>
		
			<rect x="1738.937" y="-975.857" transform="matrix(0.7071 -0.7071 0.7071 0.7071 1182.3521 953.6516)" fill="none" stroke="#AFACAC" stroke-width="2" stroke-miterlimit="10" width="6.796" height="50.914"/>
		
			<rect x="1743.743" y="-980.663" transform="matrix(0.7071 -0.7071 0.7071 0.7071 1187.158 955.6421)" fill="none" stroke="#AFACAC" stroke-width="2" stroke-miterlimit="10" width="6.796" height="50.915"/>
		
			<rect x="1748.548" y="-985.469" transform="matrix(0.7071 -0.7071 0.7071 0.7071 1192.0613 957.6611)" fill="none" stroke="#AFACAC" stroke-width="2" stroke-miterlimit="10" width="6.797" height="50.915"/>
		
			<rect x="1753.355" y="-990.273" transform="matrix(0.7071 -0.7071 0.7071 0.7071 1196.7694 959.6237)" fill="none" stroke="#AFACAC" stroke-width="2" stroke-miterlimit="10" width="6.796" height="50.913"/>
		
			<rect x="1758.161" y="-995.079" transform="matrix(0.7072 -0.707 0.707 0.7072 1201.2809 961.5292)" fill="none" stroke="#AFACAC" stroke-width="2" stroke-miterlimit="10" width="6.797" height="50.914"/>
		
			<rect x="1702.935" y="-1011.86" transform="matrix(0.7071 -0.7071 0.7071 0.7071 1197.3619 917.6753)" fill="none" stroke="#AFACAC" stroke-width="2" stroke-miterlimit="10" width="6.797" height="50.915"/>
		
			<rect x="1707.741" y="-1016.665" transform="matrix(0.7071 -0.7071 0.7071 0.7071 1202.0706 919.6398)" fill="none" stroke="#AFACAC" stroke-width="2" stroke-miterlimit="10" width="6.796" height="50.915"/>
		
			<rect x="1712.547" y="-1021.469" transform="matrix(0.7072 -0.707 0.707 0.7072 1206.584 921.554)" fill="none" stroke="#AFACAC" stroke-width="2" stroke-miterlimit="10" width="6.797" height="50.913"/>
		
			<rect x="1717.353" y="-1026.277" transform="matrix(0.7071 -0.7071 0.7071 0.7071 1211.7799 923.6475)" fill="none" stroke="#AFACAC" stroke-width="2" stroke-miterlimit="10" width="6.797" height="50.915"/>
		
			<rect x="1722.159" y="-1031.082" transform="matrix(0.7071 -0.7071 0.7071 0.7071 1216.4878 925.6122)" fill="none" stroke="#AFACAC" stroke-width="2" stroke-miterlimit="10" width="6.796" height="50.915"/>
	</g>
	
		<rect x="1617.836" y="-890.402" fill="none" stroke="#AFACAC" stroke-width="2" stroke-miterlimit="10" width="124.499" height="8.789"/>
	
		<rect x="1617.836" y="-881.614" fill="none" stroke="#AFACAC" stroke-width="2" stroke-miterlimit="10" width="124.499" height="8.789"/>
	
		<rect x="1477.591" y="-877.384" fill="none" stroke="#AFACAC" stroke-width="2" stroke-miterlimit="10" width="134.199" height="4.56"/>
	
		<line fill="none" stroke="#AFACAC" stroke-width="2" stroke-miterlimit="10" x1="1305.82" y1="372.341" x2="1261.227" y2="372.341"/>
	
		<line fill="none" stroke="#AFACAC" stroke-width="2" stroke-miterlimit="10" x1="1390.737" y1="372.341" x2="1346.144" y2="372.341"/>
	
		<rect x="660.341" y="372.341" fill="none" stroke="#AFACAC" stroke-width="2" stroke-miterlimit="10" width="8.541" height="51.832"/>
	
		<rect x="668.882" y="372.341" fill="none" stroke="#AFACAC" stroke-width="2" stroke-miterlimit="10" width="8.54" height="51.832"/>
	
		<rect x="677.422" y="372.341" fill="none" stroke="#AFACAC" stroke-width="2" stroke-miterlimit="10" width="8.541" height="51.832"/>
	
		<rect x="725.946" y="372.341" fill="none" stroke="#AFACAC" stroke-width="2" stroke-miterlimit="10" width="8.541" height="51.832"/>
	
		<rect x="734.487" y="372.341" fill="none" stroke="#AFACAC" stroke-width="2" stroke-miterlimit="10" width="8.54" height="51.832"/>
	
		<rect x="743.027" y="372.341" fill="none" stroke="#AFACAC" stroke-width="2" stroke-miterlimit="10" width="8.541" height="51.832"/>
	
		<rect x="302.061" y="468.947" fill="none" stroke="#AFACAC" stroke-width="2" stroke-miterlimit="10" width="19.206" height="8.412"/>
	
		<rect x="321.266" y="468.947" fill="none" stroke="#AFACAC" stroke-width="2" stroke-miterlimit="10" width="24.47" height="8.412"/>
	
		<rect x="293.608" y="477.359" fill="none" stroke="#AFACAC" stroke-width="2" stroke-miterlimit="10" width="8.453" height="19.206"/>
	
		<rect x="293.608" y="496.565" fill="none" stroke="#AFACAC" stroke-width="2" stroke-miterlimit="10" width="8.453" height="24.47"/>
	
		<rect x="285.156" y="477.359" fill="none" stroke="#AFACAC" stroke-width="2" stroke-miterlimit="10" width="8.452" height="19.206"/>
	
		<rect x="285.156" y="496.565" fill="none" stroke="#AFACAC" stroke-width="2" stroke-miterlimit="10" width="8.452" height="24.47"/>
	
		<rect x="276.703" y="477.359" fill="none" stroke="#AFACAC" stroke-width="2" stroke-miterlimit="10" width="8.453" height="19.206"/>
	
		<rect x="276.703" y="496.565" fill="none" stroke="#AFACAC" stroke-width="2" stroke-miterlimit="10" width="8.453" height="24.47"/>
	
		<rect x="268.25" y="477.359" fill="none" stroke="#AFACAC" stroke-width="2" stroke-miterlimit="10" width="8.453" height="19.206"/>
	
		<rect x="268.25" y="496.565" fill="none" stroke="#AFACAC" stroke-width="2" stroke-miterlimit="10" width="8.453" height="24.47"/>
	
		<rect x="259.798" y="477.359" fill="none" stroke="#AFACAC" stroke-width="2" stroke-miterlimit="10" width="8.453" height="19.206"/>
	
		<rect x="259.798" y="496.565" fill="none" stroke="#AFACAC" stroke-width="2" stroke-miterlimit="10" width="8.453" height="24.47"/>
	
		<rect x="251.346" y="477.359" fill="none" stroke="#AFACAC" stroke-width="2" stroke-miterlimit="10" width="8.452" height="19.206"/>
	
		<rect x="251.345" y="496.565" fill="none" stroke="#AFACAC" stroke-width="2" stroke-miterlimit="10" width="8.452" height="24.47"/>
	
		<rect x="242.893" y="477.359" fill="none" stroke="#AFACAC" stroke-width="2" stroke-miterlimit="10" width="8.453" height="19.206"/>
	
		<rect x="242.893" y="496.565" fill="none" stroke="#AFACAC" stroke-width="2" stroke-miterlimit="10" width="8.453" height="24.47"/>
	
		<rect x="234.44" y="477.359" fill="none" stroke="#AFACAC" stroke-width="2" stroke-miterlimit="10" width="8.453" height="19.206"/>
	
		<rect x="234.44" y="496.565" fill="none" stroke="#AFACAC" stroke-width="2" stroke-miterlimit="10" width="8.453" height="24.47"/>
	
		<rect x="225.988" y="477.359" fill="none" stroke="#AFACAC" stroke-width="2" stroke-miterlimit="10" width="8.452" height="19.206"/>
	
		<rect x="225.988" y="496.565" fill="none" stroke="#AFACAC" stroke-width="2" stroke-miterlimit="10" width="8.452" height="24.47"/>
	
		<rect x="217.536" y="477.359" fill="none" stroke="#AFACAC" stroke-width="2" stroke-miterlimit="10" width="8.453" height="19.206"/>
	
		<rect x="217.535" y="496.565" fill="none" stroke="#AFACAC" stroke-width="2" stroke-miterlimit="10" width="8.453" height="24.47"/>
	
		<rect x="209.083" y="477.359" fill="none" stroke="#AFACAC" stroke-width="2" stroke-miterlimit="10" width="8.453" height="19.206"/>
	
		<rect x="209.083" y="496.565" fill="none" stroke="#AFACAC" stroke-width="2" stroke-miterlimit="10" width="8.453" height="21.937"/>
	
		<rect x="200.629" y="473.153" fill="none" stroke="#AFACAC" stroke-width="2" stroke-miterlimit="10" width="8.453" height="48.66"/>
	
		<rect x="302.061" y="460.48" fill="none" stroke="#AFACAC" stroke-width="2" stroke-miterlimit="10" width="19.206" height="8.412"/>
	
		<rect x="321.266" y="460.48" fill="none" stroke="#AFACAC" stroke-width="2" stroke-miterlimit="10" width="24.47" height="8.412"/>
	
		<rect x="302.061" y="452.013" fill="none" stroke="#AFACAC" stroke-width="2" stroke-miterlimit="10" width="19.206" height="8.412"/>
	
		<rect x="321.266" y="452.013" fill="none" stroke="#AFACAC" stroke-width="2" stroke-miterlimit="10" width="24.47" height="8.412"/>
	
		<rect x="302.061" y="443.546" fill="none" stroke="#AFACAC" stroke-width="2" stroke-miterlimit="10" width="19.206" height="8.412"/>
	
		<rect x="321.266" y="443.546" fill="none" stroke="#AFACAC" stroke-width="2" stroke-miterlimit="10" width="24.47" height="8.412"/>
	
		<rect x="302.061" y="435.078" fill="none" stroke="#AFACAC" stroke-width="2" stroke-miterlimit="10" width="19.206" height="8.412"/>
	
		<rect x="321.266" y="435.078" fill="none" stroke="#AFACAC" stroke-width="2" stroke-miterlimit="10" width="24.47" height="8.412"/>
	
		<rect x="302.061" y="426.611" fill="none" stroke="#AFACAC" stroke-width="2" stroke-miterlimit="10" width="19.206" height="8.412"/>
	
		<rect x="321.266" y="426.611" fill="none" stroke="#AFACAC" stroke-width="2" stroke-miterlimit="10" width="24.47" height="8.412"/>
	
		<rect x="302.061" y="418.144" fill="none" stroke="#AFACAC" stroke-width="2" stroke-miterlimit="10" width="19.206" height="8.413"/>
	
		<rect x="321.266" y="418.144" fill="none" stroke="#AFACAC" stroke-width="2" stroke-miterlimit="10" width="24.47" height="8.413"/>
	
		<rect x="302.061" y="409.677" fill="none" stroke="#AFACAC" stroke-width="2" stroke-miterlimit="10" width="19.206" height="8.412"/>
	
		<rect x="321.266" y="409.677" fill="none" stroke="#AFACAC" stroke-width="2" stroke-miterlimit="10" width="24.47" height="8.412"/>
	
		<line fill="none" stroke="#AFACAC" stroke-width="2" stroke-miterlimit="10" x1="685.963" y1="372.341" x2="641.369" y2="372.341"/>
	<line fill="none" stroke="#AFACAC" stroke-width="2" stroke-miterlimit="10" x1="770.88" y1="372.341" x2="726.286" y2="372.341"/>
	
		<line fill="none" stroke="#AFACAC" stroke-width="2" stroke-miterlimit="10" x1="1108.878" y1="375.021" x2="1108.878" y2="411.672"/>
	
		<rect x="880.29" y="374.953" fill="none" stroke="#AFACAC" stroke-width="2" stroke-miterlimit="10" width="8.541" height="36.719"/>
	
		<rect x="888.831" y="374.953" fill="none" stroke="#AFACAC" stroke-width="2" stroke-miterlimit="10" width="8.541" height="36.719"/>
	<line fill="none" stroke="#AFACAC" stroke-width="2" stroke-miterlimit="10" x1="923.41" y1="375.021" x2="923.41" y2="411.672"/>
	<line fill="none" stroke="#AFACAC" stroke-width="2" stroke-miterlimit="10" x1="234.44" y1="477.359" x2="302.061" y2="409.677"/>
	<polyline fill="none" stroke="#AFACAC" stroke-width="2" stroke-miterlimit="10" points="223.737,913.935 223.736,949.83 
		317.139,949.83 317.144,794.454 223.742,794.454 223.741,828.612 	"/>
	
		<rect x="227.68" y="828.612" fill="none" stroke="#AFACAC" stroke-width="2" stroke-miterlimit="10" width="8.463" height="42.661"/>
	
		<rect x="227.68" y="871.273" fill="none" stroke="#AFACAC" stroke-width="2" stroke-miterlimit="10" width="8.463" height="42.661"/>
	
		<rect x="219.217" y="828.612" fill="none" stroke="#AFACAC" stroke-width="2" stroke-miterlimit="10" width="8.462" height="42.661"/>
	
		<rect x="219.217" y="871.273" fill="none" stroke="#AFACAC" stroke-width="2" stroke-miterlimit="10" width="8.462" height="42.661"/>
	
		<rect x="210.754" y="828.612" fill="none" stroke="#AFACAC" stroke-width="2" stroke-miterlimit="10" width="8.463" height="42.661"/>
	
		<rect x="210.754" y="871.273" fill="none" stroke="#AFACAC" stroke-width="2" stroke-miterlimit="10" width="8.463" height="42.661"/>
	
		<rect x="202.292" y="828.612" fill="none" stroke="#AFACAC" stroke-width="2" stroke-miterlimit="10" width="8.463" height="42.661"/>
	
		<rect x="202.292" y="871.273" fill="none" stroke="#AFACAC" stroke-width="2" stroke-miterlimit="10" width="8.463" height="42.661"/>
	
		<rect x="193.829" y="828.612" fill="none" stroke="#AFACAC" stroke-width="2" stroke-miterlimit="10" width="8.462" height="42.661"/>
	
		<rect x="193.829" y="871.273" fill="none" stroke="#AFACAC" stroke-width="2" stroke-miterlimit="10" width="8.462" height="42.661"/>
	
		<rect x="185.366" y="828.612" fill="none" stroke="#AFACAC" stroke-width="2" stroke-miterlimit="10" width="8.463" height="42.661"/>
	
		<rect x="185.366" y="871.273" fill="none" stroke="#AFACAC" stroke-width="2" stroke-miterlimit="10" width="8.463" height="42.661"/>
	
		<rect x="308.681" y="828.612" fill="none" stroke="#AFACAC" stroke-width="2" stroke-miterlimit="10" width="8.463" height="42.661"/>
	
		<rect x="308.681" y="871.273" fill="none" stroke="#AFACAC" stroke-width="2" stroke-miterlimit="10" width="8.463" height="42.661"/>
	
		<rect x="300.219" y="828.612" fill="none" stroke="#AFACAC" stroke-width="2" stroke-miterlimit="10" width="8.462" height="42.661"/>
	
		<rect x="300.219" y="871.273" fill="none" stroke="#AFACAC" stroke-width="2" stroke-miterlimit="10" width="8.462" height="42.661"/>
	
		<rect x="291.756" y="828.612" fill="none" stroke="#AFACAC" stroke-width="2" stroke-miterlimit="10" width="8.463" height="42.661"/>
	
		<rect x="291.756" y="871.273" fill="none" stroke="#AFACAC" stroke-width="2" stroke-miterlimit="10" width="8.463" height="42.661"/>
	
		<rect x="283.293" y="828.612" fill="none" stroke="#AFACAC" stroke-width="2" stroke-miterlimit="10" width="8.463" height="42.661"/>
	
		<rect x="283.293" y="871.273" fill="none" stroke="#AFACAC" stroke-width="2" stroke-miterlimit="10" width="8.463" height="42.661"/>
	
		<rect x="274.831" y="828.612" fill="none" stroke="#AFACAC" stroke-width="2" stroke-miterlimit="10" width="8.462" height="42.661"/>
	
		<rect x="274.831" y="871.273" fill="none" stroke="#AFACAC" stroke-width="2" stroke-miterlimit="10" width="8.462" height="42.661"/>
	
		<rect x="266.368" y="828.612" fill="none" stroke="#AFACAC" stroke-width="2" stroke-miterlimit="10" width="8.463" height="42.661"/>
	
		<rect x="266.368" y="871.273" fill="none" stroke="#AFACAC" stroke-width="2" stroke-miterlimit="10" width="8.463" height="42.661"/>
	
		<rect x="240.662" y="713.656" fill="none" stroke="#AFACAC" stroke-width="2" stroke-miterlimit="10" width="8.463" height="39.127"/>
	
		<rect x="240.662" y="752.783" fill="none" stroke="#AFACAC" stroke-width="2" stroke-miterlimit="10" width="8.463" height="41.671"/>
	
		<rect x="232.199" y="713.656" fill="none" stroke="#AFACAC" stroke-width="2" stroke-miterlimit="10" width="8.462" height="39.127"/>
	
		<rect x="232.199" y="752.783" fill="none" stroke="#AFACAC" stroke-width="2" stroke-miterlimit="10" width="8.462" height="41.671"/>
	
		<rect x="223.736" y="713.656" fill="none" stroke="#AFACAC" stroke-width="2" stroke-miterlimit="10" width="8.463" height="39.127"/>
	
		<rect x="223.736" y="752.783" fill="none" stroke="#AFACAC" stroke-width="2" stroke-miterlimit="10" width="8.463" height="41.671"/>
	
		<rect x="240.662" y="991.5" fill="none" stroke="#AFACAC" stroke-width="2" stroke-miterlimit="10" width="8.463" height="39.127"/>
	
		<rect x="240.662" y="949.829" fill="none" stroke="#AFACAC" stroke-width="2" stroke-miterlimit="10" width="8.463" height="41.671"/>
	
		<rect x="355.667" y="1083.041" fill="none" stroke="#AFACAC" stroke-width="2" stroke-miterlimit="10" width="28.908" height="8.463"/>
	
		<rect x="384.575" y="1083.041" fill="none" stroke="#AFACAC" stroke-width="2" stroke-miterlimit="10" width="28.908" height="8.463"/>
	
		<rect x="355.667" y="1091.504" fill="none" stroke="#AFACAC" stroke-width="2" stroke-miterlimit="10" width="28.908" height="8.463"/>
	
		<rect x="384.575" y="1091.504" fill="none" stroke="#AFACAC" stroke-width="2" stroke-miterlimit="10" width="28.908" height="8.463"/>
	<polyline fill="none" stroke="#AFACAC" stroke-width="2" stroke-miterlimit="10" points="355.667,1108.43 355.667,1099.967 
		384.575,1099.967 384.575,1108.43 	"/>
	<polyline fill="none" stroke="#AFACAC" stroke-width="2" stroke-miterlimit="10" points="384.575,1108.43 384.575,1099.967 
		413.483,1099.967 413.483,1108.43 	"/>
	
		<rect x="232.199" y="991.5" fill="none" stroke="#AFACAC" stroke-width="2" stroke-miterlimit="10" width="8.462" height="39.127"/>
	
		<rect x="232.199" y="949.829" fill="none" stroke="#AFACAC" stroke-width="2" stroke-miterlimit="10" width="8.462" height="41.671"/>
	
		<rect x="223.736" y="991.5" fill="none" stroke="#AFACAC" stroke-width="2" stroke-miterlimit="10" width="8.463" height="39.127"/>
	
		<rect x="223.736" y="949.829" fill="none" stroke="#AFACAC" stroke-width="2" stroke-miterlimit="10" width="8.463" height="41.671"/>
	
		<rect x="176.903" y="828.612" fill="none" stroke="#AFACAC" stroke-width="2" stroke-miterlimit="10" width="8.463" height="42.661"/>
	
		<rect x="176.903" y="871.273" fill="none" stroke="#AFACAC" stroke-width="2" stroke-miterlimit="10" width="8.463" height="42.661"/>
	
		<rect x="168.441" y="828.612" fill="none" stroke="#AFACAC" stroke-width="2" stroke-miterlimit="10" width="8.462" height="42.661"/>
	
		<rect x="168.441" y="871.273" fill="none" stroke="#AFACAC" stroke-width="2" stroke-miterlimit="10" width="8.462" height="42.661"/>
	
		<rect x="159.978" y="828.612" fill="none" stroke="#AFACAC" stroke-width="2" stroke-miterlimit="10" width="8.463" height="42.661"/>
	
		<rect x="159.978" y="871.273" fill="none" stroke="#AFACAC" stroke-width="2" stroke-miterlimit="10" width="8.463" height="42.661"/>
	
		<rect x="1726.126" y="939.835" transform="matrix(0.7071 -0.7071 0.7071 0.7071 -164.4841 1501.6384)" fill="none" stroke="#AFACAC" stroke-width="2" stroke-miterlimit="10" width="8.541" height="19.069"/>
	
		<rect x="1739.609" y="953.319" transform="matrix(0.7071 -0.7071 0.7071 0.7071 -170.0696 1515.1217)" fill="none" stroke="#AFACAC" stroke-width="2" stroke-miterlimit="10" width="8.541" height="19.068"/>
	
		<rect x="1732.164" y="933.795" transform="matrix(0.707 -0.7072 0.7072 0.707 -158.3993 1504.293)" fill="none" stroke="#AFACAC" stroke-width="2" stroke-miterlimit="10" width="8.541" height="19.069"/>
	
		<rect x="1745.648" y="947.279" transform="matrix(0.7071 -0.7071 0.7071 0.7071 -164.0295 1517.6235)" fill="none" stroke="#AFACAC" stroke-width="2" stroke-miterlimit="10" width="8.542" height="19.068"/>
	<polyline fill="none" stroke="#AFACAC" stroke-width="2" stroke-miterlimit="10" points="1720.635,945.646 1712.104,937.116 
		1712.104,818.07 1720.635,809.54 	"/>
	
		<rect x="1707.905" y="322.737" fill="none" stroke="#AFACAC" stroke-width="2" stroke-miterlimit="10" width="51.772" height="9.427"/>
	
		<rect x="1696.489" y="250.929" fill="none" stroke="#AFACAC" stroke-width="2" stroke-miterlimit="10" width="8.624" height="51.772"/>
	
		<rect x="1696.489" y="199.156" fill="none" stroke="#AFACAC" stroke-width="2" stroke-miterlimit="10" width="8.624" height="51.772"/>
	
		<rect x="1687.866" y="250.929" fill="none" stroke="#AFACAC" stroke-width="2" stroke-miterlimit="10" width="8.623" height="51.772"/>
	
		<rect x="1687.866" y="199.156" fill="none" stroke="#AFACAC" stroke-width="2" stroke-miterlimit="10" width="8.623" height="51.772"/>
	
		<rect x="1679.242" y="250.929" fill="none" stroke="#AFACAC" stroke-width="2" stroke-miterlimit="10" width="8.624" height="51.772"/>
	
		<rect x="1679.242" y="199.156" fill="none" stroke="#AFACAC" stroke-width="2" stroke-miterlimit="10" width="8.624" height="51.772"/>
	
		<rect x="1670.618" y="250.929" fill="none" stroke="#AFACAC" stroke-width="2" stroke-miterlimit="10" width="8.624" height="51.772"/>
	
		<rect x="1670.618" y="199.156" fill="none" stroke="#AFACAC" stroke-width="2" stroke-miterlimit="10" width="8.624" height="51.772"/>
	
		<rect x="1661.995" y="250.929" fill="none" stroke="#AFACAC" stroke-width="2" stroke-miterlimit="10" width="8.623" height="51.772"/>
	
		<rect x="1661.995" y="199.156" fill="none" stroke="#AFACAC" stroke-width="2" stroke-miterlimit="10" width="8.623" height="51.772"/>
	
		<rect x="1653.371" y="250.929" fill="none" stroke="#AFACAC" stroke-width="2" stroke-miterlimit="10" width="8.624" height="51.772"/>
	
		<rect x="1653.371" y="199.156" fill="none" stroke="#AFACAC" stroke-width="2" stroke-miterlimit="10" width="8.624" height="51.772"/>
	
		<rect x="1644.747" y="250.929" fill="none" stroke="#AFACAC" stroke-width="2" stroke-miterlimit="10" width="8.624" height="51.772"/>
	
		<rect x="1644.747" y="199.156" fill="none" stroke="#AFACAC" stroke-width="2" stroke-miterlimit="10" width="8.624" height="51.772"/>
	
		<rect x="1636.124" y="250.929" fill="none" stroke="#AFACAC" stroke-width="2" stroke-miterlimit="10" width="8.623" height="51.772"/>
	
		<rect x="1636.124" y="199.156" fill="none" stroke="#AFACAC" stroke-width="2" stroke-miterlimit="10" width="8.623" height="51.772"/>
	
		<rect x="1627.5" y="250.929" fill="none" stroke="#AFACAC" stroke-width="2" stroke-miterlimit="10" width="8.624" height="51.772"/>
	
		<rect x="1627.5" y="199.156" fill="none" stroke="#AFACAC" stroke-width="2" stroke-miterlimit="10" width="8.624" height="51.772"/>
	
		<rect x="1759.678" y="322.737" fill="none" stroke="#AFACAC" stroke-width="2" stroke-miterlimit="10" width="51.772" height="9.427"/>
	
		<rect x="1707.905" y="332.164" fill="none" stroke="#AFACAC" stroke-width="2" stroke-miterlimit="10" width="51.772" height="9.427"/>
	
		<rect x="1759.678" y="332.164" fill="none" stroke="#AFACAC" stroke-width="2" stroke-miterlimit="10" width="51.772" height="9.427"/>
	
		<rect x="1707.905" y="341.591" fill="none" stroke="#AFACAC" stroke-width="2" stroke-miterlimit="10" width="51.772" height="9.427"/>
	
		<rect x="1759.678" y="341.591" fill="none" stroke="#AFACAC" stroke-width="2" stroke-miterlimit="10" width="51.772" height="9.427"/>
	
		<rect x="1707.905" y="351.018" fill="none" stroke="#AFACAC" stroke-width="2" stroke-miterlimit="10" width="51.772" height="9.427"/>
	
		<rect x="1759.678" y="351.018" fill="none" stroke="#AFACAC" stroke-width="2" stroke-miterlimit="10" width="51.772" height="9.427"/>
	
		<rect x="1707.905" y="360.444" fill="none" stroke="#AFACAC" stroke-width="2" stroke-miterlimit="10" width="51.772" height="9.427"/>
	
		<rect x="1759.678" y="360.444" fill="none" stroke="#AFACAC" stroke-width="2" stroke-miterlimit="10" width="51.772" height="9.427"/>
	
		<rect x="1707.905" y="369.871" fill="none" stroke="#AFACAC" stroke-width="2" stroke-miterlimit="10" width="51.772" height="9.427"/>
	
		<rect x="1759.678" y="369.871" fill="none" stroke="#AFACAC" stroke-width="2" stroke-miterlimit="10" width="51.772" height="9.427"/>
	
		<rect x="1707.905" y="379.298" fill="none" stroke="#AFACAC" stroke-width="2" stroke-miterlimit="10" width="51.772" height="9.427"/>
	
		<rect x="1759.678" y="379.298" fill="none" stroke="#AFACAC" stroke-width="2" stroke-miterlimit="10" width="51.772" height="9.427"/>
	
		<rect x="1707.905" y="388.725" fill="none" stroke="#AFACAC" stroke-width="2" stroke-miterlimit="10" width="51.772" height="9.427"/>
	
		<rect x="1759.678" y="388.725" fill="none" stroke="#AFACAC" stroke-width="2" stroke-miterlimit="10" width="51.772" height="9.427"/>
	<path fill="none" stroke="#5D5F5F" stroke-width="5" stroke-miterlimit="10" d="M804.105-425.514l-31.855-19.117l-56.75-57.25
		c0,0-20.25-17.5-20.25-44.25s0-206.5,0-206.5s-4.586-18.65,31.414-54.9"/>
	<path fill="none" stroke="#5D5F5F" stroke-width="5" stroke-miterlimit="10" d="M818.481-450.277l-28.599-16.83l-46.786-47.197
		l-3.921-3.918c-3.923-5.211-15.578-16.992-15.578-54.824v-168.166c0-8.334,3.683-26.705,23.186-46.344"/>
	<path fill="none" stroke="#5D5F5F" stroke-width="5" stroke-miterlimit="10" d="M777.583-391.379l19.083-21.584l40.19-67.365
		v-19.711h-39.705l-25.884-26.111c-19.325-23.896-19.093-47.77-19.325-48.396v-151c0-16.834,5.257-32.26,14.962-42.031"/>
	<path fill="none" stroke="#5D5F5F" stroke-width="5" stroke-miterlimit="10" d="M1221.276-850.735l-34.109-32.646
		c0,0-20.5-21-56.5-21s-107,0-107,0H966.5c0,0-71,0-107,0s-56.5,21-56.5,21l-32.821,31.414"/>
	<path fill="none" stroke="#5D5F5F" stroke-width="5" stroke-miterlimit="10" d="M1186.063-425.514l31.854-19.117l56.75-57.25
		c0,0,20.25-17.5,20.25-44.25s0-206.5,0-206.5s4.625-18.611-31.375-54.861"/>
	<path fill="none" stroke="#5D5F5F" stroke-width="5" stroke-miterlimit="10" d="M1200.623-831.264l-28.856-27.619
		c-1.849-1.668-19.55-17.152-41.1-17.152h-78.653h-113.86H859.5c-21.55,0-39.25,15.484-41.1,17.152l-28.099,26.895"/>
	<path fill="none" stroke="#5D5F5F" stroke-width="5" stroke-miterlimit="10" d="M1171.686-450.277l28.6-16.83l46.785-47.197
		l3.922-3.918c3.924-5.211,15.578-16.992,15.578-54.824v-168.166c0-8.334-3.933-26.961-23.436-46.598"/>
	<path fill="none" stroke="#5D5F5F" stroke-width="5" stroke-miterlimit="10" d="M1181.594-810.24l-26.758-25.61
		c-1.125-0.881-16.684-11.838-38.189-11.838h-36.286H909.807h-36.286c-21.506,0-37.065,10.957-38.19,11.838l-24.907,23.84"/>
	<path fill="none" stroke="#5D5F5F" stroke-width="5" stroke-miterlimit="10" d="M1212.584-391.379l-19.084-21.584l-40.189-67.365
		v-19.711h39.705l25.883-26.111c19.325-23.896,19.094-47.77,19.325-48.396v-151c0-16.834-5.421-32.432-15.126-42.203"/>
	<path fill="none" stroke="#5D5F5F" stroke-width="5" stroke-miterlimit="10" d="M701.844-832.174l85.979,85.364
		c-3.391,3.416-7.533,18.43-7.533,38.264v121.166c0,0-0.79,25.834,12.963,43.143c1.793,2.258,3.661,4.473,5.553,6.619v38.061"/>
	<path fill="none" stroke="#5D5F5F" stroke-width="5" stroke-miterlimit="10" d="M1245.572-875.237l-84.181,84.899l-14.793-14.158
		c-18.649-15.858-40.491-14.846-40.655-14.846h-19.205h-183.31h-19.205c-0.164,0-22.006-1.012-40.655,14.846l-12.756,12.729
		l-85.979-85.364"/>
	<path fill="none" stroke="#5D5F5F" stroke-width="5" stroke-miterlimit="10" d="M1287.572-830.667l-85.245,82.209
		c3.392,3.416,7.55,20.076,7.55,39.91v121.166c0,0,0.79,25.834-12.963,43.143c-1.793,2.258-3.66,4.473-5.553,6.619v38.061"/>
	<path fill="none" stroke="#5D5F5F" stroke-width="5" stroke-miterlimit="10" d="M734.283,1043.808l-68.568-70.169
		c0,0-27.408-25.885-27.408-56.676V660.07c0,0,0-25.702,36.309-61.118c3.152-3.074,13.522-13.046,23.096-22.476l121.285,121.285"/>
	<path fill="none" stroke="#5D5F5F" stroke-width="5" stroke-miterlimit="10" d="M778.651,1043.808l-68.568-70.169
		c0,0-43.411-41.352-43.411-82.352l1.414-207.92c0,0-1.557-30.247,30.748-62.914c3.096-3.131,12.17-12.142,21.744-21.571"/>
	<path fill="none" stroke="#5D5F5F" stroke-width="5" stroke-miterlimit="10" d="M805.734,1036.12l-68.267-69.167
		c0,0-42.429-42.674-42.429-83.674l0.24-193.659c0,0-0.24-25,37.469-65.167c3.014-3.21,6.744-5.94,6.744-5.94"/>
	<path fill="none" stroke="#5D5F5F" stroke-width="5" stroke-miterlimit="10" d="M827.35,1006.995l-57.019-48.001
		c0,0-46.928-43.034-46.928-80.541l0.24-168c0,0-2.476-29.833,37.164-72.153"/>
	<path fill="none" stroke="#5D5F5F" stroke-width="5" stroke-miterlimit="10" d="M844.608,980.286l-54.2-43.711
		c0,0-38.64-30.955-38.64-67.456l0.24-158.666c0,0-0.24-22,28.125-53.215"/>
	<path fill="none" stroke="#5D5F5F" stroke-width="5" stroke-miterlimit="10" d="M798.773,675.501
		c-18.639,19.619-18.399,42.619-18.399,42.619l-0.24,133.999c0,36.501,33.033,68.334,33.033,68.334l18.167,18.667h32.858"/>
	<path fill="none" stroke="#5D5F5F" stroke-width="5" stroke-miterlimit="10" d="M662.032,1091.975l-89.126-90.854
		c0,0-19.667-19.834-19.667-58.776V638.677c0,0-1.28-36.333,13.386-51s162.903-161.944,162.903-161.944"/>
	<path fill="none" stroke="#5D5F5F" stroke-width="5" stroke-miterlimit="10" d="M544.167,1010.371c0,0-19.293-29.085-19.293-68.027
		V638.677c0,0-0.59-41.749,16.483-61.831c8.638-10.16-2.772,2.709,152.052-151.113"/>
	
		<line fill="none" stroke="#5D5F5F" stroke-width="5" stroke-miterlimit="10" x1="713.373" y1="591.822" x2="753.098" y2="551.801"/>
	<line fill="none" stroke="#5D5F5F" stroke-width="5" stroke-miterlimit="10" x1="733.868" y1="611.482" x2="773.52" y2="571.812"/>
	<polyline fill="none" stroke="#5D5F5F" stroke-width="5" stroke-miterlimit="10" points="821.054,928.558 864.191,928.558 
		864.191,951.014 810.032,1034.78 795.707,1043.808 	"/>
	<path fill="none" stroke="#5D5F5F" stroke-width="5" stroke-miterlimit="10" d="M1261.682,425.362
		c0,0,159.959,158.923,174.625,173.59s12,47.667,12,47.667v303.667c0,23-21.334,42.334-21.334,42.334l-50.333,51.188h-198.668
		l-13.209-22.154h-37.28H902.589h-37.28l-13.209,22.154H653.433l-50.333-51.188c0,0-21.333-19.334-21.333-42.334V646.619
		c0,0-2.667-33,12-47.667s174.625-173.59,174.625-173.59"/>
	<path fill="none" stroke="#5D5F5F" stroke-width="5" stroke-miterlimit="10" d="M858.33,657.343L737.728,536.741
		c15.223-15.241,30.784-30.887,46.841-47.068c11.33-11.418,23.157-18.404,35.775-22.341c19.332-6.032,36.717-5.282,36.717-5.282
		h58.491h198.967h58.491c0,0,17.386-0.75,36.718,5.282c12.617,3.937,24.444,10.923,35.774,22.341
		c16.058,16.182,31.618,31.827,46.841,47.068l-120.635,120.635"/>
	<path fill="none" stroke="#5D5F5F" stroke-width="5" stroke-miterlimit="10" d="M1295.789,1043.808l68.568-70.169
		c0,0,27.408-25.885,27.408-56.676V660.07c0,0,0-25.702-36.309-61.118c-3.152-3.074-13.523-13.046-23.097-22.476l-121.299,121.299"
		/>
	<path fill="none" stroke="#5D5F5F" stroke-width="5" stroke-miterlimit="10" d="M1269.541,559.085
		c-15.223-15.241-33.313-34.558-49.803-50.298c-22-21-75.093-19-75.093-19h-58.491H943.918h-58.491c0,0-53.093-2-75.093,19
		c-16.49,15.74-34.579,35.057-49.802,50.298"/>
	<path fill="none" stroke="#5D5F5F" stroke-width="5" stroke-miterlimit="10" d="M1251.421,1043.808l68.567-70.169
		c0,0,43.412-41.352,43.412-82.352l-1.414-207.92c0,0,1.557-30.247-30.748-62.914c-3.096-3.131-12.17-12.142-21.744-21.571"/>
	<path fill="none" stroke="#5D5F5F" stroke-width="5" stroke-miterlimit="10" d="M1250.374,578.964
		c-15.223-15.241-28.544-28.75-45.015-44.511c-15.5-14.833-47.332-14.833-47.332-14.833l-70.752,0.333H942.797l-70.751-0.333
		c0,0-31.833,0-47.333,14.833c-16.47,15.761-29.792,29.27-45.014,44.511"/>
	<path fill="none" stroke="#5D5F5F" stroke-width="5" stroke-miterlimit="10" d="M1224.338,1036.12l68.268-69.167
		c0,0,42.429-42.674,42.429-83.674l-0.239-193.659c0,0,0.239-25-37.47-65.167c-3.014-3.21-6.744-5.94-6.744-5.94"/>
	<path fill="none" stroke="#5D5F5F" stroke-width="5" stroke-miterlimit="10" d="M1228.877,598.929
		c-15.223-15.241-17.41-18.672-34.305-33.976c-19.5-17.663-51.225-17.663-51.225-17.663l-70.752,0.333H957.477l-70.751-0.333
		c0,0-31.725,0-51.225,17.663c-16.895,15.304-19.083,18.734-34.305,33.976"/>
	<path fill="none" stroke="#5D5F5F" stroke-width="5" stroke-miterlimit="10" d="M1202.723,1006.995l57.019-48.001
		c0,0,46.928-43.034,46.928-80.541l-0.239-168c0,0,2.476-29.833-37.164-72.153"/>
	<path fill="none" stroke="#5D5F5F" stroke-width="5" stroke-miterlimit="10" d="M1209.939,617.484
		c-15.223-15.241-10.141-11.602-27.367-26.531c-22.5-19.5-62.758-16.666-62.758-16.666l-70.751,0.333h-68.055l-70.751-0.333
		c0,0-40.258-2.834-62.758,16.666c-17.227,14.93-12.145,11.29-27.368,26.531"/>
	<path fill="none" stroke="#5D5F5F" stroke-width="5" stroke-miterlimit="10" d="M1185.464,980.286l54.2-43.711
		c0,0,38.639-30.955,38.639-67.456l-0.239-158.666c0,0,0.239-22-28.126-53.215"/>
	<path fill="none" stroke="#5D5F5F" stroke-width="5" stroke-miterlimit="10" d="M1190.492,636.54
		c-5.057-5.444-14.293-15.076-21.42-21.254c-22.5-19.5-61.29-15.617-61.29-15.617l-70.751,0.333h-43.99l-70.751-0.333
		c0,0-38.79-3.883-61.29,15.617c-7.127,6.178-16.363,15.81-21.42,21.254"/>
	<path fill="none" stroke="#5D5F5F" stroke-width="5" stroke-miterlimit="10" d="M1231.299,675.501
		c18.639,19.619,18.399,42.619,18.399,42.619l0.239,133.999c0,36.501-33.032,68.334-33.032,68.334l-18.167,18.667h-32.857"/>
	<path fill="none" stroke="#5D5F5F" stroke-width="5" stroke-miterlimit="10" d="M1367.074,1093.061l90.093-91.94
		c0,0,19.667-19.834,19.667-58.776V638.677c0,0,1.279-36.333-13.387-51s-162.903-161.944-162.903-161.944"/>
	<path fill="none" stroke="#5D5F5F" stroke-width="5" stroke-miterlimit="10" d="M1485.905,1010.371
		c0,0,19.294-29.085,19.294-68.027V638.677c0,0,0.59-41.749-16.483-61.831c-8.638-10.16,2.772,2.709-152.052-151.113"/>
	<path fill="none" stroke="#5D5F5F" stroke-width="5" stroke-miterlimit="10" d="M1049.063,898.286l151.818,1.31
		c9.919-11.146,20.69-27.782,20.69-47.477l-0.24-111.999c0,0,0.24-30.5-11.505-43.579l-39.312-40.426
		c-5.936-5.627-11.809-11.003-15.11-13.629c-19-15.111-69.322-14.55-69.322-14.55l-70.75,0.333h-0.594l-70.75-0.333
		c0,0-50.322-0.562-69.322,14.55c-3.302,2.626-9.175,8.002-15.11,13.629l-39.312,40.426C808.5,709.62,808.74,740.12,808.74,740.12
		l-0.24,111.999c0,19.694,10.771,36.331,20.69,47.477l151.818-1.31H1049.063z"/>
	
		<line fill="none" stroke="#5D5F5F" stroke-width="5" stroke-miterlimit="10" x1="1316.699" y1="591.822" x2="1276.975" y2="551.801"/>
	
		<line fill="none" stroke="#5D5F5F" stroke-width="5" stroke-miterlimit="10" x1="1296.204" y1="611.482" x2="1256.553" y2="571.812"/>
	<polyline fill="none" stroke="#5D5F5F" stroke-width="5" stroke-miterlimit="10" points="1209.018,928.558 1165.881,928.558 
		1165.881,951.014 1220.04,1034.78 1234.365,1043.808 	"/>
	<polyline fill="none" stroke="#5D5F5F" stroke-width="5" stroke-miterlimit="10" points="1174.469,1037.933 1153.828,1051.741 
		1126.896,1051.741 903.176,1051.741 876.244,1051.741 855.604,1037.933 	"/>
	<polyline fill="none" stroke="#5D5F5F" stroke-width="5" stroke-miterlimit="10" points="1213.514,881.838 1049.888,881.838 
		980.185,881.838 816.559,881.838 	"/>
	<path fill="none" stroke="#5D5F5F" stroke-width="5" stroke-miterlimit="10" d="M1334.858,1043.808l50.333-51.188
		c0,0,34.939-32.5,34.939-58.334V653.953c0,0,0-27.833-25.605-55.001c-9.918-10.523-91.322-90.321-139.018-138.376
		c-27.416-27.623-52.377-27.623-52.377-27.623h-21.667v11.851c-8.376,2.635-14.776,2.487-14.776,2.487h-0.001
		c0,0-8.126,0.12-17.838-3.539c-7.651-2.883-19.499-2.883-19.499-2.883s-11.848,0-19.499,2.883
		c-9.712,3.659-17.838,3.539-17.838,3.539h-0.001c0,0-8.126,0.12-17.838-3.539c-7.651-2.883-19.499-2.883-19.499-2.883
		s-11.848,0-19.499,2.883c-9.712,3.659-17.838,3.539-17.838,3.539h-0.001c0,0-8.126,0.12-17.838-3.539
		c-7.651-2.883-19.499-2.883-19.499-2.883s-11.848,0-19.499,2.883c-9.712,3.659-17.838,3.539-17.838,3.539h-0.001
		c0,0-8.126,0.12-17.838-3.539c-7.651-2.883-19.499-2.883-19.499-2.883s-11.848,0-19.499,2.883
		c-9.712,3.659-17.838,3.539-17.838,3.539h-0.001c0,0-8.126,0.12-17.838-3.539c-0.475-0.179-1.038-0.369-1.541-0.526v-10.272
		h-21.667c0,0-24.961,0-52.377,27.623c-47.695,48.055-129.099,127.853-139.017,138.376c-25.605,27.168-25.605,55.001-25.605,55.001
		v280.333c0,25.834,34.939,58.334,34.939,58.334l50.333,51.188"/>
	<polyline fill="none" stroke="#5D5F5F" stroke-width="5" stroke-miterlimit="10" points="879.184,445.461 879.184,411.672 
		1150.889,411.672 1150.889,444.475 	"/>
	<g>
		
			<use xlink:href="#drzwi"  width="38.417" height="37.521" x="-19.209" y="-18.761" transform="matrix(-0.7938 0 0 0.7938 1768.4971 -580.7119)" overflow="visible"/>
		
			<use xlink:href="#drzwi"  width="38.417" height="37.521" x="-19.209" y="-18.761" transform="matrix(-0.7938 0 0 -0.7938 1768.4971 -609.0322)" overflow="visible"/>
	</g>
	<g>
		
			<use xlink:href="#drzwi"  width="38.417" height="37.521" x="-19.209" y="-18.761" transform="matrix(-0.7938 0 0 0.7938 1768.4971 -509.2295)" overflow="visible"/>
		
			<use xlink:href="#drzwi"  width="38.417" height="37.521" x="-19.209" y="-18.761" transform="matrix(-0.7938 0 0 -0.7938 1768.4971 -537.5498)" overflow="visible"/>
	</g>
	
		<use xlink:href="#drzwi"  width="38.417" height="37.521" x="-19.209" y="-18.761" transform="matrix(0 -0.72 -0.72 0 764.1123 -316.7822)" overflow="visible"/>
	
		<use xlink:href="#drzwi"  width="38.417" height="37.521" x="-19.209" y="-18.761" transform="matrix(0 -0.72 -0.72 0 484.2881 -316.7822)" overflow="visible"/>
	
		<use xlink:href="#drzwi"  width="38.417" height="37.521" x="-19.209" y="-18.761" transform="matrix(-0.6072 0 0 0.6072 1433.2285 -595.8076)" overflow="visible"/>
	
		<use xlink:href="#drzwi"  width="38.417" height="37.521" x="-19.209" y="-18.761" transform="matrix(-0.6072 0 0 0.6072 1433.2285 -566.8145)" overflow="visible"/>
	
		<use xlink:href="#drzwi"  width="38.417" height="37.521" x="-19.209" y="-18.761" transform="matrix(0 -0.6072 -0.6072 0 1442.6055 -452.1953)" overflow="visible"/>
	
		<use xlink:href="#drzwi"  width="38.417" height="37.521" x="-19.209" y="-18.761" transform="matrix(0 -0.6072 -0.6072 0 1413.6123 -452.1953)" overflow="visible"/>
	
		<use xlink:href="#drzwi"  width="38.417" height="37.521" x="-19.209" y="-18.761" transform="matrix(0 0.8049 -0.8049 0 1290.2588 -406.8408)" overflow="visible"/>
	
		<use xlink:href="#drzwi"  width="38.417" height="37.521" x="-19.209" y="-18.761" transform="matrix(-0.8049 0 0 0.8049 1334.6563 -367.5908)" overflow="visible"/>
	
		<use xlink:href="#drzwi"  width="38.417" height="37.521" x="-19.209" y="-18.761" transform="matrix(-0.8049 0 0 0.8049 1426.6563 -367.5908)" overflow="visible"/>
	
		<use xlink:href="#drzwi"  width="38.417" height="37.521" x="-19.209" y="-18.761" transform="matrix(0 0.6509 0.6509 0 1295.2188 -343.1309)" overflow="visible"/>
</g>
<g id="wypelnienia">
	<g>
		<path fill="#5D5F5F" d="M524.5-384.379h21.221v-14H538.5v-439.103l71.3-71.298l19.881,20.151L585.5-844.447v111.536h-17.332v7
			H585.5v327.532h-10.389v14h101.394v-14H599.5v-440.269l40.014-40.015l46.01,46.636c-38.362,36.013-37.714,72.276-37.524,76.173
			v210.476c0,43.659,19.986,62.67,23.236,65.472l80.077,81.528h-43.979v14h77.354L680.994-489.952l-0.253-0.269l-0.339-0.269
			c-0.751-0.62-18.402-15.627-18.402-54.89v-210.668l-0.014-0.444c-0.084-1.449-1.601-35.893,38.227-69.899l5.721-4.884
			l-26.179-26.535l6.821-6.821l-4.95-4.95l-6.788,6.788l-41.82-42.389l6.503-6.503l-4.95-4.95l-6.47,6.47l-18.233-18.481
			L524.5-843.281V-384.379z"/>
		<path fill="#5D5F5F" d="M728.875-999.715v-14h-31.476l-46.257,47.042l16.733,16.733l-7.024,7.024l4.95,4.95l7.024-7.024
			l42.104,42.104l-7.024,7.024l4.95,4.95l7.024-7.024l25.88,25.88l4.948-5.136c0.176-0.183,17.791-18.446,36.775-36.443
			c22.99-21.796,41.732-22.411,41.851-22.414l332.886,0c0.187,0.004,18.929,0.619,41.918,22.415
			c18.984,17.997,36.6,36.26,36.775,36.443l4.948,5.135l25.594-25.594l6.737,6.738l4.949-4.949l-6.737-6.738l42.105-42.105
			l6.737,6.738l4.949-4.949l-6.737-6.738l17.021-17.021l-46.259-47.042H758v14h530.354l32.409,32.958l-74.745,74.746
			c-6.649-6.777-19.123-19.34-32.247-31.783c-27.378-25.956-50.512-26.254-51.483-26.254H829.333
			c-0.972,0-24.105,0.298-51.483,26.254c-13.125,12.442-25.599,25.006-32.248,31.783l-74.745-74.746l32.41-32.958H728.875z"/>
		<polygon fill="#5D5F5F" points="1152.27,-389.154 1162.771,-398.414 1152.66,-409.881 1032.25,-409.881 1032.25,-395.881 
			1146.34,-395.881 		"/>
		<g>
			<rect x="1307.559" y="-336.881" fill="#5D5F5F" width="199.109" height="14"/>
			<polygon fill="#5D5F5F" points="1282.807,-336.881 1217.029,-336.881 1183.528,-374.874 1173.028,-365.614 1198.364,-336.881 
				1072,-336.881 1072,-322.881 1282.807,-322.881 			"/>
		</g>
		<polygon fill="#5D5F5F" points="842.108,-395.881 955.333,-395.881 955.333,-409.881 834.058,-409.881 792.755,-338.901 
			791.496,-336.881 778.111,-336.881 778.111,-322.881 970,-322.881 970,-336.881 807.777,-336.881 		"/>
		<rect x="6.5" y="-664.131" fill="#5D5F5F" width="14" height="213.75"/>
		<polygon fill="#5D5F5F" points="20.5,-792.385 48.375,-792.385 48.375,-806.385 6.5,-806.385 6.5,-732.381 20.5,-732.381 		"/>
		<path fill="#5D5F5F" d="M693-1320.13v185.249h-40.438L417-894.889v88.504H111.252v14h32.999v88.004h7v-24.5H307.5v-63.504H431
			v-96.782l227.438-231.715H707v-185.249h983.5v286.03h14v-286.03h149v281.499h-27.75v71.961h-6.915v17.849h-56.231v43.441h-24.31
			v19.833h26.04v0.021h55.058v-61.31h6.358v100.311h-72.514v27.262h-12.127v14h84.641v125.633h-76v41.5h7v-34.5h82.9v-5.5h0.1
			v-346.5h27.75v-309.499H693z M300.5-735.881H151.251v-56.504H300.5V-735.881z M1812.392-879.012h-42.788v-48.81h42.788V-879.012z
			 M1760.236-805.264v-20.262h65.514v20.262H1760.236z"/>
		<rect x="1659.5" y="-336.881" fill="#5D5F5F" width="50.448" height="14"/>
		<path fill="#5D5F5F" d="M1633-1206.881h-358v79.5h170.045h14H1633V-1206.881z M1619-1141.381h-159.955v-9.335h-14v9.335H1289
			v-51.5h330V-1141.381z"/>
		<path fill="#5D5F5F" d="M1210.5-1206.881H770.827v79.5h170.045h14H1210.5V-1206.881z M1196.5-1141.381H954.872v-9.335h-14v9.335
			H784.827v-51.5H1196.5V-1141.381z"/>
		<polygon fill="#5D5F5F" points="667.9,-349.662 653.9,-349.662 653.9,-336.881 591.567,-336.881 591.567,-349.694 
			584.567,-349.694 584.567,-336.881 498.152,-336.881 498.152,-322.881 750.324,-322.881 750.324,-336.881 667.9,-336.881 		"/>
		<rect x="1436.996" y="-807.006" fill="#5D5F5F" width="7" height="139.196"/>
		<polygon fill="#5D5F5F" points="144.251,-652.885 144.251,-459.881 151.251,-459.881 151.251,-517.381 307.5,-517.381 
			307.5,-610.881 181.667,-610.881 181.667,-603.881 300.5,-603.881 300.5,-524.381 151.251,-524.381 151.251,-603.881 
			154.385,-603.881 154.385,-610.881 151.251,-610.881 151.251,-652.885 		"/>
		<path fill="#5D5F5F" d="M307.5-398.131H151.251v-11.166h-7v22.916h7v-4.75H300.5v26H167.25v28.25h-15.999v-22.166h-7v22.166h-17.4
			v14H318.5v157.5h-298v-157.5h53.222v-14H20.5v-49.5h-14v235h326v-171.5h138v-14h-163V-398.131z M174.25-358.131H300.5v21.25
			H174.25V-358.131z"/>
		<rect x="1595.662" y="-665.617" fill="#5D5F5F" width="7" height="216.188"/>
		<polygon fill="#5D5F5F" points="1839.65,-459.631 1756.75,-459.631 1756.75,-494.131 1749.75,-494.131 1749.75,-452.631 
			1825.773,-452.631 1825.773,-336.881 1762.5,-336.881 1762.5,-322.881 1825.773,-322.881 1825.773,-164.381 1550.038,-164.381 
			1550.038,-322.881 1607,-322.881 1607,-336.881 1536.038,-336.881 1536.038,-150.381 1839.773,-150.381 1839.773,-453.881 
			1839.65,-453.881 		"/>
		<rect x="1749.75" y="-565.799" fill="#5D5F5F" width="7" height="13.335"/>
		<rect x="184.108" y="-651.842" fill="#5D5F5F" width="117.639" height="7"/>
		<rect x="625.808" y="-572.056" fill="#5D5F5F" width="12.899" height="12.899"/>
		<rect x="625.808" y="-742.331" fill="#5D5F5F" width="12.899" height="12.899"/>
		<rect x="1352.541" y="-572.056" fill="#5D5F5F" width="12.9" height="12.899"/>
		<rect x="1352.541" y="-742.331" fill="#5D5F5F" width="12.9" height="12.899"/>
		<rect x="1539.345" y="-1040.831" fill="#5D5F5F" width="12.9" height="12.899"/>
		<rect x="1352.54" y="-1040.831" fill="#5D5F5F" width="12.9" height="12.899"/>
		<rect x="1168.995" y="-1040.831" fill="#5D5F5F" width="12.9" height="12.899"/>
		<rect x="987.706" y="-1040.831" fill="#5D5F5F" width="12.9" height="12.899"/>
		<rect x="807.42" y="-1040.831" fill="#5D5F5F" width="12.9" height="12.899"/>
		<rect x="590.496" y="-1040.831" fill="#5D5F5F" width="12.9" height="12.899"/>
		<rect x="440.033" y="-890.368" fill="#5D5F5F" width="12.9" height="12.899"/>
		<rect x="289.85" y="-486.442" fill="#5D5F5F" width="12.9" height="12.899"/>
		<path fill="#5D5F5F" d="M1617.836-808.977h-34.098v-3.972h-36.237v-20.683H1617v-7h-224.415v-3.815l-38.1-38.101l25.882-26.233
			l42.1,42.099l9.9-9.899l-52.066-52.066l-17.797,18.038l-6.026-6.027l-4.949,4.949l6.06,6.061l-41.821,42.389l-6.344-6.344
			l-4.949,4.949l6.377,6.378l-26.617,26.979l5.721,4.884c39.828,34.006,38.312,68.45,38.229,69.862l-0.017,0.24v210.909
			c0,39.263-17.65,54.27-18.352,54.849l-0.339,0.27l-103.997,105.882h69.354v-14h-35.979l80.076-81.528
			c3.251-2.802,23.236-21.813,23.236-65.472v-210.476c0.19-3.896,0.839-40.16-37.524-76.173l40.01-40.553l33.933,33.933v435.836
			h-72.923v14h160.005v-0.023h81.834v-103.712h-40.833v7h33.833v60h-68.281v-3.757h-7.283v26.492h-72.352v-96.569h65.246v45.5h14
			v-55.52h-14v3.02h-65.246v-42h65.126v5.842h14v-64.46h-14v51.618h-65.126v-81.107h59.082v2.485h14v-2.485h74.834v83.273h-33.833v7
			h40.833v-131.832h-7v16.832h-74.834v-3.897h-14v21.624h-59.082v-190.143h147.916v56.75h7v-9.129h36.237v-1.801h34.098V-808.977z
			 M1540.501-418.547v22h-68.281v-22H1540.501z M1465.667-654.215h74.834v10.727h-74.834V-654.215z"/>
		<rect x="1472.001" y="-891.381" fill="#5D5F5F" width="13" height="19.833"/>
		<rect x="1539.295" y="-891.381" fill="#5D5F5F" width="13" height="19.833"/>
		<rect x="1606.128" y="-891.381" fill="#5D5F5F" width="13" height="19.833"/>
		<polygon fill="#5D5F5F" points="385.216,-474.453 391.902,-474.453 391.902,-465.521 416.206,-465.521 416.206,-463.325 
			434.07,-463.325 434.07,-465.521 458.373,-465.521 458.373,-474.453 462.714,-474.453 462.714,-487.678 458.373,-487.678 
			458.373,-494.329 434.07,-494.329 434.07,-496.66 416.206,-496.66 416.206,-494.329 391.902,-494.329 391.902,-487.678 
			385.216,-487.678 		"/>
		<polygon fill="#5D5F5F" points="416.206,-665.009 416.206,-662.813 391.902,-662.813 391.902,-653.881 385.216,-653.881 
			385.216,-640.656 391.902,-640.656 391.902,-634.005 416.206,-634.005 416.206,-631.674 434.07,-631.674 434.07,-634.005 
			458.373,-634.005 458.373,-640.656 462.714,-640.656 462.714,-653.881 458.373,-653.881 458.373,-662.813 434.07,-662.813 
			434.07,-665.009 		"/>
	</g>
	<g>
		<path fill="#5D5F5F" d="M1847.334,442.619V67.285H1705.41v22.516h-597.108v7h594.865v77.305h-15.265v25.974h20.881v-21.318v-4.655
			V96.801h10.6V91.6h0.027V81.285h113.924v347.334h-17.037V322.486h-7v108.341h0.037v185.779h-11.23v-38.574v-3.5V517.73h-45.858
			l-42.079-45.807V320.287h-0.055v-18.546h-22.209v18.546h15.264V474.65l44.042,47.943v55.438h43.896v38.574h-51.939v29.014h0.043v7
			h8.001v130.974h7V775.1h66.459v205.249h-66.459v-8.494h-7v116.098h-156.636v-18.535h-7v18.535h-41.666v-87.989h-7v8.426h-77.479
			l-78.055,79.563h-188.881v14h644.175V638.62h-11.333V442.619H1847.334z M1534.906,1087.952h-145.728l71.188-72.563h74.539
			V1087.952z M1820.667,1087.952h-66.459V987.349h66.459V1087.952z M1754.208,571.032V524.73h36.896v46.302H1754.208z
			 M1746.164,638.62v-15.014h63.17v15.014H1746.164z M1820.667,768.1h-66.459V652.62h66.459V768.1z"/>
		<path fill="#5D5F5F" d="M744.728,94.518h90.439v-7h-6.792V69.494h-14.911v18.023h-62.589V72.994h-6.147V27.285h297.939v42.209
			H956.8v25.023h85.867v0.03h14V13.285H730.728v81.263h14V94.518z M820.464,76.494h0.911v11.023h-0.911V76.494z M1038.375,87.518
			H963.8V76.494h74.575V87.518z"/>
		<rect x="869.167" y="1087.952" fill="#5D5F5F" width="292.899" height="14"/>
		<path fill="#5D5F5F" d="M181,1101.952h150.727v77.039H106.26v-77.039h27.407v-14H90V652.62h35.667v-14h-16.333V299.285h232.902
			v218.048H214.834v26.146h7v-19.146h103.734v29.771h-39.686v38.321h56.354v0.002h7v-0.002v-38.321V299.285H576V88.619h59.5v-14H562
			v210.666H95.334V638.62H76v463.332h16.26v91.039h253.467v-91.039h9.94v-14H181V1101.952z M342.236,585.425h-49.354v-24.321h49.354
			V585.425z M342.236,554.104h-9.668v-29.771h9.668V554.104z"/>
		<path fill="#5D5F5F" d="M353.667,638.62h-4.432v-22.632h-7v22.632h-13.833v-18.697H221.834v-18.849h-7v37.546h-32.5v14h171.333
			V638.62z M321.403,638.62h-99.569v-11.697h99.569V638.62z"/>
		<polygon fill="#5D5F5F" points="669.833,95.952 683.833,95.952 683.833,63.619 669.833,63.619 669.833,74.619 661,74.619 
			661,88.619 669.833,88.619 		"/>
		<polygon fill="#5D5F5F" points="572.644,1008.389 495.166,1008.389 495.166,994.559 488.166,994.559 488.166,1048.71 
			495.166,1048.71 495.166,1015.389 569.706,1015.389 640.893,1087.952 495.166,1087.952 495.166,1075.964 488.166,1075.964 
			488.166,1087.952 446.5,1087.952 446.5,1068.051 439.5,1068.051 439.5,1087.952 413.483,1087.952 413.483,1101.952 
			842.006,1101.952 842.006,1087.952 650.7,1087.952 		"/>
		<polygon fill="#5D5F5F" points="1430.485,473.896 1441.897,462.483 1436.948,457.534 1430.659,463.822 1398.775,429.654 
			1406.227,422.203 1401.277,417.254 1393.997,424.533 1390.195,420.46 1241.111,419.748 1241.111,412.31 1234.111,412.31 
			1234.111,419.715 1193.894,419.522 1193.894,412.31 1186.894,412.31 1186.894,419.489 1179.35,419.453 1179.316,426.453 
			1387.139,427.446 		"/>
		<polygon fill="#5D5F5F" points="648,378.453 648,371.453 608.487,371.453 440.52,540.15 439.5,541.175 439.5,675.953 
			446.5,675.953 446.5,590.453 488.166,590.453 488.166,596.298 495.166,596.298 495.166,562.62 488.166,562.62 488.166,583.453 
			446.5,583.453 446.5,544.065 558.255,431.824 563.455,437.024 568.405,432.075 563.194,426.864 595.889,394.027 604.256,402.395 
			609.206,397.445 600.827,389.067 611.396,378.453 		"/>
		<path fill="#5D5F5F" d="M495.166,963.286V631.953h-7v84.25h-5.5v7h5.5v86.583H446.5v-86.583h5.5v-7h-5.5v-4.583h-7v322.29h7
			v-88.457h41.666v17.833H495.166z M446.5,938.453V816.786h41.666v121.667H446.5z"/>
		<path fill="#5D5F5F" d="M1421.585,371.453h-39.513v7h36.604l10.678,10.724l-8.269,8.269l4.949,4.949l8.258-8.258l32.695,32.838
			l-5.102,5.101l4.949,4.949l5.09-5.091l111.646,112.132v39.388h-41.666V562.62h-7v33.479h7v-5.646h41.666v85.5h7v-22.617h22.657
			v-7.267v-7.896v-15.071v-3.679h-3.679h-18.979v-78.249l-167.961-168.691L1421.585,371.453z M1590.572,623.103h18.979v15.071
			h-18.979V623.103z"/>
		<path fill="#5D5F5F" d="M1590.572,1033.91V711.62h-7v4.583h-5.755v7h5.755v86.583h-41.666v-86.583h5.245v-7h-5.245v-84.25h-7
			v331.333h7v-17.833h41.666v88.457H1590.572z M1541.906,938.453V816.786h41.666v121.667H1541.906z"/>
		<polygon fill="#5D5F5F" points="764.333,378.453 790.996,378.453 790.996,385.665 797.996,385.665 797.996,378.453 
			838.214,378.453 838.214,385.665 845.214,385.665 845.214,378.453 1186.894,378.453 1186.894,385.665 1193.894,385.665 
			1193.894,378.453 1234.111,378.453 1234.111,385.665 1241.111,385.665 1241.111,378.453 1267,378.453 1267,371.453 
			764.333,371.453 		"/>
		<path fill="#5D5F5F" d="M888.665,69.494v25.273h14.911V69.494H888.665z M896.576,87.768h-0.911V76.494h0.911V87.768z"/>
		<polygon fill="#5D5F5F" points="845.214,412.31 838.214,412.31 838.214,419.453 797.996,419.453 797.996,412.31 790.996,412.31 
			790.996,419.453 641.457,419.453 636.566,424.806 629.013,417.254 624.064,422.203 631.84,429.979 600.553,464.224 
			593.632,457.303 588.682,462.252 600.781,474.351 644.543,426.453 852.101,426.453 852.101,419.453 845.214,419.453 		"/>
		<rect x="1441.604" y="174.105" fill="#5D5F5F" width="20.881" height="25.974"/>
		<rect x="1441.604" y="308.832" fill="#5D5F5F" width="20.881" height="24.441"/>
		<rect x="1200.354" y="308.832" fill="#5D5F5F" width="20.881" height="24.441"/>
		<rect x="1200.354" y="174.871" fill="#5D5F5F" width="20.881" height="24.441"/>
		<rect x="960.3" y="308.832" fill="#5D5F5F" width="20.881" height="24.441"/>
		<rect x="960.3" y="174.871" fill="#5D5F5F" width="20.881" height="24.441"/>
		<rect x="717.3" y="311.691" fill="#5D5F5F" width="20.881" height="21.582"/>
		<rect x="717.3" y="174.871" fill="#5D5F5F" width="20.881" height="24.441"/>
		<rect x="214.879" y="569.217" fill="#5D5F5F" width="7.153" height="6.119"/>
		<rect x="221.402" y="1025.53" fill="#5D5F5F" width="32.286" height="10.442"/>
		<rect x="221.402" y="709.474" fill="#5D5F5F" width="32.286" height="10.442"/>
	</g>
	<rect x="1389.25" y="-613.408" fill="#5D5F5F" width="33.903" height="6.209"/>
	<rect x="1389.25" y="-584.416" fill="#5D5F5F" width="33.903" height="6.21"/>
	<rect x="1425.004" y="-500.957" fill="#5D5F5F" width="6.21" height="38.687"/>
	<rect x="1388.575" y="-466.962" fill="#5D5F5F" width="13.652" height="6.21"/>
	<rect x="1315.94" y="-352.299" fill="#5D5F5F" width="6.21" height="18.517"/>
	<rect x="1315.94" y="-396.464" fill="#5D5F5F" width="6.21" height="13.557"/>
	<rect x="1407.94" y="-352.299" fill="#5D5F5F" width="6.21" height="18.517"/>
	<rect x="1407.94" y="-396.464" fill="#5D5F5F" width="6.21" height="13.557"/>
	<rect x="1454.055" y="-466.962" fill="#5D5F5F" width="13.652" height="6.21"/>
	<rect x="1443.088" y="-416.548" fill="#5D5F5F" width="6.152" height="17.078"/>
	<rect x="1414.709" y="-416.548" fill="#5D5F5F" width="6.152" height="17.078"/>
	<rect x="221.402" y="644.173" fill="#5D5F5F" width="4.588" height="70.522"/>
	<rect x="221.402" y="1029.444" fill="#5D5F5F" width="4.588" height="67.508"/>
</g>
</svg>
