<?xml version="1.0" encoding="utf-8"?>
<!-- Generator: Adobe Illustrator 15.0.0, SVG Export Plug-In . SVG Version: 6.00 Build 0)  -->
<!DOCTYPE svg PUBLIC "-//W3C//DTD SVG 1.1//EN" "http://www.w3.org/Graphics/SVG/1.1/DTD/svg11.dtd">
<svg version="1.1" xmlns="http://www.w3.org/2000/svg" xmlns:xlink="http://www.w3.org/1999/xlink" x="0px" y="0px" width="1876px"
	 height="1202.94px" viewBox="0 0 1876 1202.94" enable-background="new 0 0 1876 1202.94" xml:space="preserve">
<symbol  id="drzwi" viewBox="-19.209 -18.761 38.417 37.521">
	<path fill="none" stroke="#AFACAC" stroke-width="2" stroke-miterlimit="10" d="M-16.313,17.761
		c0-19.618,15.902-35.521,35.521-35.521"/>
	<line fill="none" stroke="#5D5F5F" stroke-width="2" stroke-miterlimit="10" x1="19.208" y1="17.761" x2="-19.209" y2="17.761"/>
</symbol>
<g id="kontury">
	
		<use xlink:href="#drzwi"  width="38.417" height="37.521" x="-19.209" y="-18.761" transform="matrix(0.952 0 0 -0.952 424.7139 2030.8394)" overflow="visible"/>
	
		<use xlink:href="#drzwi"  width="38.417" height="37.521" x="-19.209" y="-18.761" transform="matrix(0.952 0 0 -0.952 473.3799 1951.2388)" overflow="visible"/>
	
		<use xlink:href="#drzwi"  width="38.417" height="37.521" x="-19.209" y="-18.761" transform="matrix(-0.6863 0 0 -0.6863 231.6387 1925.5239)" overflow="visible"/>
	
		<use xlink:href="#drzwi"  width="38.417" height="37.521" x="-19.209" y="-18.761" transform="matrix(0.6863 0 0 0.6863 205.2734 1893.6372)" overflow="visible"/>
	
		<use xlink:href="#drzwi"  width="38.417" height="37.521" x="-19.209" y="-18.761" transform="matrix(-0.6732 0.6732 -0.6732 -0.6732 591.5229 1771.3667)" overflow="visible"/>
	
		<use xlink:href="#drzwi"  width="38.417" height="37.521" x="-19.209" y="-18.761" transform="matrix(-0.5264 0.5264 -0.5264 -0.5264 627.5171 1736.3521)" overflow="visible"/>
	
		<use xlink:href="#drzwi"  width="38.417" height="37.521" x="-19.209" y="-18.761" transform="matrix(0.6732 0.6732 0.6732 -0.6732 1438.7676 1771.3667)" overflow="visible"/>
	
		<use xlink:href="#drzwi"  width="38.417" height="37.521" x="-19.209" y="-18.761" transform="matrix(0.5264 0.5264 0.5264 -0.5264 1402.7734 1736.3521)" overflow="visible"/>
	
		<use xlink:href="#drzwi"  width="38.417" height="37.521" x="-19.209" y="-18.761" transform="matrix(0.7049 0 0 0.7049 780.7515 1736.3169)" overflow="visible"/>
	
		<use xlink:href="#drzwi"  width="38.417" height="37.521" x="-19.209" y="-18.761" transform="matrix(0.7049 0 0 0.7049 827.9692 1736.3169)" overflow="visible"/>
	
		<use xlink:href="#drzwi"  width="38.417" height="37.521" x="-19.209" y="-18.761" transform="matrix(-0.7049 0 0 0.7049 1251.3555 1736.3169)" overflow="visible"/>
	
		<use xlink:href="#drzwi"  width="38.417" height="37.521" x="-19.209" y="-18.761" transform="matrix(-0.7049 0 0 0.7049 1204.1387 1736.3169)" overflow="visible"/>
	<g>
		
			<use xlink:href="#drzwi"  width="38.417" height="37.521" x="-19.209" y="-18.761" transform="matrix(0 0.7049 0.7049 0 1095.2715 1417.0249)" overflow="visible"/>
		
			<use xlink:href="#drzwi"  width="38.417" height="37.521" x="-19.209" y="-18.761" transform="matrix(0 0.7049 -0.7049 0 1070.123 1417.0249)" overflow="visible"/>
	</g>
	<g>
		
			<use xlink:href="#drzwi"  width="38.417" height="37.521" x="-19.209" y="-18.761" transform="matrix(0 0.7049 0.7049 0 942.7627 1417.0249)" overflow="visible"/>
		
			<use xlink:href="#drzwi"  width="38.417" height="37.521" x="-19.209" y="-18.761" transform="matrix(0 0.7049 -0.7049 0 917.6143 1417.0249)" overflow="visible"/>
	</g>
	<g>
		
			<use xlink:href="#drzwi"  width="38.417" height="37.521" x="-19.209" y="-18.761" transform="matrix(0 0.7049 0.7049 0 874.627 1417.0249)" overflow="visible"/>
		
			<use xlink:href="#drzwi"  width="38.417" height="37.521" x="-19.209" y="-18.761" transform="matrix(0 0.7049 -0.7049 0 849.4785 1417.0249)" overflow="visible"/>
	</g>
	<g>
		
			<use xlink:href="#drzwi"  width="38.417" height="37.521" x="-19.209" y="-18.761" transform="matrix(0 0.6239 0.6239 0 718.3794 1418.5815)" overflow="visible"/>
		
			<use xlink:href="#drzwi"  width="38.417" height="37.521" x="-19.209" y="-18.761" transform="matrix(0 0.6239 -0.6239 0 696.1226 1418.5815)" overflow="visible"/>
	</g>
	<g>
		
			<use xlink:href="#drzwi"  width="38.417" height="37.521" x="-19.209" y="-18.761" transform="matrix(0 -0.3489 0.3489 0 654.2466 1425.5854)" overflow="visible"/>
		
			<use xlink:href="#drzwi"  width="38.417" height="37.521" x="-19.209" y="-18.761" transform="matrix(0 -0.3489 -0.3489 0 641.7983 1425.5854)" overflow="visible"/>
	</g>
	
		<use xlink:href="#drzwi"  width="38.417" height="37.521" x="-19.209" y="-18.761" transform="matrix(-0.626 0 0 -0.626 357.7607 1941.4673)" overflow="visible"/>
	
		<use xlink:href="#drzwi"  width="38.417" height="37.521" x="-19.209" y="-18.761" transform="matrix(0.8317 0 0 -0.8317 475.6899 2316.2466)" overflow="visible"/>
	
		<use xlink:href="#drzwi"  width="38.417" height="37.521" x="-19.209" y="-18.761" transform="matrix(0 -0.72 -0.72 0 1175.7422 2446.0454)" overflow="visible"/>
	
		<use xlink:href="#drzwi"  width="38.417" height="37.521" x="-19.209" y="-18.761" transform="matrix(0 -0.72 0.72 0 855.6035 2446.0454)" overflow="visible"/>
	
		<use xlink:href="#drzwi"  width="38.417" height="37.521" x="-19.209" y="-18.761" transform="matrix(-0.9726 0 0 -0.9726 1556.833 2318.9185)" overflow="visible"/>
	
		<use xlink:href="#drzwi"  width="38.417" height="37.521" x="-19.209" y="-18.761" transform="matrix(-0.9726 0 0 0.9726 1605.7549 2388.3784)" overflow="visible"/>
	
		<use xlink:href="#drzwi"  width="38.417" height="37.521" x="-19.209" y="-18.761" transform="matrix(0.7254 0 0 0.7254 477.7314 2399.5757)" overflow="visible"/>
	
		<use xlink:href="#drzwi"  width="38.417" height="37.521" x="-19.209" y="-18.761" transform="matrix(0.8946 0 0 0.8946 425.8159 2388.1919)" overflow="visible"/>
	
		<use xlink:href="#drzwi"  width="38.417" height="37.521" x="-19.209" y="-18.761" transform="matrix(0 0.6429 -0.6429 0 145.9834 2419.8667)" overflow="visible"/>
	
		<use xlink:href="#drzwi"  width="38.417" height="37.521" x="-19.209" y="-18.761" transform="matrix(0 0.6429 0.6429 0 168.8257 2419.8667)" overflow="visible"/>
	
		<use xlink:href="#drzwi"  width="38.417" height="37.521" x="-19.209" y="-18.761" transform="matrix(0 -0.8184 -0.8184 0 467.354 2072.688)" overflow="visible"/>
	
		<use xlink:href="#drzwi"  width="38.417" height="37.521" x="-19.209" y="-18.761" transform="matrix(-0.952 0 0 -0.952 1605.1035 2030.8394)" overflow="visible"/>
	
		<use xlink:href="#drzwi"  width="38.417" height="37.521" x="-19.209" y="-18.761" transform="matrix(-0.952 0 0 -0.952 1556.4375 1951.2388)" overflow="visible"/>
	
		<use xlink:href="#drzwi"  width="38.417" height="37.521" x="-19.209" y="-18.761" transform="matrix(0 -0.8184 0.8184 0 1562.4639 2072.688)" overflow="visible"/>
	<g>
		
			<use xlink:href="#drzwi"  width="38.417" height="37.521" x="-19.209" y="-18.761" transform="matrix(0 -0.7662 -0.7662 0 140.2993 1997.6011)" overflow="visible"/>
		
			<use xlink:href="#drzwi"  width="38.417" height="37.521" x="-19.209" y="-18.761" transform="matrix(0 -0.7662 0.7662 0 167.6323 1997.6011)" overflow="visible"/>
	</g>
	<g>
		
			<use xlink:href="#drzwi"  width="38.417" height="37.521" x="-19.209" y="-18.761" transform="matrix(0 1.0395 1.0395 0 1012.543 914.4165)" overflow="visible"/>
		
			<use xlink:href="#drzwi"  width="38.417" height="37.521" x="-19.209" y="-18.761" transform="matrix(0 1.0395 -1.0395 0 975.4609 914.4165)" overflow="visible"/>
	</g>
	<g>
		
			<use xlink:href="#drzwi"  width="38.417" height="37.521" x="-19.209" y="-18.761" transform="matrix(0 0.7042 0.7042 0 1645.7578 994.8267)" overflow="visible"/>
		
			<use xlink:href="#drzwi"  width="38.417" height="37.521" x="-19.209" y="-18.761" transform="matrix(0 0.7042 -0.7042 0 1620.6377 994.8267)" overflow="visible"/>
	</g>
	
		<use xlink:href="#drzwi"  width="38.417" height="37.521" x="-19.209" y="-18.761" transform="matrix(0 0.8839 -0.8839 0 1489.0723 770.5903)" overflow="visible"/>
	
		<use xlink:href="#drzwi"  width="38.417" height="37.521" x="-19.209" y="-18.761" transform="matrix(0 -0.8839 -0.8839 0 1489.0723 864.7485)" overflow="visible"/>
	
		<use xlink:href="#drzwi"  width="38.417" height="37.521" x="-19.209" y="-18.761" transform="matrix(-0.8839 0 0 0.8839 1482.0615 811.3667)" overflow="visible"/>
	
		<use xlink:href="#drzwi"  width="38.417" height="37.521" x="-19.209" y="-18.761" transform="matrix(-0.6441 0 0 0.6441 1477.501 895.6528)" overflow="visible"/>
	
		<use xlink:href="#drzwi"  width="38.417" height="37.521" x="-19.209" y="-18.761" transform="matrix(-0.7418 0 0 -0.7418 1479.2344 716.2104)" overflow="visible"/>
	
		<use xlink:href="#drzwi"  width="38.417" height="37.521" x="-19.209" y="-18.761" transform="matrix(-0.6072 0 0 0.6072 1433.2285 712.4644)" overflow="visible"/>
	<g>
		
			<use xlink:href="#drzwi"  width="38.417" height="37.521" x="-19.209" y="-18.761" transform="matrix(0 0.3961 0.3961 0 1528.3945 1000.7446)" overflow="visible"/>
		
			<use xlink:href="#drzwi"  width="38.417" height="37.521" x="-19.209" y="-18.761" transform="matrix(0 0.3961 -0.3961 0 1514.2646 1000.7446)" overflow="visible"/>
	</g>
	<g>
		
			<use xlink:href="#drzwi"  width="38.417" height="37.521" x="-19.209" y="-18.761" transform="matrix(0 0.7042 0.7042 0 1748.5967 994.8267)" overflow="visible"/>
		
			<use xlink:href="#drzwi"  width="38.417" height="37.521" x="-19.209" y="-18.761" transform="matrix(0 0.7042 -0.7042 0 1723.4766 994.8267)" overflow="visible"/>
	</g>
	
		<use xlink:href="#drzwi"  width="38.417" height="37.521" x="-19.209" y="-18.761" transform="matrix(0.5993 -0.5993 0.5993 0.5993 1156.668 966.646)" overflow="visible"/>
	
		<use xlink:href="#drzwi"  width="38.417" height="37.521" x="-19.209" y="-18.761" transform="matrix(0.9253 0 0 0.9253 643.1265 970.2075)" overflow="visible"/>
	
		<use xlink:href="#drzwi"  width="38.417" height="37.521" x="-19.209" y="-18.761" transform="matrix(0.9253 0 0 0.9253 570.2935 970.2075)" overflow="visible"/>
	
		<use xlink:href="#drzwi"  width="38.417" height="37.521" x="-19.209" y="-18.761" transform="matrix(0 0.818 0.818 0 691.9229 930.1724)" overflow="visible"/>
	
		<use xlink:href="#drzwi"  width="38.417" height="37.521" x="-19.209" y="-18.761" transform="matrix(0 -0.7825 0.7825 0 560.249 960.9155)" overflow="visible"/>
	
		<use xlink:href="#drzwi"  width="38.417" height="37.521" x="-19.209" y="-18.761" transform="matrix(0 -0.7825 -0.7825 0 553.4658 622.8628)" overflow="visible"/>
	
		<use xlink:href="#drzwi"  width="38.417" height="37.521" x="-19.209" y="-18.761" transform="matrix(0.6978 0.6978 0.6978 -0.6978 636.708 396.5796)" overflow="visible"/>
	
		<use xlink:href="#drzwi"  width="38.417" height="37.521" x="-19.209" y="-18.761" transform="matrix(0 0.7805 -0.7805 0 743.606 315.5576)" overflow="visible"/>
	
		<use xlink:href="#drzwi"  width="38.417" height="37.521" x="-19.209" y="-18.761" transform="matrix(0.6978 0.6978 0.6978 -0.6978 683.7627 443.6343)" overflow="visible"/>
	
		<use xlink:href="#drzwi"  width="38.417" height="37.521" x="-19.209" y="-18.761" transform="matrix(-0.6978 0.6978 -0.6978 -0.6978 1354.3398 396.5796)" overflow="visible"/>
	
		<use xlink:href="#drzwi"  width="38.417" height="37.521" x="-19.209" y="-18.761" transform="matrix(-0.6978 0.6978 -0.6978 -0.6978 1307.2852 443.6343)" overflow="visible"/>
	
		<use xlink:href="#drzwi"  width="38.417" height="37.521" x="-19.209" y="-18.761" transform="matrix(0.7507 0 0 0.7507 1417.0244 482.4922)" overflow="visible"/>
	
		<use xlink:href="#drzwi"  width="38.417" height="37.521" x="-19.209" y="-18.761" transform="matrix(0 0.7177 -0.7177 0 167.9072 716.0981)" overflow="visible"/>
	
		<rect x="1255.098" y="945.885" fill="none" stroke="#AFACAC" stroke-width="2" stroke-miterlimit="10" width="9.368" height="60.751"/>
	
		<rect x="1264.466" y="945.885" fill="none" stroke="#AFACAC" stroke-width="2" stroke-miterlimit="10" width="9.368" height="60.751"/>
	
		<rect x="1280.198" y="1709.605" fill="none" stroke="#AFACAC" stroke-width="2" stroke-miterlimit="10" width="8.541" height="51.832"/>
	
		<rect x="1143.457" y="1712.217" fill="none" stroke="#AFACAC" stroke-width="2" stroke-miterlimit="10" width="8.541" height="36.719"/>
	
		<rect x="1134.916" y="1712.217" fill="none" stroke="#AFACAC" stroke-width="2" stroke-miterlimit="10" width="8.541" height="36.719"/>
	
		<rect x="1288.739" y="1709.605" fill="none" stroke="#AFACAC" stroke-width="2" stroke-miterlimit="10" width="8.54" height="51.832"/>
	
		<rect x="1297.279" y="1709.605" fill="none" stroke="#AFACAC" stroke-width="2" stroke-miterlimit="10" width="8.541" height="51.832"/>
	
		<rect x="1345.804" y="1709.605" fill="none" stroke="#AFACAC" stroke-width="2" stroke-miterlimit="10" width="8.541" height="51.832"/>
	
		<rect x="1354.345" y="1709.605" fill="none" stroke="#AFACAC" stroke-width="2" stroke-miterlimit="10" width="8.54" height="51.832"/>
	
		<rect x="1362.885" y="1709.605" fill="none" stroke="#AFACAC" stroke-width="2" stroke-miterlimit="10" width="8.541" height="51.832"/>
	
		<rect x="1726.126" y="2133.547" transform="matrix(0.7071 0.7071 -0.7071 0.7071 2022.2087 -595.8806)" fill="none" stroke="#AFACAC" stroke-width="2" stroke-miterlimit="10" width="8.541" height="19.069"/>
	
		<rect x="1739.609" y="2120.064" transform="matrix(0.7071 0.7071 -0.7071 0.7071 2016.6233 -609.3638)" fill="none" stroke="#AFACAC" stroke-width="2" stroke-miterlimit="10" width="8.541" height="19.068"/>
	
		<rect x="1732.164" y="2139.586" transform="matrix(0.707 0.7072 -0.7072 0.707 2028.4702 -598.3584)" fill="none" stroke="#AFACAC" stroke-width="2" stroke-miterlimit="10" width="8.541" height="19.069"/>
	
		<rect x="1745.648" y="2126.104" transform="matrix(0.7071 0.7071 -0.7071 0.7071 2022.6633 -611.8657)" fill="none" stroke="#AFACAC" stroke-width="2" stroke-miterlimit="10" width="8.542" height="19.068"/>
	<g>
		
			<rect x="1738.937" y="361.408" transform="matrix(0.7071 -0.7071 0.7071 0.7071 236.7635 1345.3273)" fill="none" stroke="#AFACAC" stroke-width="2" stroke-miterlimit="10" width="6.796" height="50.914"/>
		
			<rect x="1743.743" y="356.601" transform="matrix(0.7071 -0.7071 0.7071 0.7071 241.5695 1347.3177)" fill="none" stroke="#AFACAC" stroke-width="2" stroke-miterlimit="10" width="6.796" height="50.915"/>
		
			<rect x="1748.548" y="351.796" transform="matrix(0.7071 -0.7071 0.7071 0.7071 246.4247 1349.3848)" fill="none" stroke="#AFACAC" stroke-width="2" stroke-miterlimit="10" width="6.797" height="50.915"/>
		
			<rect x="1753.355" y="346.991" transform="matrix(0.7071 -0.7071 0.7071 0.7071 251.1809 1351.2993)" fill="none" stroke="#AFACAC" stroke-width="2" stroke-miterlimit="10" width="6.796" height="50.913"/>
		
			<rect x="1758.161" y="342.185" transform="matrix(0.7072 -0.707 0.707 0.7072 255.8364 1353.0608)" fill="none" stroke="#AFACAC" stroke-width="2" stroke-miterlimit="10" width="6.797" height="50.914"/>
		
			<rect x="1702.935" y="325.404" transform="matrix(0.7071 -0.7071 0.7071 0.7071 251.7253 1309.399)" fill="none" stroke="#AFACAC" stroke-width="2" stroke-miterlimit="10" width="6.797" height="50.915"/>
		
			<rect x="1707.741" y="320.599" transform="matrix(0.7071 -0.7071 0.7071 0.7071 256.4819 1311.3154)" fill="none" stroke="#AFACAC" stroke-width="2" stroke-miterlimit="10" width="6.796" height="50.915"/>
		
			<rect x="1712.547" y="315.795" transform="matrix(0.7072 -0.707 0.707 0.7072 261.1395 1313.0854)" fill="none" stroke="#AFACAC" stroke-width="2" stroke-miterlimit="10" width="6.797" height="50.913"/>
		
			<rect x="1717.353" y="310.988" transform="matrix(0.7071 -0.7071 0.7071 0.7071 266.1433 1315.3711)" fill="none" stroke="#AFACAC" stroke-width="2" stroke-miterlimit="10" width="6.797" height="50.915"/>
		
			<rect x="1722.159" y="306.182" transform="matrix(0.7071 -0.7071 0.7071 0.7071 270.8992 1317.2878)" fill="none" stroke="#AFACAC" stroke-width="2" stroke-miterlimit="10" width="6.796" height="50.915"/>
	</g>
	
		<rect x="1617.836" y="446.862" fill="none" stroke="#AFACAC" stroke-width="2" stroke-miterlimit="10" width="124.499" height="8.789"/>
	
		<rect x="1617.836" y="455.65" fill="none" stroke="#AFACAC" stroke-width="2" stroke-miterlimit="10" width="124.499" height="8.789"/>
	
		<rect x="1477.591" y="459.88" fill="none" stroke="#AFACAC" stroke-width="2" stroke-miterlimit="10" width="134.199" height="4.56"/>
	
		<line fill="none" stroke="#AFACAC" stroke-width="2" stroke-miterlimit="10" x1="1305.82" y1="1709.605" x2="1261.227" y2="1709.605"/>
	
		<line fill="none" stroke="#AFACAC" stroke-width="2" stroke-miterlimit="10" x1="1390.737" y1="1709.605" x2="1346.144" y2="1709.605"/>
	
		<rect x="660.341" y="1709.605" fill="none" stroke="#AFACAC" stroke-width="2" stroke-miterlimit="10" width="8.541" height="51.832"/>
	
		<rect x="668.882" y="1709.605" fill="none" stroke="#AFACAC" stroke-width="2" stroke-miterlimit="10" width="8.54" height="51.832"/>
	
		<rect x="677.422" y="1709.605" fill="none" stroke="#AFACAC" stroke-width="2" stroke-miterlimit="10" width="8.541" height="51.832"/>
	
		<rect x="725.946" y="1709.605" fill="none" stroke="#AFACAC" stroke-width="2" stroke-miterlimit="10" width="8.541" height="51.832"/>
	
		<rect x="734.487" y="1709.605" fill="none" stroke="#AFACAC" stroke-width="2" stroke-miterlimit="10" width="8.54" height="51.832"/>
	
		<rect x="743.027" y="1709.605" fill="none" stroke="#AFACAC" stroke-width="2" stroke-miterlimit="10" width="8.541" height="51.832"/>
	
		<rect x="302.061" y="1806.211" fill="none" stroke="#AFACAC" stroke-width="2" stroke-miterlimit="10" width="19.206" height="8.412"/>
	
		<rect x="321.266" y="1806.211" fill="none" stroke="#AFACAC" stroke-width="2" stroke-miterlimit="10" width="24.47" height="8.412"/>
	
		<rect x="293.608" y="1814.624" fill="none" stroke="#AFACAC" stroke-width="2" stroke-miterlimit="10" width="8.453" height="19.206"/>
	
		<rect x="293.608" y="1833.83" fill="none" stroke="#AFACAC" stroke-width="2" stroke-miterlimit="10" width="8.453" height="24.47"/>
	
		<rect x="285.156" y="1814.624" fill="none" stroke="#AFACAC" stroke-width="2" stroke-miterlimit="10" width="8.452" height="19.206"/>
	
		<rect x="285.156" y="1833.83" fill="none" stroke="#AFACAC" stroke-width="2" stroke-miterlimit="10" width="8.452" height="24.47"/>
	
		<rect x="276.703" y="1814.624" fill="none" stroke="#AFACAC" stroke-width="2" stroke-miterlimit="10" width="8.453" height="19.206"/>
	
		<rect x="276.703" y="1833.83" fill="none" stroke="#AFACAC" stroke-width="2" stroke-miterlimit="10" width="8.453" height="24.47"/>
	
		<rect x="268.25" y="1814.624" fill="none" stroke="#AFACAC" stroke-width="2" stroke-miterlimit="10" width="8.453" height="19.206"/>
	
		<rect x="268.25" y="1833.83" fill="none" stroke="#AFACAC" stroke-width="2" stroke-miterlimit="10" width="8.453" height="24.47"/>
	
		<rect x="259.798" y="1814.624" fill="none" stroke="#AFACAC" stroke-width="2" stroke-miterlimit="10" width="8.453" height="19.206"/>
	
		<rect x="259.798" y="1833.83" fill="none" stroke="#AFACAC" stroke-width="2" stroke-miterlimit="10" width="8.453" height="24.47"/>
	
		<rect x="251.346" y="1814.624" fill="none" stroke="#AFACAC" stroke-width="2" stroke-miterlimit="10" width="8.452" height="19.206"/>
	
		<rect x="251.345" y="1833.83" fill="none" stroke="#AFACAC" stroke-width="2" stroke-miterlimit="10" width="8.452" height="24.47"/>
	
		<rect x="242.893" y="1814.624" fill="none" stroke="#AFACAC" stroke-width="2" stroke-miterlimit="10" width="8.453" height="19.206"/>
	
		<rect x="242.893" y="1833.83" fill="none" stroke="#AFACAC" stroke-width="2" stroke-miterlimit="10" width="8.453" height="24.47"/>
	
		<rect x="234.44" y="1814.624" fill="none" stroke="#AFACAC" stroke-width="2" stroke-miterlimit="10" width="8.453" height="19.206"/>
	
		<rect x="234.44" y="1833.83" fill="none" stroke="#AFACAC" stroke-width="2" stroke-miterlimit="10" width="8.453" height="24.47"/>
	
		<rect x="225.988" y="1814.624" fill="none" stroke="#AFACAC" stroke-width="2" stroke-miterlimit="10" width="8.452" height="19.206"/>
	
		<rect x="225.988" y="1833.83" fill="none" stroke="#AFACAC" stroke-width="2" stroke-miterlimit="10" width="8.452" height="24.47"/>
	
		<rect x="217.536" y="1814.624" fill="none" stroke="#AFACAC" stroke-width="2" stroke-miterlimit="10" width="8.453" height="19.206"/>
	
		<rect x="217.535" y="1833.83" fill="none" stroke="#AFACAC" stroke-width="2" stroke-miterlimit="10" width="8.453" height="24.47"/>
	
		<rect x="209.083" y="1814.624" fill="none" stroke="#AFACAC" stroke-width="2" stroke-miterlimit="10" width="8.453" height="19.206"/>
	
		<rect x="209.083" y="1833.83" fill="none" stroke="#AFACAC" stroke-width="2" stroke-miterlimit="10" width="8.453" height="21.937"/>
	
		<rect x="200.629" y="1810.417" fill="none" stroke="#AFACAC" stroke-width="2" stroke-miterlimit="10" width="8.453" height="48.66"/>
	
		<rect x="302.061" y="1797.745" fill="none" stroke="#AFACAC" stroke-width="2" stroke-miterlimit="10" width="19.206" height="8.412"/>
	
		<rect x="321.266" y="1797.745" fill="none" stroke="#AFACAC" stroke-width="2" stroke-miterlimit="10" width="24.47" height="8.412"/>
	
		<rect x="302.061" y="1789.277" fill="none" stroke="#AFACAC" stroke-width="2" stroke-miterlimit="10" width="19.206" height="8.412"/>
	
		<rect x="321.266" y="1789.277" fill="none" stroke="#AFACAC" stroke-width="2" stroke-miterlimit="10" width="24.47" height="8.412"/>
	
		<rect x="302.061" y="1780.81" fill="none" stroke="#AFACAC" stroke-width="2" stroke-miterlimit="10" width="19.206" height="8.412"/>
	
		<rect x="321.266" y="1780.81" fill="none" stroke="#AFACAC" stroke-width="2" stroke-miterlimit="10" width="24.47" height="8.412"/>
	
		<rect x="302.061" y="1772.342" fill="none" stroke="#AFACAC" stroke-width="2" stroke-miterlimit="10" width="19.206" height="8.412"/>
	
		<rect x="321.266" y="1772.342" fill="none" stroke="#AFACAC" stroke-width="2" stroke-miterlimit="10" width="24.47" height="8.412"/>
	
		<rect x="302.061" y="1763.875" fill="none" stroke="#AFACAC" stroke-width="2" stroke-miterlimit="10" width="19.206" height="8.412"/>
	
		<rect x="321.266" y="1763.875" fill="none" stroke="#AFACAC" stroke-width="2" stroke-miterlimit="10" width="24.47" height="8.412"/>
	
		<rect x="302.061" y="1755.408" fill="none" stroke="#AFACAC" stroke-width="2" stroke-miterlimit="10" width="19.206" height="8.413"/>
	
		<rect x="321.266" y="1755.408" fill="none" stroke="#AFACAC" stroke-width="2" stroke-miterlimit="10" width="24.47" height="8.413"/>
	
		<rect x="302.061" y="1746.941" fill="none" stroke="#AFACAC" stroke-width="2" stroke-miterlimit="10" width="19.206" height="8.412"/>
	
		<rect x="321.266" y="1746.941" fill="none" stroke="#AFACAC" stroke-width="2" stroke-miterlimit="10" width="24.47" height="8.412"/>
	
		<line fill="none" stroke="#AFACAC" stroke-width="2" stroke-miterlimit="10" x1="685.963" y1="1709.605" x2="641.369" y2="1709.605"/>
	
		<line fill="none" stroke="#AFACAC" stroke-width="2" stroke-miterlimit="10" x1="770.88" y1="1709.605" x2="726.286" y2="1709.605"/>
	
		<line fill="none" stroke="#AFACAC" stroke-width="2" stroke-miterlimit="10" x1="1108.878" y1="1712.286" x2="1108.878" y2="1748.936"/>
	
		<rect x="880.29" y="1712.217" fill="none" stroke="#AFACAC" stroke-width="2" stroke-miterlimit="10" width="8.541" height="36.719"/>
	
		<rect x="888.831" y="1712.217" fill="none" stroke="#AFACAC" stroke-width="2" stroke-miterlimit="10" width="8.541" height="36.719"/>
	
		<line fill="none" stroke="#AFACAC" stroke-width="2" stroke-miterlimit="10" x1="923.41" y1="1712.286" x2="923.41" y2="1748.936"/>
	
		<line fill="none" stroke="#AFACAC" stroke-width="2" stroke-miterlimit="10" x1="234.44" y1="1814.624" x2="302.061" y2="1746.941"/>
	<polyline fill="none" stroke="#AFACAC" stroke-width="2" stroke-miterlimit="10" points="223.737,2251.199 223.736,2287.094 
		317.139,2287.094 317.144,2131.718 223.742,2131.718 223.741,2165.876 	"/>
	
		<rect x="227.68" y="2165.876" fill="none" stroke="#AFACAC" stroke-width="2" stroke-miterlimit="10" width="8.463" height="42.661"/>
	
		<rect x="227.68" y="2208.538" fill="none" stroke="#AFACAC" stroke-width="2" stroke-miterlimit="10" width="8.463" height="42.661"/>
	
		<rect x="219.217" y="2165.876" fill="none" stroke="#AFACAC" stroke-width="2" stroke-miterlimit="10" width="8.462" height="42.661"/>
	
		<rect x="219.217" y="2208.538" fill="none" stroke="#AFACAC" stroke-width="2" stroke-miterlimit="10" width="8.462" height="42.661"/>
	
		<rect x="210.754" y="2165.876" fill="none" stroke="#AFACAC" stroke-width="2" stroke-miterlimit="10" width="8.463" height="42.661"/>
	
		<rect x="210.754" y="2208.538" fill="none" stroke="#AFACAC" stroke-width="2" stroke-miterlimit="10" width="8.463" height="42.661"/>
	
		<rect x="202.292" y="2165.876" fill="none" stroke="#AFACAC" stroke-width="2" stroke-miterlimit="10" width="8.463" height="42.661"/>
	
		<rect x="202.292" y="2208.538" fill="none" stroke="#AFACAC" stroke-width="2" stroke-miterlimit="10" width="8.463" height="42.661"/>
	
		<rect x="193.829" y="2165.876" fill="none" stroke="#AFACAC" stroke-width="2" stroke-miterlimit="10" width="8.462" height="42.661"/>
	
		<rect x="193.829" y="2208.538" fill="none" stroke="#AFACAC" stroke-width="2" stroke-miterlimit="10" width="8.462" height="42.661"/>
	
		<rect x="185.366" y="2165.876" fill="none" stroke="#AFACAC" stroke-width="2" stroke-miterlimit="10" width="8.463" height="42.661"/>
	
		<rect x="185.366" y="2208.538" fill="none" stroke="#AFACAC" stroke-width="2" stroke-miterlimit="10" width="8.463" height="42.661"/>
	
		<rect x="308.681" y="2165.876" fill="none" stroke="#AFACAC" stroke-width="2" stroke-miterlimit="10" width="8.463" height="42.661"/>
	
		<rect x="308.681" y="2208.538" fill="none" stroke="#AFACAC" stroke-width="2" stroke-miterlimit="10" width="8.463" height="42.661"/>
	
		<rect x="300.219" y="2165.876" fill="none" stroke="#AFACAC" stroke-width="2" stroke-miterlimit="10" width="8.462" height="42.661"/>
	
		<rect x="300.219" y="2208.538" fill="none" stroke="#AFACAC" stroke-width="2" stroke-miterlimit="10" width="8.462" height="42.661"/>
	
		<rect x="291.756" y="2165.876" fill="none" stroke="#AFACAC" stroke-width="2" stroke-miterlimit="10" width="8.463" height="42.661"/>
	
		<rect x="291.756" y="2208.538" fill="none" stroke="#AFACAC" stroke-width="2" stroke-miterlimit="10" width="8.463" height="42.661"/>
	
		<rect x="283.293" y="2165.876" fill="none" stroke="#AFACAC" stroke-width="2" stroke-miterlimit="10" width="8.463" height="42.661"/>
	
		<rect x="283.293" y="2208.538" fill="none" stroke="#AFACAC" stroke-width="2" stroke-miterlimit="10" width="8.463" height="42.661"/>
	
		<rect x="274.831" y="2165.876" fill="none" stroke="#AFACAC" stroke-width="2" stroke-miterlimit="10" width="8.462" height="42.661"/>
	
		<rect x="274.831" y="2208.538" fill="none" stroke="#AFACAC" stroke-width="2" stroke-miterlimit="10" width="8.462" height="42.661"/>
	
		<rect x="266.368" y="2165.876" fill="none" stroke="#AFACAC" stroke-width="2" stroke-miterlimit="10" width="8.463" height="42.661"/>
	
		<rect x="266.368" y="2208.538" fill="none" stroke="#AFACAC" stroke-width="2" stroke-miterlimit="10" width="8.463" height="42.661"/>
	
		<rect x="240.662" y="2050.92" fill="none" stroke="#AFACAC" stroke-width="2" stroke-miterlimit="10" width="8.463" height="39.127"/>
	
		<rect x="240.662" y="2090.047" fill="none" stroke="#AFACAC" stroke-width="2" stroke-miterlimit="10" width="8.463" height="41.671"/>
	
		<rect x="232.199" y="2050.92" fill="none" stroke="#AFACAC" stroke-width="2" stroke-miterlimit="10" width="8.462" height="39.127"/>
	
		<rect x="232.199" y="2090.047" fill="none" stroke="#AFACAC" stroke-width="2" stroke-miterlimit="10" width="8.462" height="41.671"/>
	
		<rect x="223.736" y="2050.92" fill="none" stroke="#AFACAC" stroke-width="2" stroke-miterlimit="10" width="8.463" height="39.127"/>
	
		<rect x="223.736" y="2090.047" fill="none" stroke="#AFACAC" stroke-width="2" stroke-miterlimit="10" width="8.463" height="41.671"/>
	
		<rect x="240.662" y="2328.764" fill="none" stroke="#AFACAC" stroke-width="2" stroke-miterlimit="10" width="8.463" height="39.127"/>
	
		<rect x="240.662" y="2287.093" fill="none" stroke="#AFACAC" stroke-width="2" stroke-miterlimit="10" width="8.463" height="41.671"/>
	
		<rect x="355.667" y="2420.305" fill="none" stroke="#AFACAC" stroke-width="2" stroke-miterlimit="10" width="28.908" height="8.463"/>
	
		<rect x="384.575" y="2420.305" fill="none" stroke="#AFACAC" stroke-width="2" stroke-miterlimit="10" width="28.908" height="8.463"/>
	
		<rect x="355.667" y="2428.768" fill="none" stroke="#AFACAC" stroke-width="2" stroke-miterlimit="10" width="28.908" height="8.463"/>
	
		<rect x="384.575" y="2428.768" fill="none" stroke="#AFACAC" stroke-width="2" stroke-miterlimit="10" width="28.908" height="8.463"/>
	<polyline fill="none" stroke="#AFACAC" stroke-width="2" stroke-miterlimit="10" points="355.667,2445.694 355.667,2437.231 
		384.575,2437.231 384.575,2445.694 	"/>
	<polyline fill="none" stroke="#AFACAC" stroke-width="2" stroke-miterlimit="10" points="384.575,2445.694 384.575,2437.231 
		413.483,2437.231 413.483,2445.694 	"/>
	
		<rect x="232.199" y="2328.764" fill="none" stroke="#AFACAC" stroke-width="2" stroke-miterlimit="10" width="8.462" height="39.127"/>
	
		<rect x="232.199" y="2287.093" fill="none" stroke="#AFACAC" stroke-width="2" stroke-miterlimit="10" width="8.462" height="41.671"/>
	
		<rect x="223.736" y="2328.764" fill="none" stroke="#AFACAC" stroke-width="2" stroke-miterlimit="10" width="8.463" height="39.127"/>
	
		<rect x="223.736" y="2287.093" fill="none" stroke="#AFACAC" stroke-width="2" stroke-miterlimit="10" width="8.463" height="41.671"/>
	
		<rect x="176.903" y="2165.876" fill="none" stroke="#AFACAC" stroke-width="2" stroke-miterlimit="10" width="8.463" height="42.661"/>
	
		<rect x="176.903" y="2208.538" fill="none" stroke="#AFACAC" stroke-width="2" stroke-miterlimit="10" width="8.463" height="42.661"/>
	
		<rect x="168.441" y="2165.876" fill="none" stroke="#AFACAC" stroke-width="2" stroke-miterlimit="10" width="8.462" height="42.661"/>
	
		<rect x="168.441" y="2208.538" fill="none" stroke="#AFACAC" stroke-width="2" stroke-miterlimit="10" width="8.462" height="42.661"/>
	
		<rect x="159.978" y="2165.876" fill="none" stroke="#AFACAC" stroke-width="2" stroke-miterlimit="10" width="8.463" height="42.661"/>
	
		<rect x="159.978" y="2208.538" fill="none" stroke="#AFACAC" stroke-width="2" stroke-miterlimit="10" width="8.463" height="42.661"/>
	
		<rect x="1726.126" y="2277.099" transform="matrix(0.7071 -0.7071 0.7071 0.7071 -1110.0725 1893.3142)" fill="none" stroke="#AFACAC" stroke-width="2" stroke-miterlimit="10" width="8.541" height="19.069"/>
	
		<rect x="1739.609" y="2290.583" transform="matrix(0.7071 -0.7071 0.7071 0.7071 -1115.6582 1906.7974)" fill="none" stroke="#AFACAC" stroke-width="2" stroke-miterlimit="10" width="8.541" height="19.068"/>
	
		<rect x="1732.164" y="2271.059" transform="matrix(0.707 -0.7072 0.7072 0.707 -1104.0642 1896.045)" fill="none" stroke="#AFACAC" stroke-width="2" stroke-miterlimit="10" width="8.541" height="19.069"/>
	
		<rect x="1745.648" y="2284.543" transform="matrix(0.7071 -0.7071 0.7071 0.7071 -1109.6182 1909.2992)" fill="none" stroke="#AFACAC" stroke-width="2" stroke-miterlimit="10" width="8.542" height="19.068"/>
	<polyline fill="none" stroke="#AFACAC" stroke-width="2" stroke-miterlimit="10" points="1720.635,2282.911 1712.104,2274.38 
		1712.104,2155.334 1720.635,2146.804 	"/>
	
		<rect x="1707.905" y="1660.001" fill="none" stroke="#AFACAC" stroke-width="2" stroke-miterlimit="10" width="51.772" height="9.427"/>
	
		<rect x="1696.489" y="1588.193" fill="none" stroke="#AFACAC" stroke-width="2" stroke-miterlimit="10" width="8.624" height="51.772"/>
	
		<rect x="1696.489" y="1536.42" fill="none" stroke="#AFACAC" stroke-width="2" stroke-miterlimit="10" width="8.624" height="51.772"/>
	
		<rect x="1687.866" y="1588.193" fill="none" stroke="#AFACAC" stroke-width="2" stroke-miterlimit="10" width="8.623" height="51.772"/>
	
		<rect x="1687.866" y="1536.42" fill="none" stroke="#AFACAC" stroke-width="2" stroke-miterlimit="10" width="8.623" height="51.772"/>
	
		<rect x="1679.242" y="1588.193" fill="none" stroke="#AFACAC" stroke-width="2" stroke-miterlimit="10" width="8.624" height="51.772"/>
	
		<rect x="1679.242" y="1536.42" fill="none" stroke="#AFACAC" stroke-width="2" stroke-miterlimit="10" width="8.624" height="51.772"/>
	
		<rect x="1670.618" y="1588.193" fill="none" stroke="#AFACAC" stroke-width="2" stroke-miterlimit="10" width="8.624" height="51.772"/>
	
		<rect x="1670.618" y="1536.42" fill="none" stroke="#AFACAC" stroke-width="2" stroke-miterlimit="10" width="8.624" height="51.772"/>
	
		<rect x="1661.995" y="1588.193" fill="none" stroke="#AFACAC" stroke-width="2" stroke-miterlimit="10" width="8.623" height="51.772"/>
	
		<rect x="1661.995" y="1536.42" fill="none" stroke="#AFACAC" stroke-width="2" stroke-miterlimit="10" width="8.623" height="51.772"/>
	
		<rect x="1653.371" y="1588.193" fill="none" stroke="#AFACAC" stroke-width="2" stroke-miterlimit="10" width="8.624" height="51.772"/>
	
		<rect x="1653.371" y="1536.42" fill="none" stroke="#AFACAC" stroke-width="2" stroke-miterlimit="10" width="8.624" height="51.772"/>
	
		<rect x="1644.747" y="1588.193" fill="none" stroke="#AFACAC" stroke-width="2" stroke-miterlimit="10" width="8.624" height="51.772"/>
	
		<rect x="1644.747" y="1536.42" fill="none" stroke="#AFACAC" stroke-width="2" stroke-miterlimit="10" width="8.624" height="51.772"/>
	
		<rect x="1636.124" y="1588.193" fill="none" stroke="#AFACAC" stroke-width="2" stroke-miterlimit="10" width="8.623" height="51.772"/>
	
		<rect x="1636.124" y="1536.42" fill="none" stroke="#AFACAC" stroke-width="2" stroke-miterlimit="10" width="8.623" height="51.772"/>
	
		<rect x="1627.5" y="1588.193" fill="none" stroke="#AFACAC" stroke-width="2" stroke-miterlimit="10" width="8.624" height="51.772"/>
	
		<rect x="1627.5" y="1536.42" fill="none" stroke="#AFACAC" stroke-width="2" stroke-miterlimit="10" width="8.624" height="51.772"/>
	
		<rect x="1759.678" y="1660.001" fill="none" stroke="#AFACAC" stroke-width="2" stroke-miterlimit="10" width="51.772" height="9.427"/>
	
		<rect x="1707.905" y="1669.428" fill="none" stroke="#AFACAC" stroke-width="2" stroke-miterlimit="10" width="51.772" height="9.427"/>
	
		<rect x="1759.678" y="1669.428" fill="none" stroke="#AFACAC" stroke-width="2" stroke-miterlimit="10" width="51.772" height="9.427"/>
	
		<rect x="1707.905" y="1678.855" fill="none" stroke="#AFACAC" stroke-width="2" stroke-miterlimit="10" width="51.772" height="9.427"/>
	
		<rect x="1759.678" y="1678.855" fill="none" stroke="#AFACAC" stroke-width="2" stroke-miterlimit="10" width="51.772" height="9.427"/>
	
		<rect x="1707.905" y="1688.282" fill="none" stroke="#AFACAC" stroke-width="2" stroke-miterlimit="10" width="51.772" height="9.427"/>
	
		<rect x="1759.678" y="1688.282" fill="none" stroke="#AFACAC" stroke-width="2" stroke-miterlimit="10" width="51.772" height="9.427"/>
	
		<rect x="1707.905" y="1697.708" fill="none" stroke="#AFACAC" stroke-width="2" stroke-miterlimit="10" width="51.772" height="9.427"/>
	
		<rect x="1759.678" y="1697.708" fill="none" stroke="#AFACAC" stroke-width="2" stroke-miterlimit="10" width="51.772" height="9.427"/>
	
		<rect x="1707.905" y="1707.135" fill="none" stroke="#AFACAC" stroke-width="2" stroke-miterlimit="10" width="51.772" height="9.427"/>
	
		<rect x="1759.678" y="1707.135" fill="none" stroke="#AFACAC" stroke-width="2" stroke-miterlimit="10" width="51.772" height="9.427"/>
	
		<rect x="1707.905" y="1716.562" fill="none" stroke="#AFACAC" stroke-width="2" stroke-miterlimit="10" width="51.772" height="9.427"/>
	
		<rect x="1759.678" y="1716.562" fill="none" stroke="#AFACAC" stroke-width="2" stroke-miterlimit="10" width="51.772" height="9.427"/>
	
		<rect x="1707.905" y="1725.989" fill="none" stroke="#AFACAC" stroke-width="2" stroke-miterlimit="10" width="51.772" height="9.427"/>
	
		<rect x="1759.678" y="1725.989" fill="none" stroke="#AFACAC" stroke-width="2" stroke-miterlimit="10" width="51.772" height="9.427"/>
	<path fill="none" stroke="#5D5F5F" stroke-width="5" stroke-miterlimit="10" d="M804.105,911.75l-31.855-19.117l-56.75-57.25
		c0,0-20.25-17.5-20.25-44.25s0-206.5,0-206.5s-4.586-18.65,31.414-54.9"/>
	<path fill="none" stroke="#5D5F5F" stroke-width="5" stroke-miterlimit="10" d="M818.481,886.987l-28.599-16.83l-46.786-47.197
		l-3.921-3.918c-3.923-5.211-15.578-16.992-15.578-54.824V596.051c0-8.334,3.683-26.705,23.186-46.344"/>
	<path fill="none" stroke="#5D5F5F" stroke-width="5" stroke-miterlimit="10" d="M777.583,945.885l19.083-21.584l40.19-67.365
		v-19.711h-39.705l-25.884-26.111c-19.325-23.896-19.093-47.77-19.325-48.396v-151c0-16.834,5.257-32.26,14.962-42.031"/>
	<path fill="none" stroke="#5D5F5F" stroke-width="5" stroke-miterlimit="10" d="M1221.276,486.529l-34.109-32.646
		c0,0-20.5-21-56.5-21s-107,0-107,0H966.5c0,0-71,0-107,0s-56.5,21-56.5,21l-32.821,31.414"/>
	<path fill="none" stroke="#5D5F5F" stroke-width="5" stroke-miterlimit="10" d="M1186.063,911.75l31.854-19.117l56.75-57.25
		c0,0,20.25-17.5,20.25-44.25s0-206.5,0-206.5s4.625-18.611-31.375-54.861"/>
	<path fill="none" stroke="#5D5F5F" stroke-width="5" stroke-miterlimit="10" d="M1200.623,506l-28.856-27.619
		c-1.849-1.668-19.55-17.152-41.1-17.152h-78.653h-113.86H859.5c-21.55,0-39.25,15.484-41.1,17.152l-28.099,26.895"/>
	<path fill="none" stroke="#5D5F5F" stroke-width="5" stroke-miterlimit="10" d="M1171.686,886.987l28.6-16.83l46.785-47.197
		l3.922-3.918c3.924-5.211,15.578-16.992,15.578-54.824V596.051c0-8.334-3.933-26.961-23.436-46.598"/>
	<path fill="none" stroke="#5D5F5F" stroke-width="5" stroke-miterlimit="10" d="M1181.594,527.024l-26.758-25.61
		c-1.125-0.881-16.684-11.838-38.189-11.838h-36.286H909.807h-36.286c-21.506,0-37.065,10.957-38.19,11.838l-24.907,23.84"/>
	<path fill="none" stroke="#5D5F5F" stroke-width="5" stroke-miterlimit="10" d="M1212.584,945.885l-19.084-21.584l-40.189-67.365
		v-19.711h39.705l25.883-26.111c19.325-23.896,19.094-47.77,19.325-48.396v-151c0-16.834-5.421-32.432-15.126-42.203"/>
	<path fill="none" stroke="#5D5F5F" stroke-width="5" stroke-miterlimit="10" d="M701.844,505.09l85.979,85.364
		c-3.391,3.416-7.533,18.43-7.533,38.264v121.166c0,0-0.79,25.834,12.963,43.143c1.793,2.258,3.661,4.473,5.553,6.619v38.061"/>
	<path fill="none" stroke="#5D5F5F" stroke-width="5" stroke-miterlimit="10" d="M1245.572,462.027l-84.181,84.899l-14.793-14.158
		c-18.649-15.858-40.491-14.846-40.655-14.846h-19.205h-183.31h-19.205c-0.164,0-22.006-1.012-40.655,14.846l-12.756,12.729
		l-85.979-85.364"/>
	<path fill="none" stroke="#5D5F5F" stroke-width="5" stroke-miterlimit="10" d="M1287.572,506.598l-85.245,82.209
		c3.392,3.416,7.55,20.076,7.55,39.91v121.166c0,0,0.79,25.834-12.963,43.143c-1.793,2.258-3.66,4.473-5.553,6.619v38.061"/>
	<path fill="none" stroke="#5D5F5F" stroke-width="5" stroke-miterlimit="10" d="M734.283,2381.072l-68.568-70.169
		c0,0-27.408-25.885-27.408-56.676v-256.893c0,0,0-25.702,36.309-61.118c3.152-3.074,13.522-13.046,23.096-22.476l121.285,121.285"
		/>
	<path fill="none" stroke="#5D5F5F" stroke-width="5" stroke-miterlimit="10" d="M778.651,2381.072l-68.568-70.169
		c0,0-43.411-41.352-43.411-82.352l1.414-207.92c0,0-1.557-30.247,30.748-62.914c3.096-3.131,12.17-12.142,21.744-21.571"/>
	<path fill="none" stroke="#5D5F5F" stroke-width="5" stroke-miterlimit="10" d="M805.734,2373.384l-68.267-69.167
		c0,0-42.429-42.674-42.429-83.674l0.24-193.659c0,0-0.24-25,37.469-65.167c3.014-3.21,6.744-5.94,6.744-5.94"/>
	<path fill="none" stroke="#5D5F5F" stroke-width="5" stroke-miterlimit="10" d="M827.35,2344.259l-57.019-48.001
		c0,0-46.928-43.034-46.928-80.541l0.24-168c0,0-2.476-29.833,37.164-72.153"/>
	<path fill="none" stroke="#5D5F5F" stroke-width="5" stroke-miterlimit="10" d="M844.608,2317.55l-54.2-43.711
		c0,0-38.64-30.955-38.64-67.456l0.24-158.666c0,0-0.24-22,28.125-53.215"/>
	<path fill="none" stroke="#5D5F5F" stroke-width="5" stroke-miterlimit="10" d="M798.773,2012.765
		c-18.639,19.619-18.399,42.619-18.399,42.619l-0.24,133.999c0,36.501,33.033,68.334,33.033,68.334l18.167,18.667h32.858"/>
	<path fill="none" stroke="#5D5F5F" stroke-width="5" stroke-miterlimit="10" d="M662.032,2429.239l-89.126-90.854
		c0,0-19.667-19.834-19.667-58.776v-303.667c0,0-1.28-36.333,13.386-51s162.903-161.944,162.903-161.944"/>
	<path fill="none" stroke="#5D5F5F" stroke-width="5" stroke-miterlimit="10" d="M544.167,2347.635c0,0-19.293-29.085-19.293-68.027
		v-303.667c0,0-0.59-41.749,16.483-61.831c8.638-10.16-2.772,2.709,152.052-151.113"/>
	
		<line fill="none" stroke="#5D5F5F" stroke-width="5" stroke-miterlimit="10" x1="713.373" y1="1929.086" x2="753.098" y2="1889.065"/>
	
		<line fill="none" stroke="#5D5F5F" stroke-width="5" stroke-miterlimit="10" x1="733.868" y1="1948.747" x2="773.52" y2="1909.076"/>
	<polyline fill="none" stroke="#5D5F5F" stroke-width="5" stroke-miterlimit="10" points="821.054,2265.822 864.191,2265.822 
		864.191,2288.278 810.032,2372.044 795.707,2381.072 	"/>
	<path fill="none" stroke="#5D5F5F" stroke-width="5" stroke-miterlimit="10" d="M1261.682,1762.626
		c0,0,159.959,158.923,174.625,173.59s12,47.667,12,47.667v303.667c0,23-21.334,42.334-21.334,42.334l-50.333,51.188h-198.668
		l-13.209-22.154h-37.28H902.589h-37.28l-13.209,22.154H653.433l-50.333-51.188c0,0-21.333-19.334-21.333-42.334v-303.667
		c0,0-2.667-33,12-47.667s174.625-173.59,174.625-173.59"/>
	<path fill="none" stroke="#5D5F5F" stroke-width="5" stroke-miterlimit="10" d="M858.33,1994.607l-120.602-120.602
		c15.223-15.241,30.784-30.887,46.841-47.068c11.33-11.418,23.157-18.404,35.775-22.341c19.332-6.032,36.717-5.282,36.717-5.282
		h58.491h198.967h58.491c0,0,17.386-0.75,36.718,5.282c12.617,3.937,24.444,10.923,35.774,22.341
		c16.058,16.182,31.618,31.827,46.841,47.068l-120.635,120.635"/>
	<path fill="none" stroke="#5D5F5F" stroke-width="5" stroke-miterlimit="10" d="M1295.789,2381.072l68.568-70.169
		c0,0,27.408-25.885,27.408-56.676v-256.893c0,0,0-25.702-36.309-61.118c-3.152-3.074-13.523-13.046-23.097-22.476l-121.299,121.299
		"/>
	<path fill="none" stroke="#5D5F5F" stroke-width="5" stroke-miterlimit="10" d="M1269.541,1896.349
		c-15.223-15.241-33.313-34.558-49.803-50.298c-22-21-75.093-19-75.093-19h-58.491H943.918h-58.491c0,0-53.093-2-75.093,19
		c-16.49,15.74-34.579,35.057-49.802,50.298"/>
	<path fill="none" stroke="#5D5F5F" stroke-width="5" stroke-miterlimit="10" d="M1251.421,2381.072l68.567-70.169
		c0,0,43.412-41.352,43.412-82.352l-1.414-207.92c0,0,1.557-30.247-30.748-62.914c-3.096-3.131-12.17-12.142-21.744-21.571"/>
	<path fill="none" stroke="#5D5F5F" stroke-width="5" stroke-miterlimit="10" d="M1250.374,1916.228
		c-15.223-15.241-28.544-28.75-45.015-44.511c-15.5-14.833-47.332-14.833-47.332-14.833l-70.752,0.333H942.797l-70.751-0.333
		c0,0-31.833,0-47.333,14.833c-16.47,15.761-29.792,29.27-45.014,44.511"/>
	<path fill="none" stroke="#5D5F5F" stroke-width="5" stroke-miterlimit="10" d="M1224.338,2373.384l68.268-69.167
		c0,0,42.429-42.674,42.429-83.674l-0.239-193.659c0,0,0.239-25-37.47-65.167c-3.014-3.21-6.744-5.94-6.744-5.94"/>
	<path fill="none" stroke="#5D5F5F" stroke-width="5" stroke-miterlimit="10" d="M1228.877,1936.193
		c-15.223-15.241-17.41-18.672-34.305-33.976c-19.5-17.663-51.225-17.663-51.225-17.663l-70.752,0.333H957.477l-70.751-0.333
		c0,0-31.725,0-51.225,17.663c-16.895,15.304-19.083,18.734-34.305,33.976"/>
	<path fill="none" stroke="#5D5F5F" stroke-width="5" stroke-miterlimit="10" d="M1202.723,2344.259l57.019-48.001
		c0,0,46.928-43.034,46.928-80.541l-0.239-168c0,0,2.476-29.833-37.164-72.153"/>
	<path fill="none" stroke="#5D5F5F" stroke-width="5" stroke-miterlimit="10" d="M1209.939,1954.749
		c-15.223-15.241-10.141-11.602-27.367-26.531c-22.5-19.5-62.758-16.666-62.758-16.666l-70.751,0.333h-68.055l-70.751-0.333
		c0,0-40.258-2.834-62.758,16.666c-17.227,14.93-12.145,11.29-27.368,26.531"/>
	<path fill="none" stroke="#5D5F5F" stroke-width="5" stroke-miterlimit="10" d="M1185.464,2317.55l54.2-43.711
		c0,0,38.639-30.955,38.639-67.456l-0.239-158.666c0,0,0.239-22-28.126-53.215"/>
	<path fill="none" stroke="#5D5F5F" stroke-width="5" stroke-miterlimit="10" d="M1190.492,1973.804
		c-5.057-5.444-14.293-15.076-21.42-21.254c-22.5-19.5-61.29-15.617-61.29-15.617l-70.751,0.333h-43.99l-70.751-0.333
		c0,0-38.79-3.883-61.29,15.617c-7.127,6.178-16.363,15.81-21.42,21.254"/>
	<path fill="none" stroke="#5D5F5F" stroke-width="5" stroke-miterlimit="10" d="M1231.299,2012.765
		c18.639,19.619,18.399,42.619,18.399,42.619l0.239,133.999c0,36.501-33.032,68.334-33.032,68.334l-18.167,18.667h-32.857"/>
	<path fill="none" stroke="#5D5F5F" stroke-width="5" stroke-miterlimit="10" d="M1367.074,2430.325l90.093-91.94
		c0,0,19.667-19.834,19.667-58.776v-303.667c0,0,1.279-36.333-13.387-51s-162.903-161.944-162.903-161.944"/>
	<path fill="none" stroke="#5D5F5F" stroke-width="5" stroke-miterlimit="10" d="M1485.905,2347.635
		c0,0,19.294-29.085,19.294-68.027v-303.667c0,0,0.59-41.749-16.483-61.831c-8.638-10.16,2.772,2.709-152.052-151.113"/>
	<path fill="none" stroke="#5D5F5F" stroke-width="5" stroke-miterlimit="10" d="M1049.063,2235.55l151.818,1.31
		c9.919-11.146,20.69-27.782,20.69-47.477l-0.24-111.999c0,0,0.24-30.5-11.505-43.579l-39.312-40.426
		c-5.936-5.627-11.809-11.003-15.11-13.629c-19-15.111-69.322-14.55-69.322-14.55l-70.75,0.333h-0.594l-70.75-0.333
		c0,0-50.322-0.562-69.322,14.55c-3.302,2.626-9.175,8.002-15.11,13.629l-39.312,40.426c-11.745,13.079-11.505,43.579-11.505,43.579
		l-0.24,111.999c0,19.694,10.771,36.331,20.69,47.477l151.818-1.31H1049.063z"/>
	
		<line fill="none" stroke="#5D5F5F" stroke-width="5" stroke-miterlimit="10" x1="1316.699" y1="1929.086" x2="1276.975" y2="1889.065"/>
	
		<line fill="none" stroke="#5D5F5F" stroke-width="5" stroke-miterlimit="10" x1="1296.204" y1="1948.747" x2="1256.553" y2="1909.076"/>
	<polyline fill="none" stroke="#5D5F5F" stroke-width="5" stroke-miterlimit="10" points="1209.018,2265.822 1165.881,2265.822 
		1165.881,2288.278 1220.04,2372.044 1234.365,2381.072 	"/>
	<polyline fill="none" stroke="#5D5F5F" stroke-width="5" stroke-miterlimit="10" points="1174.469,2375.197 1153.828,2389.005 
		1126.896,2389.005 903.176,2389.005 876.244,2389.005 855.604,2375.197 	"/>
	<polyline fill="none" stroke="#5D5F5F" stroke-width="5" stroke-miterlimit="10" points="1213.514,2219.102 1049.888,2219.102 
		980.185,2219.102 816.559,2219.102 	"/>
	<path fill="none" stroke="#5D5F5F" stroke-width="5" stroke-miterlimit="10" d="M1334.858,2381.072l50.333-51.188
		c0,0,34.939-32.5,34.939-58.334v-280.333c0,0,0-27.833-25.605-55.001c-9.918-10.523-91.322-90.321-139.018-138.376
		c-27.416-27.623-52.377-27.623-52.377-27.623h-21.667v11.851c-8.376,2.635-14.776,2.487-14.776,2.487h-0.001
		c0,0-8.126,0.12-17.838-3.539c-7.651-2.883-19.499-2.883-19.499-2.883s-11.848,0-19.499,2.883
		c-9.712,3.659-17.838,3.539-17.838,3.539h-0.001c0,0-8.126,0.12-17.838-3.539c-7.651-2.883-19.499-2.883-19.499-2.883
		s-11.848,0-19.499,2.883c-9.712,3.659-17.838,3.539-17.838,3.539h-0.001c0,0-8.126,0.12-17.838-3.539
		c-7.651-2.883-19.499-2.883-19.499-2.883s-11.848,0-19.499,2.883c-9.712,3.659-17.838,3.539-17.838,3.539h-0.001
		c0,0-8.126,0.12-17.838-3.539c-7.651-2.883-19.499-2.883-19.499-2.883s-11.848,0-19.499,2.883
		c-9.712,3.659-17.838,3.539-17.838,3.539h-0.001c0,0-8.126,0.12-17.838-3.539c-0.475-0.179-1.038-0.369-1.541-0.526v-10.272
		h-21.667c0,0-24.961,0-52.377,27.623c-47.695,48.055-129.099,127.853-139.017,138.376c-25.605,27.168-25.605,55.001-25.605,55.001
		v280.333c0,25.834,34.939,58.334,34.939,58.334l50.333,51.188"/>
	<polyline fill="none" stroke="#5D5F5F" stroke-width="5" stroke-miterlimit="10" points="879.184,1782.725 879.184,1748.936 
		1150.889,1748.936 1150.889,1781.739 	"/>
	<g>
		
			<use xlink:href="#drzwi"  width="38.417" height="37.521" x="-19.209" y="-18.761" transform="matrix(-0.7938 0 0 0.7938 1768.4971 756.5522)" overflow="visible"/>
		
			<use xlink:href="#drzwi"  width="38.417" height="37.521" x="-19.209" y="-18.761" transform="matrix(-0.7938 0 0 -0.7938 1768.4971 728.2319)" overflow="visible"/>
	</g>
	<g>
		
			<use xlink:href="#drzwi"  width="38.417" height="37.521" x="-19.209" y="-18.761" transform="matrix(-0.7938 0 0 0.7938 1768.4971 828.0347)" overflow="visible"/>
		
			<use xlink:href="#drzwi"  width="38.417" height="37.521" x="-19.209" y="-18.761" transform="matrix(-0.7938 0 0 -0.7938 1768.4971 799.7144)" overflow="visible"/>
	</g>
	
		<use xlink:href="#drzwi"  width="38.417" height="37.521" x="-19.209" y="-18.761" transform="matrix(0 -0.72 -0.72 0 764.1123 1020.4819)" overflow="visible"/>
	
		<use xlink:href="#drzwi"  width="38.417" height="37.521" x="-19.209" y="-18.761" transform="matrix(0 -0.72 -0.72 0 484.2881 1020.4819)" overflow="visible"/>
	
		<use xlink:href="#drzwi"  width="38.417" height="37.521" x="-19.209" y="-18.761" transform="matrix(-0.6072 0 0 0.6072 1433.2285 741.4565)" overflow="visible"/>
	
		<use xlink:href="#drzwi"  width="38.417" height="37.521" x="-19.209" y="-18.761" transform="matrix(-0.6072 0 0 0.6072 1433.2285 770.4497)" overflow="visible"/>
	
		<use xlink:href="#drzwi"  width="38.417" height="37.521" x="-19.209" y="-18.761" transform="matrix(0 -0.6072 -0.6072 0 1442.6055 885.0688)" overflow="visible"/>
	
		<use xlink:href="#drzwi"  width="38.417" height="37.521" x="-19.209" y="-18.761" transform="matrix(0 -0.6072 -0.6072 0 1413.6123 885.0688)" overflow="visible"/>
	
		<use xlink:href="#drzwi"  width="38.417" height="37.521" x="-19.209" y="-18.761" transform="matrix(0 0.8049 -0.8049 0 1290.2588 930.4233)" overflow="visible"/>
	
		<use xlink:href="#drzwi"  width="38.417" height="37.521" x="-19.209" y="-18.761" transform="matrix(-0.8049 0 0 0.8049 1334.6563 969.6733)" overflow="visible"/>
	
		<use xlink:href="#drzwi"  width="38.417" height="37.521" x="-19.209" y="-18.761" transform="matrix(-0.8049 0 0 0.8049 1426.6563 969.6733)" overflow="visible"/>
	
		<use xlink:href="#drzwi"  width="38.417" height="37.521" x="-19.209" y="-18.761" transform="matrix(0 0.6509 0.6509 0 1295.2188 994.1333)" overflow="visible"/>
</g>
<g id="wypelnienia">
	<g>
		<path fill="#5D5F5F" d="M524.5,952.885h21.221v-14H538.5V499.782l71.3-71.298l19.881,20.151L585.5,492.817v111.536h-17.332v7
			H585.5v327.532h-10.389v14h101.394v-14H599.5V498.616l40.014-40.015l46.01,46.636C647.162,541.25,647.81,577.513,648,581.41
			v210.476c0,43.659,19.986,62.67,23.236,65.472l80.077,81.528h-43.979v14h77.354L680.994,847.312l-0.253-0.269l-0.339-0.269
			c-0.751-0.62-18.402-15.627-18.402-54.89V581.217l-0.014-0.444c-0.084-1.449-1.601-35.893,38.227-69.899l5.721-4.884
			l-26.179-26.535l6.821-6.821l-4.95-4.95l-6.788,6.788l-41.82-42.389l6.503-6.503l-4.95-4.95l-6.47,6.47l-18.233-18.481
			L524.5,493.983V952.885z"/>
		<path fill="#5D5F5F" d="M728.875,337.549v-14h-31.476l-46.257,47.042l16.733,16.733l-7.024,7.024l4.95,4.95l7.024-7.024
			l42.104,42.104l-7.024,7.024l4.95,4.95l7.024-7.024l25.88,25.88l4.948-5.136c0.176-0.183,17.791-18.446,36.775-36.443
			c22.99-21.796,41.732-22.411,41.851-22.414l332.886,0c0.187,0.004,18.929,0.619,41.918,22.415
			c18.984,17.997,36.6,36.26,36.775,36.443l4.948,5.135l25.594-25.594l6.737,6.738l4.949-4.949l-6.737-6.738l42.105-42.105
			l6.737,6.738l4.949-4.949l-6.737-6.738l17.021-17.021l-46.259-47.042H758v14h530.354l32.409,32.958l-74.745,74.746
			c-6.649-6.777-19.123-19.34-32.247-31.783c-27.378-25.956-50.512-26.254-51.483-26.254H829.333
			c-0.972,0-24.105,0.298-51.483,26.254c-13.125,12.442-25.599,25.006-32.248,31.783l-74.745-74.746l32.41-32.958H728.875z"/>
		<polygon fill="#5D5F5F" points="1152.27,948.11 1162.771,938.85 1152.66,927.383 1032.25,927.383 1032.25,941.383 
			1146.34,941.383 		"/>
		<g>
			<rect x="1307.559" y="1000.383" fill="#5D5F5F" width="199.109" height="14"/>
			<polygon fill="#5D5F5F" points="1282.807,1000.383 1217.029,1000.383 1183.528,962.39 1173.028,971.65 1198.364,1000.383 
				1072,1000.383 1072,1014.383 1282.807,1014.383 			"/>
		</g>
		<polygon fill="#5D5F5F" points="842.108,941.383 955.333,941.383 955.333,927.383 834.058,927.383 792.755,998.363 
			791.496,1000.383 778.111,1000.383 778.111,1014.383 970,1014.383 970,1000.383 807.777,1000.383 		"/>
		<rect x="6.5" y="673.133" fill="#5D5F5F" width="14" height="213.75"/>
		<polygon fill="#5D5F5F" points="20.5,544.879 48.375,544.879 48.375,530.879 6.5,530.879 6.5,604.883 20.5,604.883 		"/>
		<path fill="#5D5F5F" d="M693,17.134v185.249h-40.438L417,442.375v88.504H111.252v14h32.999v88.004h7v-24.5H307.5v-63.504H431
			v-96.782l227.438-231.715H707V31.134h983.5v286.03h14V31.134h149v281.499h-27.75v71.961h-6.915v17.849h-56.231v43.441h-24.31
			v19.833h26.04v0.021h55.058v-61.31h6.358v100.311h-72.514V532h-12.127v14h84.641v125.633h-76v41.5h7v-34.5h82.9v-5.5h0.1v-346.5
			h27.75V17.134H693z M300.5,601.383H151.251v-56.504H300.5V601.383z M1812.392,458.252h-42.788v-48.81h42.788V458.252z
			 M1760.236,532v-20.262h65.514V532H1760.236z"/>
		<rect x="1659.5" y="1000.383" fill="#5D5F5F" width="50.448" height="14"/>
		<path fill="#5D5F5F" d="M1633,130.383h-358v79.5h170.045h14H1633V130.383z M1619,195.883h-159.955v-9.335h-14v9.335H1289v-51.5
			h330V195.883z"/>
		<path fill="#5D5F5F" d="M1210.5,130.383H770.827v79.5h170.045h14H1210.5V130.383z M1196.5,195.883H954.872v-9.335h-14v9.335
			H784.827v-51.5H1196.5V195.883z"/>
		<polygon fill="#5D5F5F" points="667.9,987.602 653.9,987.602 653.9,1000.383 591.567,1000.383 591.567,987.57 584.567,987.57 
			584.567,1000.383 498.152,1000.383 498.152,1014.383 750.324,1014.383 750.324,1000.383 667.9,1000.383 		"/>
		<rect x="1436.996" y="530.258" fill="#5D5F5F" width="7" height="139.196"/>
		<polygon fill="#5D5F5F" points="144.251,684.379 144.251,877.383 151.251,877.383 151.251,819.883 307.5,819.883 307.5,726.383 
			181.667,726.383 181.667,733.383 300.5,733.383 300.5,812.883 151.251,812.883 151.251,733.383 154.385,733.383 154.385,726.383 
			151.251,726.383 151.251,684.379 		"/>
		<path fill="#5D5F5F" d="M307.5,939.133H151.251v-11.166h-7v22.916h7v-4.75H300.5v26H167.25v28.25h-15.999v-22.166h-7v22.166h-17.4
			v14H318.5v157.5h-298v-157.5h53.222v-14H20.5v-49.5h-14v235h326v-171.5h138v-14h-163V939.133z M174.25,979.133H300.5v21.25H174.25
			V979.133z"/>
		<rect x="1595.662" y="671.647" fill="#5D5F5F" width="7" height="216.188"/>
		<polygon fill="#5D5F5F" points="1839.65,877.633 1756.75,877.633 1756.75,843.133 1749.75,843.133 1749.75,884.633 
			1825.773,884.633 1825.773,1000.383 1762.5,1000.383 1762.5,1014.383 1825.773,1014.383 1825.773,1172.883 1550.038,1172.883 
			1550.038,1014.383 1607,1014.383 1607,1000.383 1536.038,1000.383 1536.038,1186.883 1839.773,1186.883 1839.773,883.383 
			1839.65,883.383 		"/>
		<rect x="1749.75" y="771.465" fill="#5D5F5F" width="7" height="13.335"/>
		<rect x="184.108" y="685.422" fill="#5D5F5F" width="117.639" height="7"/>
		<rect x="625.808" y="765.208" fill="#5D5F5F" width="12.899" height="12.899"/>
		<rect x="625.808" y="594.933" fill="#5D5F5F" width="12.899" height="12.899"/>
		<rect x="1352.541" y="765.208" fill="#5D5F5F" width="12.9" height="12.899"/>
		<rect x="1352.541" y="594.933" fill="#5D5F5F" width="12.9" height="12.899"/>
		<rect x="1539.345" y="296.433" fill="#5D5F5F" width="12.9" height="12.899"/>
		<rect x="1352.54" y="296.433" fill="#5D5F5F" width="12.9" height="12.899"/>
		<rect x="1168.995" y="296.433" fill="#5D5F5F" width="12.9" height="12.899"/>
		<rect x="987.706" y="296.433" fill="#5D5F5F" width="12.9" height="12.899"/>
		<rect x="807.42" y="296.433" fill="#5D5F5F" width="12.9" height="12.899"/>
		<rect x="590.496" y="296.433" fill="#5D5F5F" width="12.9" height="12.899"/>
		<rect x="440.033" y="446.896" fill="#5D5F5F" width="12.9" height="12.899"/>
		<rect x="289.85" y="850.822" fill="#5D5F5F" width="12.9" height="12.899"/>
		<path fill="#5D5F5F" d="M1617.836,528.288h-34.098v-3.972h-36.237v-20.683H1617v-7h-224.415v-3.815l-38.1-38.101l25.882-26.233
			l42.1,42.099l9.9-9.899l-52.066-52.066l-17.797,18.038l-6.026-6.027l-4.949,4.949l6.06,6.061l-41.821,42.389l-6.344-6.344
			l-4.949,4.949l6.377,6.378l-26.617,26.979l5.721,4.884c39.828,34.006,38.312,68.45,38.229,69.862l-0.017,0.24v210.909
			c0,39.263-17.65,54.27-18.352,54.849l-0.339,0.27l-103.997,105.882h69.354v-14h-35.979l80.076-81.528
			c3.251-2.802,23.236-21.813,23.236-65.472V581.41c0.19-3.896,0.839-40.16-37.524-76.173l40.01-40.553l33.933,33.933v435.836
			h-72.923v14h160.005v-0.023h81.834V844.717h-40.833v7h33.833v60h-68.281v-3.757h-7.283v26.492h-72.352v-96.569h65.246v45.5h14
			v-55.52h-14v3.02h-65.246v-42h65.126v5.842h14v-64.46h-14v51.618h-65.126v-81.107h59.082v2.485h14v-2.485h74.834v83.273h-33.833v7
			h40.833V659.217h-7v16.832h-74.834v-3.897h-14v21.624h-59.082V503.633h147.916v56.75h7v-9.129h36.237v-1.801h34.098V528.288z
			 M1540.501,918.717v22h-68.281v-22H1540.501z M1465.667,683.049h74.834v10.727h-74.834V683.049z"/>
		<rect x="1472.001" y="445.883" fill="#5D5F5F" width="13" height="19.833"/>
		<rect x="1539.295" y="445.883" fill="#5D5F5F" width="13" height="19.833"/>
		<rect x="1606.128" y="445.883" fill="#5D5F5F" width="13" height="19.833"/>
		<polygon fill="#5D5F5F" points="385.216,862.811 391.902,862.811 391.902,871.743 416.206,871.743 416.206,873.939 
			434.07,873.939 434.07,871.743 458.373,871.743 458.373,862.811 462.714,862.811 462.714,849.586 458.373,849.586 
			458.373,842.935 434.07,842.935 434.07,840.604 416.206,840.604 416.206,842.935 391.902,842.935 391.902,849.586 
			385.216,849.586 		"/>
		<polygon fill="#5D5F5F" points="416.206,672.255 416.206,674.452 391.902,674.452 391.902,683.383 385.216,683.383 
			385.216,696.608 391.902,696.608 391.902,703.259 416.206,703.259 416.206,705.59 434.07,705.59 434.07,703.259 458.373,703.259 
			458.373,696.608 462.714,696.608 462.714,683.383 458.373,683.383 458.373,674.452 434.07,674.452 434.07,672.255 		"/>
	</g>
	<g>
		<path fill="#5D5F5F" d="M1847.334,1779.883v-375.334H1705.41v22.516h-597.108v7h594.865v77.305h-15.265v25.974h20.881v-21.318
			v-4.655v-77.305h10.6v-5.201h0.027v-10.314h113.924v347.334h-17.037V1659.75h-7v108.341h0.037v185.779h-11.23v-38.574v-3.5
			v-56.802h-45.858l-42.079-45.807v-151.637h-0.055v-18.546h-22.209v18.546h15.264v154.363l44.042,47.943v55.438h43.896v38.574
			h-51.939v29.014h0.043v7h8.001v130.974h7v-8.494h66.459v205.249h-66.459v-8.494h-7v116.098h-156.636v-18.535h-7v18.535h-41.666
			v-87.989h-7v8.426h-77.479l-78.055,79.563h-188.881v14h644.175v-463.332h-11.333v-196.001H1847.334z M1534.906,2425.216h-145.728
			l71.188-72.563h74.539V2425.216z M1820.667,2425.216h-66.459v-100.604h66.459V2425.216z M1754.208,1908.296v-46.302h36.896v46.302
			H1754.208z M1746.164,1975.884v-15.014h63.17v15.014H1746.164z M1820.667,2105.364h-66.459v-115.479h66.459V2105.364z"/>
		<path fill="#5D5F5F" d="M744.728,1431.782h90.439v-7h-6.792v-18.023h-14.911v18.023h-62.589v-14.523h-6.147v-45.709h297.939
			v42.209H956.8v25.023h85.867v0.03h14v-81.263H730.728v81.263h14V1431.782z M820.464,1413.758h0.911v11.023h-0.911V1413.758z
			 M1038.375,1424.782H963.8v-11.023h74.575V1424.782z"/>
		<rect x="869.167" y="2425.216" fill="#5D5F5F" width="292.899" height="14"/>
		<path fill="#5D5F5F" d="M181,2439.216h150.727v77.039H106.26v-77.039h27.407v-14H90v-435.332h35.667v-14h-16.333v-339.335h232.902
			v218.048H214.834v26.146h7v-19.146h103.734v29.771h-39.686v38.321h56.354v0.002h7v-0.002v-38.321v-254.818H576v-210.666h59.5v-14
			H562v210.666H95.334v353.335H76v463.332h16.26v91.039h253.467v-91.039h9.94v-14H181V2439.216z M342.236,1922.689h-49.354v-24.321
			h49.354V1922.689z M342.236,1891.368h-9.668v-29.771h9.668V1891.368z"/>
		<path fill="#5D5F5F" d="M353.667,1975.884h-4.432v-22.632h-7v22.632h-13.833v-18.697H221.834v-18.849h-7v37.546h-32.5v14h171.333
			V1975.884z M321.403,1975.884h-99.569v-11.697h99.569V1975.884z"/>
		<polygon fill="#5D5F5F" points="669.833,1433.216 683.833,1433.216 683.833,1400.883 669.833,1400.883 669.833,1411.883 
			661,1411.883 661,1425.883 669.833,1425.883 		"/>
		<polygon fill="#5D5F5F" points="572.644,2345.653 495.166,2345.653 495.166,2331.823 488.166,2331.823 488.166,2385.974 
			495.166,2385.974 495.166,2352.653 569.706,2352.653 640.893,2425.216 495.166,2425.216 495.166,2413.228 488.166,2413.228 
			488.166,2425.216 446.5,2425.216 446.5,2405.315 439.5,2405.315 439.5,2425.216 413.483,2425.216 413.483,2439.216 
			842.006,2439.216 842.006,2425.216 650.7,2425.216 		"/>
		<polygon fill="#5D5F5F" points="1430.485,1811.161 1441.897,1799.748 1436.948,1794.798 1430.659,1801.086 1398.775,1766.918 
			1406.227,1759.467 1401.277,1754.518 1393.997,1761.797 1390.195,1757.724 1241.111,1757.012 1241.111,1749.574 
			1234.111,1749.574 1234.111,1756.979 1193.894,1756.787 1193.894,1749.574 1186.894,1749.574 1186.894,1756.753 1179.35,1756.717 
			1179.316,1763.717 1387.139,1764.71 		"/>
		<polygon fill="#5D5F5F" points="648,1715.717 648,1708.717 608.487,1708.717 440.52,1877.415 439.5,1878.439 439.5,2013.217 
			446.5,2013.217 446.5,1927.717 488.166,1927.717 488.166,1933.562 495.166,1933.562 495.166,1899.884 488.166,1899.884 
			488.166,1920.717 446.5,1920.717 446.5,1881.33 558.255,1769.088 563.455,1774.289 568.405,1769.339 563.194,1764.128 
			595.889,1731.292 604.256,1739.659 609.206,1734.709 600.827,1726.332 611.396,1715.717 		"/>
		<path fill="#5D5F5F" d="M495.166,2300.55v-331.333h-7v84.25h-5.5v7h5.5v86.583H446.5v-86.583h5.5v-7h-5.5v-4.583h-7v322.29h7
			v-88.457h41.666v17.833H495.166z M446.5,2275.717V2154.05h41.666v121.667H446.5z"/>
		<path fill="#5D5F5F" d="M1421.585,1708.717h-39.513v7h36.604l10.678,10.724l-8.269,8.269l4.949,4.949l8.258-8.258l32.695,32.838
			l-5.102,5.101l4.949,4.949l5.09-5.091l111.646,112.132v39.388h-41.666v-20.833h-7v33.479h7v-5.646h41.666v85.5h7V1990.6h22.657
			v-7.267v-7.896v-15.071v-3.679h-3.679h-18.979v-78.249l-167.961-168.691L1421.585,1708.717z M1590.572,1960.367h18.979v15.071
			h-18.979V1960.367z"/>
		<path fill="#5D5F5F" d="M1590.572,2371.174v-322.29h-7v4.583h-5.755v7h5.755v86.583h-41.666v-86.583h5.245v-7h-5.245v-84.25h-7
			v331.333h7v-17.833h41.666v88.457H1590.572z M1541.906,2275.717V2154.05h41.666v121.667H1541.906z"/>
		<polygon fill="#5D5F5F" points="764.333,1715.717 790.996,1715.717 790.996,1722.929 797.996,1722.929 797.996,1715.717 
			838.214,1715.717 838.214,1722.929 845.214,1722.929 845.214,1715.717 1186.894,1715.717 1186.894,1722.929 1193.894,1722.929 
			1193.894,1715.717 1234.111,1715.717 1234.111,1722.929 1241.111,1722.929 1241.111,1715.717 1267,1715.717 1267,1708.717 
			764.333,1708.717 		"/>
		<path fill="#5D5F5F" d="M888.665,1406.758v25.273h14.911v-25.273H888.665z M896.576,1425.032h-0.911v-11.273h0.911V1425.032z"/>
		<polygon fill="#5D5F5F" points="845.214,1749.574 838.214,1749.574 838.214,1756.717 797.996,1756.717 797.996,1749.574 
			790.996,1749.574 790.996,1756.717 641.457,1756.717 636.566,1762.07 629.013,1754.518 624.064,1759.467 631.84,1767.243 
			600.553,1801.488 593.632,1794.567 588.682,1799.516 600.781,1811.615 644.543,1763.717 852.101,1763.717 852.101,1756.717 
			845.214,1756.717 		"/>
		<rect x="1441.604" y="1511.37" fill="#5D5F5F" width="20.881" height="25.974"/>
		<rect x="1441.604" y="1646.096" fill="#5D5F5F" width="20.881" height="24.441"/>
		<rect x="1200.354" y="1646.096" fill="#5D5F5F" width="20.881" height="24.441"/>
		<rect x="1200.354" y="1512.135" fill="#5D5F5F" width="20.881" height="24.441"/>
		<rect x="960.3" y="1646.096" fill="#5D5F5F" width="20.881" height="24.441"/>
		<rect x="960.3" y="1512.135" fill="#5D5F5F" width="20.881" height="24.441"/>
		<rect x="717.3" y="1648.956" fill="#5D5F5F" width="20.881" height="21.582"/>
		<rect x="717.3" y="1512.135" fill="#5D5F5F" width="20.881" height="24.441"/>
		<rect x="214.879" y="1906.481" fill="#5D5F5F" width="7.153" height="6.119"/>
		<rect x="221.402" y="2362.794" fill="#5D5F5F" width="32.286" height="10.442"/>
		<rect x="221.402" y="2046.738" fill="#5D5F5F" width="32.286" height="10.442"/>
	</g>
	<rect x="1389.25" y="723.856" fill="#5D5F5F" width="33.903" height="6.209"/>
	<rect x="1389.25" y="752.848" fill="#5D5F5F" width="33.903" height="6.21"/>
	<rect x="1425.004" y="836.307" fill="#5D5F5F" width="6.21" height="38.687"/>
	<rect x="1388.575" y="870.302" fill="#5D5F5F" width="13.652" height="6.21"/>
	<rect x="1315.94" y="984.965" fill="#5D5F5F" width="6.21" height="18.517"/>
	<rect x="1315.94" y="940.8" fill="#5D5F5F" width="6.21" height="13.557"/>
	<rect x="1407.94" y="984.965" fill="#5D5F5F" width="6.21" height="18.517"/>
	<rect x="1407.94" y="940.8" fill="#5D5F5F" width="6.21" height="13.557"/>
	<rect x="1454.055" y="870.302" fill="#5D5F5F" width="13.652" height="6.21"/>
	<rect x="1443.088" y="920.716" fill="#5D5F5F" width="6.152" height="17.078"/>
	<rect x="1414.709" y="920.716" fill="#5D5F5F" width="6.152" height="17.078"/>
	<rect x="221.402" y="1981.437" fill="#5D5F5F" width="4.588" height="70.522"/>
	<rect x="221.402" y="2366.708" fill="#5D5F5F" width="4.588" height="67.508"/>
</g>
</svg>
