<?xml version="1.0" encoding="utf-8"?>
<!-- Generator: Adobe Illustrator 15.0.0, SVG Export Plug-In . SVG Version: 6.00 Build 0)  -->
<!DOCTYPE svg PUBLIC "-//W3C//DTD SVG 1.1//EN" "http://www.w3.org/Graphics/SVG/1.1/DTD/svg11.dtd">
<svg version="1.1" xmlns="http://www.w3.org/2000/svg" xmlns:xlink="http://www.w3.org/1999/xlink" x="0px" y="0px" width="1876px"
	 height="1202.94px" viewBox="0 0 1876 1202.94" enable-background="new 0 0 1876 1202.94" xml:space="preserve">
<symbol  id="drzwi" viewBox="-19.209 -18.761 38.417 37.521">
	<path fill="none" stroke="#B7B0B3" stroke-width="2" stroke-miterlimit="10" d="M-16.313,17.761
		c0-19.618,15.902-35.521,35.521-35.521"/>
	<line fill="none" stroke="#6D636A" stroke-width="2" stroke-miterlimit="10" x1="19.208" y1="17.761" x2="-19.209" y2="17.761"/>
</symbol>
<g id="kolory_sal">
	<rect x="1541.8" y="1008.575" fill="#C4E3C3" width="291.175" height="171.694"/>
	<rect x="770.827" y="24.778" fill="#FBCFD0" width="439.673" height="113.449"/>
	<rect x="1275" y="24.778" fill="#C7C6C6" width="358" height="113.449"/>
	<path fill="#D3D4E5" d="M1319.313,482.065l-53.33-53.331l-21.098,25.367l-44.949-47.033c0,0-12.623-15.767-51.623-15.767
		s-312.143,0-312.143,0s-29.857-1.968-55.857,25.032s-38.5,38.5-38.5,38.5l-21.202-21.202l-48.865,48.865l24.56,24.56
		c0,0-41.711,26.992-41.711,73.326s0,203.167,0,203.167s-5.427,42.666,21.74,69.166S757,939.05,757,939.05l-5.057,5.166
		l-43.776,1.669h-37.833l-9.434,4.165v56.602h135.268l43.667-72.102l115.5,0.166h98.834l95.667,0.834l6.666,6.666l27,28.667
		l27.833,34l68.833,1.769h38.879v-60.767H1222.5l43.166-41.002l43.834-45.667c0,0,26-11.833,26-84.5s-1.834-193.667-1.834-193.667
		s-2.667-29.166-10.5-43.666c-7.833-14.5-28.056-33.854-28.056-33.854L1319.313,482.065z"/>
</g>
<g id="kontury">
	<g>
		
			<use xlink:href="#drzwi"  width="38.417" height="37.521" x="-19.209" y="-18.761" transform="matrix(0 1.0395 1.0395 0 1012.543 914.4165)" overflow="visible"/>
		
			<use xlink:href="#drzwi"  width="38.417" height="37.521" x="-19.209" y="-18.761" transform="matrix(0 1.0395 -1.0395 0 975.4609 914.4165)" overflow="visible"/>
	</g>
	<g>
		
			<use xlink:href="#drzwi"  width="38.417" height="37.521" x="-19.209" y="-18.761" transform="matrix(0 0.7042 0.7042 0 1645.7578 994.8267)" overflow="visible"/>
		
			<use xlink:href="#drzwi"  width="38.417" height="37.521" x="-19.209" y="-18.761" transform="matrix(0 0.7042 -0.7042 0 1620.6377 994.8267)" overflow="visible"/>
	</g>
	
		<use xlink:href="#drzwi"  width="38.417" height="37.521" x="-19.209" y="-18.761" transform="matrix(0 0.8839 -0.8839 0 1489.0723 770.5903)" overflow="visible"/>
	
		<use xlink:href="#drzwi"  width="38.417" height="37.521" x="-19.209" y="-18.761" transform="matrix(0 -0.8839 -0.8839 0 1489.0723 864.7485)" overflow="visible"/>
	
		<use xlink:href="#drzwi"  width="38.417" height="37.521" x="-19.209" y="-18.761" transform="matrix(-0.8839 0 0 0.8839 1482.0615 811.3667)" overflow="visible"/>
	
		<use xlink:href="#drzwi"  width="38.417" height="37.521" x="-19.209" y="-18.761" transform="matrix(-0.6441 0 0 0.6441 1477.501 895.6528)" overflow="visible"/>
	
		<use xlink:href="#drzwi"  width="38.417" height="37.521" x="-19.209" y="-18.761" transform="matrix(-0.7418 0 0 -0.7418 1479.2344 716.2104)" overflow="visible"/>
	
		<use xlink:href="#drzwi"  width="38.417" height="37.521" x="-19.209" y="-18.761" transform="matrix(-0.6072 0 0 0.6072 1433.2285 712.4644)" overflow="visible"/>
	<g>
		
			<use xlink:href="#drzwi"  width="38.417" height="37.521" x="-19.209" y="-18.761" transform="matrix(0 0.3961 0.3961 0 1528.3945 1000.7446)" overflow="visible"/>
		
			<use xlink:href="#drzwi"  width="38.417" height="37.521" x="-19.209" y="-18.761" transform="matrix(0 0.3961 -0.3961 0 1514.2646 1000.7446)" overflow="visible"/>
	</g>
	<g>
		
			<use xlink:href="#drzwi"  width="38.417" height="37.521" x="-19.209" y="-18.761" transform="matrix(0 0.7042 0.7042 0 1748.5967 994.8267)" overflow="visible"/>
		
			<use xlink:href="#drzwi"  width="38.417" height="37.521" x="-19.209" y="-18.761" transform="matrix(0 0.7042 -0.7042 0 1723.4766 994.8267)" overflow="visible"/>
	</g>
	
		<use xlink:href="#drzwi"  width="38.417" height="37.521" x="-19.209" y="-18.761" transform="matrix(0.5993 -0.5993 0.5993 0.5993 1156.668 966.646)" overflow="visible"/>
	
		<use xlink:href="#drzwi"  width="38.417" height="37.521" x="-19.209" y="-18.761" transform="matrix(0.9253 0 0 0.9253 643.1265 970.2075)" overflow="visible"/>
	
		<use xlink:href="#drzwi"  width="38.417" height="37.521" x="-19.209" y="-18.761" transform="matrix(0.9253 0 0 0.9253 570.2935 970.2075)" overflow="visible"/>
	
		<use xlink:href="#drzwi"  width="38.417" height="37.521" x="-19.209" y="-18.761" transform="matrix(0 0.818 0.818 0 691.9229 930.1724)" overflow="visible"/>
	
		<use xlink:href="#drzwi"  width="38.417" height="37.521" x="-19.209" y="-18.761" transform="matrix(0 -0.7825 0.7825 0 560.249 960.9155)" overflow="visible"/>
	
		<use xlink:href="#drzwi"  width="38.417" height="37.521" x="-19.209" y="-18.761" transform="matrix(0 -0.7825 -0.7825 0 553.4658 622.8628)" overflow="visible"/>
	
		<use xlink:href="#drzwi"  width="38.417" height="37.521" x="-19.209" y="-18.761" transform="matrix(0.6978 0.6978 0.6978 -0.6978 636.708 396.5796)" overflow="visible"/>
	
		<use xlink:href="#drzwi"  width="38.417" height="37.521" x="-19.209" y="-18.761" transform="matrix(0 0.7805 -0.7805 0 743.606 315.5576)" overflow="visible"/>
	
		<use xlink:href="#drzwi"  width="38.417" height="37.521" x="-19.209" y="-18.761" transform="matrix(0.6978 0.6978 0.6978 -0.6978 683.7627 443.6343)" overflow="visible"/>
	
		<use xlink:href="#drzwi"  width="38.417" height="37.521" x="-19.209" y="-18.761" transform="matrix(-0.6978 0.6978 -0.6978 -0.6978 1354.3398 396.5796)" overflow="visible"/>
	
		<use xlink:href="#drzwi"  width="38.417" height="37.521" x="-19.209" y="-18.761" transform="matrix(-0.6978 0.6978 -0.6978 -0.6978 1307.2852 443.6343)" overflow="visible"/>
	
		<use xlink:href="#drzwi"  width="38.417" height="37.521" x="-19.209" y="-18.761" transform="matrix(0.7507 0 0 0.7507 1417.0244 482.4922)" overflow="visible"/>
	
		<use xlink:href="#drzwi"  width="38.417" height="37.521" x="-19.209" y="-18.761" transform="matrix(0 0.7177 -0.7177 0 167.9072 716.0981)" overflow="visible"/>
	
		<rect x="1255.098" y="945.885" fill="none" stroke="#B3B2B1" stroke-width="2" stroke-miterlimit="10" width="9.368" height="60.751"/>
	
		<rect x="1264.466" y="945.885" fill="none" stroke="#B3B2B1" stroke-width="2" stroke-miterlimit="10" width="9.368" height="60.751"/>
	<g>
		
			<rect x="1738.937" y="361.408" transform="matrix(0.7071 -0.7071 0.7071 0.7071 236.7635 1345.3273)" fill="none" stroke="#B3B2B1" stroke-width="2" stroke-miterlimit="10" width="6.796" height="50.914"/>
		
			<rect x="1743.743" y="356.601" transform="matrix(0.7071 -0.7071 0.7071 0.7071 241.5695 1347.3177)" fill="none" stroke="#B3B2B1" stroke-width="2" stroke-miterlimit="10" width="6.796" height="50.915"/>
		
			<rect x="1748.548" y="351.796" transform="matrix(0.7071 -0.7071 0.7071 0.7071 246.4247 1349.3848)" fill="none" stroke="#B3B2B1" stroke-width="2" stroke-miterlimit="10" width="6.797" height="50.915"/>
		
			<rect x="1753.355" y="346.991" transform="matrix(0.7071 -0.7071 0.7071 0.7071 251.1809 1351.2993)" fill="none" stroke="#B3B2B1" stroke-width="2" stroke-miterlimit="10" width="6.796" height="50.913"/>
		
			<rect x="1758.161" y="342.185" transform="matrix(0.7072 -0.707 0.707 0.7072 255.8364 1353.0608)" fill="none" stroke="#B3B2B1" stroke-width="2" stroke-miterlimit="10" width="6.797" height="50.914"/>
		
			<rect x="1702.935" y="325.404" transform="matrix(0.7071 -0.7071 0.7071 0.7071 251.7253 1309.399)" fill="none" stroke="#B3B2B1" stroke-width="2" stroke-miterlimit="10" width="6.797" height="50.915"/>
		
			<rect x="1707.741" y="320.599" transform="matrix(0.7071 -0.7071 0.7071 0.7071 256.4819 1311.3154)" fill="none" stroke="#B3B2B1" stroke-width="2" stroke-miterlimit="10" width="6.796" height="50.915"/>
		
			<rect x="1712.547" y="315.795" transform="matrix(0.7072 -0.707 0.707 0.7072 261.1395 1313.0854)" fill="none" stroke="#B3B2B1" stroke-width="2" stroke-miterlimit="10" width="6.797" height="50.913"/>
		
			<rect x="1717.353" y="310.988" transform="matrix(0.7071 -0.7071 0.7071 0.7071 266.1433 1315.3711)" fill="none" stroke="#B3B2B1" stroke-width="2" stroke-miterlimit="10" width="6.797" height="50.915"/>
		
			<rect x="1722.159" y="306.182" transform="matrix(0.7071 -0.7071 0.7071 0.7071 270.8992 1317.2878)" fill="none" stroke="#B3B2B1" stroke-width="2" stroke-miterlimit="10" width="6.796" height="50.915"/>
	</g>
	
		<rect x="1617.836" y="446.862" fill="none" stroke="#B3B2B1" stroke-width="2" stroke-miterlimit="10" width="124.499" height="8.789"/>
	
		<rect x="1617.836" y="455.65" fill="none" stroke="#B3B2B1" stroke-width="2" stroke-miterlimit="10" width="124.499" height="8.789"/>
	
		<rect x="1477.591" y="459.88" fill="none" stroke="#B3B2B1" stroke-width="2" stroke-miterlimit="10" width="134.199" height="4.56"/>
	<path fill="none" stroke="#8B8C8C" stroke-width="5" stroke-miterlimit="10" d="M804.105,911.75l-31.855-19.117l-56.75-57.25
		c0,0-20.25-17.5-20.25-44.25s0-206.5,0-206.5s-4.586-18.65,31.414-54.9"/>
	<path fill="none" stroke="#8B8C8C" stroke-width="5" stroke-miterlimit="10" d="M818.481,886.987l-28.599-16.83l-46.786-47.197
		l-3.921-3.918c-3.923-5.211-15.578-16.992-15.578-54.824V596.051c0-8.334,3.683-26.705,23.186-46.344"/>
	<path fill="none" stroke="#8B8C8C" stroke-width="5" stroke-miterlimit="10" d="M777.583,945.885l19.083-21.584l40.19-67.365
		v-19.711h-39.705l-25.884-26.111c-19.325-23.896-19.093-47.77-19.325-48.396v-151c0-16.834,5.257-32.26,14.962-42.031"/>
	<path fill="none" stroke="#8B8C8C" stroke-width="5" stroke-miterlimit="10" d="M1221.276,486.529l-34.109-32.646
		c0,0-20.5-21-56.5-21s-107,0-107,0H966.5c0,0-71,0-107,0s-56.5,21-56.5,21l-32.821,31.414"/>
	<path fill="none" stroke="#8B8C8C" stroke-width="5" stroke-miterlimit="10" d="M1186.063,911.75l31.854-19.117l56.75-57.25
		c0,0,20.25-17.5,20.25-44.25s0-206.5,0-206.5s4.625-18.611-31.375-54.861"/>
	<path fill="none" stroke="#8B8C8C" stroke-width="5" stroke-miterlimit="10" d="M1200.623,506l-28.856-27.619
		c-1.849-1.668-19.55-17.152-41.1-17.152h-78.653h-113.86H859.5c-21.55,0-39.25,15.484-41.1,17.152l-28.099,26.895"/>
	<path fill="none" stroke="#8B8C8C" stroke-width="5" stroke-miterlimit="10" d="M1171.686,886.987l28.6-16.83l46.785-47.197
		l3.922-3.918c3.924-5.211,15.578-16.992,15.578-54.824V596.051c0-8.334-3.933-26.961-23.436-46.598"/>
	<path fill="none" stroke="#8B8C8C" stroke-width="5" stroke-miterlimit="10" d="M1181.594,527.024l-26.758-25.61
		c-1.125-0.881-16.684-11.838-38.189-11.838h-36.286H909.807h-36.286c-21.506,0-37.065,10.957-38.19,11.838l-24.907,23.84"/>
	<path fill="none" stroke="#8B8C8C" stroke-width="5" stroke-miterlimit="10" d="M1212.584,945.885l-19.084-21.584l-40.189-67.365
		v-19.711h39.705l25.883-26.111c19.325-23.896,19.094-47.77,19.325-48.396v-151c0-16.834-5.421-32.432-15.126-42.203"/>
	<path fill="none" stroke="#8B8C8C" stroke-width="5" stroke-miterlimit="10" d="M701.844,505.09l85.979,85.364
		c-3.391,3.416-7.533,18.43-7.533,38.264v121.166c0,0-0.79,25.834,12.963,43.143c1.793,2.258,3.661,4.473,5.553,6.619v38.061"/>
	<path fill="none" stroke="#8B8C8C" stroke-width="5" stroke-miterlimit="10" d="M1245.572,462.027l-84.181,84.899l-14.793-14.158
		c-18.649-15.858-40.491-14.846-40.655-14.846h-19.205h-183.31h-19.205c-0.164,0-22.006-1.012-40.655,14.846l-12.756,12.729
		l-85.979-85.364"/>
	<path fill="none" stroke="#8B8C8C" stroke-width="5" stroke-miterlimit="10" d="M1287.572,506.598l-85.245,82.209
		c3.392,3.416,7.55,20.076,7.55,39.91v121.166c0,0,0.79,25.834-12.963,43.143c-1.793,2.258-3.66,4.473-5.553,6.619v38.061"/>
	<g>
		
			<use xlink:href="#drzwi"  width="38.417" height="37.521" x="-19.209" y="-18.761" transform="matrix(-0.7938 0 0 0.7938 1768.4971 756.5522)" overflow="visible"/>
		
			<use xlink:href="#drzwi"  width="38.417" height="37.521" x="-19.209" y="-18.761" transform="matrix(-0.7938 0 0 -0.7938 1768.4971 728.2319)" overflow="visible"/>
	</g>
	<g>
		
			<use xlink:href="#drzwi"  width="38.417" height="37.521" x="-19.209" y="-18.761" transform="matrix(-0.7938 0 0 0.7938 1768.4971 828.0347)" overflow="visible"/>
		
			<use xlink:href="#drzwi"  width="38.417" height="37.521" x="-19.209" y="-18.761" transform="matrix(-0.7938 0 0 -0.7938 1768.4971 799.7144)" overflow="visible"/>
	</g>
	
		<use xlink:href="#drzwi"  width="38.417" height="37.521" x="-19.209" y="-18.761" transform="matrix(0 -0.72 -0.72 0 764.1123 1020.4819)" overflow="visible"/>
	
		<use xlink:href="#drzwi"  width="38.417" height="37.521" x="-19.209" y="-18.761" transform="matrix(0 -0.72 -0.72 0 484.2881 1020.4819)" overflow="visible"/>
	
		<use xlink:href="#drzwi"  width="38.417" height="37.521" x="-19.209" y="-18.761" transform="matrix(-0.6072 0 0 0.6072 1433.2285 741.4565)" overflow="visible"/>
	
		<use xlink:href="#drzwi"  width="38.417" height="37.521" x="-19.209" y="-18.761" transform="matrix(-0.6072 0 0 0.6072 1433.2285 770.4497)" overflow="visible"/>
	
		<use xlink:href="#drzwi"  width="38.417" height="37.521" x="-19.209" y="-18.761" transform="matrix(0 -0.6072 -0.6072 0 1442.6055 885.0688)" overflow="visible"/>
	
		<use xlink:href="#drzwi"  width="38.417" height="37.521" x="-19.209" y="-18.761" transform="matrix(0 -0.6072 -0.6072 0 1413.6123 885.0688)" overflow="visible"/>
	
		<use xlink:href="#drzwi"  width="38.417" height="37.521" x="-19.209" y="-18.761" transform="matrix(0 0.8049 -0.8049 0 1290.2588 930.4233)" overflow="visible"/>
	
		<use xlink:href="#drzwi"  width="38.417" height="37.521" x="-19.209" y="-18.761" transform="matrix(-0.8049 0 0 0.8049 1334.6563 969.6733)" overflow="visible"/>
	
		<use xlink:href="#drzwi"  width="38.417" height="37.521" x="-19.209" y="-18.761" transform="matrix(-0.8049 0 0 0.8049 1426.6563 969.6733)" overflow="visible"/>
	
		<use xlink:href="#drzwi"  width="38.417" height="37.521" x="-19.209" y="-18.761" transform="matrix(0 0.6509 0.6509 0 1295.2188 994.1333)" overflow="visible"/>
</g>
<g id="wypelnienia">
	<g>
		<path fill="#8B8C8C" d="M524.5,952.885h21.221v-14H538.5V499.782l71.3-71.298l19.881,20.151L585.5,492.817v111.536h-17.332v7
			H585.5v327.532h-10.389v14h101.394v-14H599.5V498.616l40.014-40.015l46.01,46.636C647.162,541.25,647.81,577.513,648,581.41
			v210.476c0,43.659,19.986,62.67,23.236,65.472l80.077,81.528h-43.979v14h77.354L680.994,847.312l-0.253-0.269l-0.339-0.269
			c-0.751-0.62-18.402-15.627-18.402-54.89V581.217l-0.014-0.444c-0.084-1.449-1.601-35.893,38.227-69.899l5.721-4.884
			l-26.179-26.535l6.821-6.821l-4.95-4.95l-6.788,6.788l-41.82-42.389l6.503-6.503l-4.95-4.95l-6.47,6.47l-18.233-18.481
			L524.5,493.983V952.885z"/>
		<path fill="#8B8C8C" d="M728.875,337.549v-14h-31.476l-46.257,47.042l16.733,16.733l-7.024,7.024l4.95,4.95l7.024-7.024
			l42.104,42.104l-7.024,7.024l4.95,4.95l7.024-7.024l25.88,25.88l4.948-5.136c0.176-0.183,17.791-18.446,36.775-36.443
			c22.99-21.796,41.732-22.411,41.851-22.414l332.886,0c0.187,0.004,18.929,0.619,41.918,22.415
			c18.984,17.997,36.6,36.26,36.775,36.443l4.948,5.135l25.594-25.594l6.737,6.738l4.949-4.949l-6.737-6.738l42.105-42.105
			l6.737,6.738l4.949-4.949l-6.737-6.738l17.021-17.021l-46.259-47.042H758v14h530.354l32.409,32.958l-74.745,74.746
			c-6.649-6.777-19.123-19.34-32.247-31.783c-27.378-25.956-50.512-26.254-51.483-26.254H829.333
			c-0.972,0-24.105,0.298-51.483,26.254c-13.125,12.442-25.599,25.006-32.248,31.783l-74.745-74.746l32.41-32.958H728.875z"/>
		<polygon fill="#8B8C8C" points="1152.27,948.11 1162.771,938.85 1152.66,927.383 1032.25,927.383 1032.25,941.383 
			1146.34,941.383 		"/>
		<g>
			<rect x="1307.559" y="1000.383" fill="#8B8C8C" width="199.109" height="14"/>
			<polygon fill="#8B8C8C" points="1282.807,1000.383 1217.029,1000.383 1183.528,962.39 1173.028,971.65 1198.364,1000.383 
				1072,1000.383 1072,1014.383 1282.807,1014.383 			"/>
		</g>
		<polygon fill="#8B8C8C" points="842.108,941.383 955.333,941.383 955.333,927.383 834.058,927.383 792.755,998.363 
			791.496,1000.383 778.111,1000.383 778.111,1014.383 970,1014.383 970,1000.383 807.777,1000.383 		"/>
		<rect x="6.5" y="673.133" fill="#8B8C8C" width="14" height="213.75"/>
		<polygon fill="#8B8C8C" points="20.5,544.879 48.375,544.879 48.375,530.879 6.5,530.879 6.5,604.883 20.5,604.883 		"/>
		<path fill="#8B8C8C" d="M693,17.134v185.249h-40.438L417,442.375v88.504H111.252v14h32.999v88.004h7v-24.5H307.5v-63.504H431
			v-96.782l227.438-231.715H707V31.134h983.5v286.03h14V31.134h149v281.499h-27.75v71.961h-6.915v17.849h-56.231v43.441h-24.31
			v19.833h26.04v0.021h55.058v-61.31h6.358v100.311h-72.514V532h-12.127v14h84.641v125.633h-76v41.5h7v-34.5h82.9v-5.5h0.1v-346.5
			h27.75V17.134H693z M300.5,601.383H151.251v-56.504H300.5V601.383z M1812.392,458.252h-42.788v-48.81h42.788V458.252z
			 M1760.236,532v-20.262h65.514V532H1760.236z"/>
		<rect x="1659.5" y="1000.383" fill="#8B8C8C" width="50.448" height="14"/>
		<path fill="#8B8C8C" d="M1633,130.383h-358v79.5h170.045h14H1633V130.383z M1619,195.883h-330v-51.5h330V195.883z"/>
		<path fill="#8B8C8C" d="M1210.5,130.383H770.827v79.5h170.045h14H1210.5V130.383z M1196.5,195.883H784.827v-51.5H1196.5V195.883z"
			/>
		<polygon fill="#8B8C8C" points="667.9,987.602 653.9,987.602 653.9,1000.383 591.567,1000.383 591.567,987.57 584.567,987.57 
			584.567,1000.383 498.152,1000.383 498.152,1014.383 750.324,1014.383 750.324,1000.383 667.9,1000.383 		"/>
		<rect x="1436.996" y="530.258" fill="#8B8C8C" width="7" height="139.196"/>
		<polygon fill="#8B8C8C" points="144.251,684.379 144.251,877.383 151.251,877.383 151.251,819.883 307.5,819.883 307.5,726.383 
			181.667,726.383 181.667,733.383 300.5,733.383 300.5,812.883 151.251,812.883 151.251,733.383 154.385,733.383 154.385,726.383 
			151.251,726.383 151.251,684.379 		"/>
		<path fill="#8B8C8C" d="M307.5,939.133H151.251v-11.166h-7v22.916h7v-4.75H300.5v26H167.25v28.25h-15.999v-22.166h-7v22.166h-17.4
			v14H318.5v157.5h-298v-157.5h53.222v-14H20.5v-49.5h-14v235h326v-171.5h138v-14h-163V939.133z M174.25,979.133H300.5v21.25H174.25
			V979.133z"/>
		<rect x="1595.662" y="671.647" fill="#8B8C8C" width="7" height="216.188"/>
		<polygon fill="#8B8C8C" points="1839.65,877.633 1756.75,877.633 1756.75,843.133 1749.75,843.133 1749.75,884.633 
			1825.773,884.633 1825.773,1000.383 1762.5,1000.383 1762.5,1014.383 1825.773,1014.383 1825.773,1172.883 1550.038,1172.883 
			1550.038,1014.383 1607,1014.383 1607,1000.383 1536.038,1000.383 1536.038,1186.883 1839.773,1186.883 1839.773,883.383 
			1839.65,883.383 		"/>
		<rect x="1749.75" y="771.465" fill="#8B8C8C" width="7" height="13.335"/>
		<rect x="184.108" y="685.422" fill="#8B8C8C" width="117.639" height="7"/>
		<rect x="625.808" y="765.208" fill="#8B8C8C" width="12.899" height="12.899"/>
		<rect x="625.808" y="594.933" fill="#8B8C8C" width="12.899" height="12.899"/>
		<rect x="1352.541" y="765.208" fill="#8B8C8C" width="12.9" height="12.899"/>
		<rect x="1352.541" y="594.933" fill="#8B8C8C" width="12.9" height="12.899"/>
		<rect x="1539.345" y="296.433" fill="#8B8C8C" width="12.9" height="12.899"/>
		<rect x="1352.54" y="296.433" fill="#8B8C8C" width="12.9" height="12.899"/>
		<rect x="1168.995" y="296.433" fill="#8B8C8C" width="12.9" height="12.899"/>
		<rect x="987.706" y="296.433" fill="#8B8C8C" width="12.9" height="12.899"/>
		<rect x="807.42" y="296.433" fill="#8B8C8C" width="12.9" height="12.899"/>
		<rect x="590.496" y="296.433" fill="#8B8C8C" width="12.9" height="12.899"/>
		<rect x="440.033" y="446.896" fill="#8B8C8C" width="12.9" height="12.899"/>
		<rect x="289.85" y="850.822" fill="#8B8C8C" width="12.9" height="12.899"/>
		<path fill="#8B8C8C" d="M1617.836,528.288h-34.098v-3.972h-36.237v-20.683H1617v-7h-224.415v-3.815l-38.1-38.101l25.882-26.233
			l42.1,42.099l9.9-9.899l-52.066-52.066l-17.797,18.038l-6.026-6.027l-4.949,4.949l6.06,6.061l-41.821,42.389l-6.344-6.344
			l-4.949,4.949l6.377,6.378l-26.617,26.979l5.721,4.884c39.828,34.006,38.312,68.45,38.229,69.862l-0.017,0.24v210.909
			c0,39.263-17.65,54.27-18.352,54.849l-0.339,0.27l-103.997,105.882h69.354v-14h-35.979l80.076-81.528
			c3.251-2.802,23.236-21.813,23.236-65.472V581.41c0.19-3.896,0.839-40.16-37.524-76.173l40.01-40.553l33.933,33.933v435.836
			h-72.923v14h160.005v-0.023h81.834V844.717h-40.833v7h33.833v60h-68.281v-3.757h-7.283v26.492h-72.352v-96.569h65.246v45.5h14
			v-55.52h-14v3.02h-65.246v-42h65.126v5.842h14v-64.46h-14v51.618h-65.126v-81.107h59.082v2.485h14v-2.485h74.834v83.273h-33.833v7
			h40.833V659.217h-7v16.832h-74.834v-3.897h-14v21.624h-59.082V503.633h147.916v56.75h7v-9.129h36.237v-1.801h34.098V528.288z
			 M1540.501,918.717v22h-68.281v-22H1540.501z M1465.667,683.049h74.834v10.727h-74.834V683.049z"/>
		<rect x="1472.001" y="445.883" fill="#8B8C8C" width="13" height="19.833"/>
		<rect x="1539.295" y="445.883" fill="#8B8C8C" width="13" height="19.833"/>
		<rect x="1606.128" y="445.883" fill="#8B8C8C" width="13" height="19.833"/>
		<polygon fill="#8B8C8C" points="385.216,862.811 391.902,862.811 391.902,871.743 416.206,871.743 416.206,873.939 
			434.07,873.939 434.07,871.743 458.373,871.743 458.373,862.811 462.714,862.811 462.714,849.586 458.373,849.586 
			458.373,842.935 434.07,842.935 434.07,840.604 416.206,840.604 416.206,842.935 391.902,842.935 391.902,849.586 
			385.216,849.586 		"/>
		<polygon fill="#8B8C8C" points="416.206,672.255 416.206,674.452 391.902,674.452 391.902,683.383 385.216,683.383 
			385.216,696.608 391.902,696.608 391.902,703.259 416.206,703.259 416.206,705.59 434.07,705.59 434.07,703.259 458.373,703.259 
			458.373,696.608 462.714,696.608 462.714,683.383 458.373,683.383 458.373,674.452 434.07,674.452 434.07,672.255 		"/>
	</g>
	<rect x="1389.25" y="723.856" fill="#8B8C8C" width="33.903" height="6.209"/>
	<rect x="1389.25" y="752.848" fill="#8B8C8C" width="33.903" height="6.21"/>
	<rect x="1425.004" y="836.307" fill="#8B8C8C" width="6.21" height="38.687"/>
	<rect x="1388.575" y="870.302" fill="#8B8C8C" width="13.652" height="6.21"/>
	<rect x="1315.94" y="984.965" fill="#8B8C8C" width="6.21" height="18.517"/>
	<rect x="1315.94" y="940.8" fill="#8B8C8C" width="6.21" height="13.557"/>
	<rect x="1407.94" y="984.965" fill="#8B8C8C" width="6.21" height="18.517"/>
	<rect x="1407.94" y="940.8" fill="#8B8C8C" width="6.21" height="13.557"/>
	<rect x="1454.055" y="870.302" fill="#8B8C8C" width="13.652" height="6.21"/>
	<rect x="1443.088" y="920.716" fill="#8B8C8C" width="6.152" height="17.078"/>
	<rect x="1414.709" y="920.716" fill="#8B8C8C" width="6.152" height="17.078"/>
</g>
<g id="stoiska">
	<path fill="#FFFFFF" stroke="#4D4D4F" stroke-width="4" stroke-miterlimit="10" d="M429.333,608.682
		c0,2.505-2.031,4.535-4.536,4.535h-90.262c-2.505,0-4.536-2.03-4.536-4.535v-47.597c0-2.505,2.031-4.535,4.536-4.535h90.262
		c2.505,0,4.536,2.03,4.536,4.535V608.682z"/>
	<path fill="#FFFFFF" stroke="#4D4D4F" stroke-width="4" stroke-miterlimit="10" d="M692.438,252.096
		c1.789,1.754,1.816,4.625,0.062,6.414l-55.288,56.262c-1.753,1.788-4.625,1.816-6.414,0.063L607,291.58
		c-1.789-1.754-1.816-4.625-0.062-6.414l55.288-56.262c1.753-1.788,4.625-1.816,6.414-0.063L692.438,252.096z"/>
	<path fill="#FFFFFF" stroke="#4D4D4F" stroke-width="4" stroke-miterlimit="10" d="M1533,441.348c0,2.505-2.03,4.536-4.535,4.536
		h-55.93c-2.505,0-4.535-2.031-4.535-4.536V394.42c0-2.505,2.03-4.536,4.535-4.536h55.93c2.505,0,4.535,2.031,4.535,4.536V441.348z"
		/>
	<path fill="#FFFFFF" stroke="#4D4D4F" stroke-width="4" stroke-miterlimit="10" d="M1618.163,441.348
		c0,2.505-2.03,4.536-4.535,4.536h-76.093c-2.505,0-4.535-2.031-4.535-4.536V394.42c0-2.505,2.03-4.536,4.535-4.536h76.093
		c2.505,0,4.535,2.031,4.535,4.536V441.348z"/>
	<path fill="#FFFFFF" stroke="#4D4D4F" stroke-width="4" stroke-miterlimit="10" d="M1825.75,667.098
		c0,2.505-2.03,4.535-4.535,4.535h-42.68c-2.505,0-4.535-2.03-4.535-4.535V562.419c0-2.505,2.03-4.535,4.535-4.535h42.68
		c2.505,0,4.535,2.03,4.535,4.535V667.098z"/>
	<path fill="#FFFFFF" stroke="#4D4D4F" stroke-width="4" stroke-miterlimit="10" d="M1825.773,995.848
		c0,2.505-2.03,4.535-4.535,4.535h-53.703c-2.505,0-4.535-2.03-4.535-4.535V889.605c0-2.505,2.03-4.536,4.535-4.536h53.703
		c2.505,0,4.535,2.031,4.535,4.536V995.848z"/>
	<path fill="#FFFFFF" stroke="#4D4D4F" stroke-width="4" stroke-miterlimit="10" d="M521,835.17c0,2.505-2.031,4.535-4.536,4.535
		H396.536c-2.505,0-4.536-2.03-4.536-4.535V714.752c0-2.505,2.031-4.535,4.536-4.535h119.929c2.505,0,4.536,2.03,4.536,4.535V835.17
		z"/>
	<path fill="#FFFFFF" stroke="#4D4D4F" stroke-width="4" stroke-miterlimit="10" d="M456.5,995.848c0,2.505-2.031,4.535-4.536,4.535
		H345.869c-2.505,0-4.536-2.03-4.536-4.535v-49.429c0-2.505,2.031-4.535,4.536-4.535h106.095c2.505,0,4.536,2.03,4.536,4.535
		V995.848z"/>
</g>
<g id="Layer_7_copy">
	<g>
		<path fill="#4D4D4F" d="M1547.371,807.363c0-2.643-2.143-4.785-4.785-4.785h-34.325c-2.643,0-4.787,2.143-4.787,4.785v21.761
			c0,2.644,2.145,4.786,4.787,4.786h34.325c2.643,0,4.785-2.143,4.785-4.786V807.363z"/>
		<g>
			<g>
				<path fill="#FFFFFF" d="M1523.066,820.494l1.531-8.094h2.336l-2.523,11.375h-2.359l-1.852-7.609l-1.852,7.609h-2.359
					l-2.523-11.375h2.336l1.539,8.078l1.875-8.078h1.984L1523.066,820.494z"/>
				<path fill="#FFFFFF" d="M1537.129,819.986c-0.088,1.224-0.54,2.188-1.355,2.891c-0.814,0.703-1.889,1.055-3.223,1.055
					c-1.458,0-2.605-0.491-3.441-1.473s-1.254-2.329-1.254-4.043v-0.695c0-1.094,0.193-2.058,0.578-2.891
					c0.386-0.833,0.937-1.473,1.652-1.918c0.717-0.445,1.549-0.668,2.496-0.668c1.313,0,2.37,0.352,3.172,1.055
					c0.803,0.703,1.266,1.69,1.391,2.961h-2.344c-0.057-0.734-0.262-1.267-0.613-1.598s-0.887-0.496-1.605-0.496
					c-0.781,0-1.365,0.28-1.754,0.84c-0.388,0.56-0.587,1.429-0.598,2.605v0.859c0,1.229,0.187,2.128,0.559,2.695
					c0.373,0.567,0.96,0.852,1.762,0.852c0.725,0,1.265-0.165,1.621-0.496c0.357-0.331,0.562-0.843,0.613-1.535H1537.129z"/>
			</g>
		</g>
	</g>
	<g>
		<g>
			<path fill="#4D4D4F" d="M1639.832,1106.727c0-0.443-0.156-0.783-0.469-1.02c-0.313-0.238-0.875-0.488-1.688-0.75
				c-0.813-0.264-1.455-0.523-1.93-0.777c-1.291-0.699-1.938-1.639-1.938-2.82c0-0.615,0.174-1.164,0.52-1.645
				c0.347-0.482,0.844-0.859,1.492-1.129c0.648-0.271,1.377-0.406,2.184-0.406c0.813,0,1.537,0.146,2.172,0.441
				c0.636,0.293,1.129,0.709,1.48,1.246c0.352,0.535,0.527,1.145,0.527,1.828h-2.344c0-0.521-0.164-0.926-0.492-1.215
				s-0.789-0.434-1.383-0.434c-0.572,0-1.018,0.121-1.336,0.363c-0.317,0.242-0.477,0.561-0.477,0.957
				c0,0.369,0.187,0.68,0.559,0.93c0.373,0.25,0.921,0.484,1.645,0.703c1.334,0.4,2.305,0.898,2.914,1.492s0.914,1.332,0.914,2.219
				c0,0.984-0.372,1.756-1.117,2.316c-0.744,0.559-1.747,0.84-3.008,0.84c-0.875,0-1.672-0.16-2.391-0.48s-1.267-0.76-1.645-1.316
				c-0.377-0.559-0.566-1.203-0.566-1.938h2.352c0,1.254,0.75,1.883,2.25,1.883c0.558,0,0.992-0.113,1.305-0.34
				S1639.832,1107.133,1639.832,1106.727z"/>
			<path fill="#4D4D4F" d="M1650.191,1107.368h-4.109l-0.781,2.344h-2.492l4.234-11.375h2.172l4.258,11.375h-2.492
				L1650.191,1107.368z M1646.715,1105.469h2.844l-1.43-4.258L1646.715,1105.469z"/>
			<path fill="#4D4D4F" d="M1656.879,1107.829h4.977v1.883h-7.32v-11.375h2.344V1107.829z"/>
			<path fill="#4D4D4F" d="M1669.77,1107.368h-4.109l-0.781,2.344h-2.492l4.234-11.375h2.172l4.258,11.375h-2.492L1669.77,1107.368z
				 M1666.293,1105.469h2.844l-1.43-4.258L1666.293,1105.469z"/>
			<path fill="#4D4D4F" d="M1680.582,1107.829h5.734v1.883h-8.664v-1.375l5.625-8.102h-5.617v-1.898h8.531v1.344L1680.582,1107.829z
				"/>
			<path fill="#4D4D4F" d="M1690.285,1109.711h-2.344v-11.375h2.344V1109.711z"/>
			<path fill="#4D4D4F" d="M1699.301,1104.782h-4.5v3.047h5.281v1.883h-7.625v-11.375h7.609v1.898h-5.266v2.711h4.5V1104.782z"/>
			<path fill="#4D4D4F" d="M1703.801,1107.829h4.977v1.883h-7.32v-11.375h2.344V1107.829z"/>
			<path fill="#4D4D4F" d="M1718.965,1104.282c0,1.119-0.197,2.102-0.594,2.945c-0.396,0.844-0.962,1.494-1.699,1.953
				c-0.736,0.457-1.582,0.688-2.535,0.688c-0.942,0-1.783-0.227-2.523-0.68c-0.739-0.453-1.313-1.102-1.719-1.941
				c-0.406-0.842-0.611-1.809-0.617-2.902v-0.563c0-1.121,0.202-2.105,0.605-2.957c0.404-0.852,0.975-1.506,1.711-1.961
				c0.737-0.457,1.58-0.684,2.527-0.684c0.948,0,1.791,0.227,2.527,0.684c0.737,0.455,1.308,1.109,1.711,1.961
				c0.404,0.852,0.605,1.834,0.605,2.949V1104.282z M1716.59,1103.766c0-1.193-0.213-2.1-0.641-2.719
				c-0.427-0.621-1.036-0.93-1.828-0.93c-0.786,0-1.393,0.305-1.82,0.918c-0.427,0.611-0.643,1.508-0.648,2.691v0.555
				c0,1.16,0.214,2.063,0.641,2.703c0.428,0.641,1.042,0.961,1.844,0.961c0.787,0,1.391-0.309,1.813-0.926s0.636-1.518,0.641-2.699
				V1103.766z"/>
			<path fill="#4D4D4F" d="M1729.918,1109.711h-2.344l-4.563-7.484v7.484h-2.344v-11.375h2.344l4.57,7.5v-7.5h2.336V1109.711z"/>
			<path fill="#4D4D4F" d="M1738.527,1107.368h-4.109l-0.781,2.344h-2.492l4.234-11.375h2.172l4.258,11.375h-2.492
				L1738.527,1107.368z M1735.051,1105.469h2.844l-1.43-4.258L1735.051,1105.469z"/>
			<path fill="#4D4D4F" d="M1647.047,1124.274c-0.422,0.504-1.018,0.896-1.789,1.176c-0.771,0.277-1.625,0.418-2.563,0.418
				c-0.984,0-1.848-0.215-2.59-0.645s-1.314-1.055-1.719-1.871c-0.403-0.818-0.61-1.779-0.621-2.883v-0.773
				c0-1.137,0.191-2.119,0.574-2.949c0.383-0.832,0.936-1.467,1.656-1.906c0.722-0.441,1.566-0.66,2.535-0.66
				c1.35,0,2.404,0.32,3.164,0.965c0.761,0.643,1.211,1.578,1.352,2.809h-2.281c-0.104-0.652-0.334-1.129-0.691-1.43
				c-0.356-0.303-0.848-0.453-1.473-0.453c-0.797,0-1.403,0.299-1.82,0.898c-0.416,0.598-0.627,1.488-0.633,2.672v0.727
				c0,1.191,0.227,2.094,0.68,2.703s1.117,0.914,1.992,0.914c0.881,0,1.508-0.188,1.883-0.563v-1.961h-2.133v-1.727h4.477V1124.274z
				"/>
			<path fill="#4D4D4F" d="M1653.156,1121.547h-1.867v4.164h-2.344v-11.375h4.227c1.344,0,2.381,0.299,3.109,0.898
				c0.729,0.598,1.094,1.445,1.094,2.539c0,0.775-0.168,1.422-0.504,1.941c-0.336,0.518-0.845,0.93-1.527,1.238l2.461,4.648v0.109
				h-2.516L1653.156,1121.547z M1651.289,1119.649h1.891c0.589,0,1.045-0.15,1.367-0.449c0.323-0.301,0.484-0.713,0.484-1.238
				c0-0.537-0.152-0.959-0.457-1.266c-0.305-0.309-0.771-0.461-1.402-0.461h-1.883V1119.649z"/>
			<path fill="#4D4D4F" d="M1666,1120.782h-4.5v3.047h5.281v1.883h-7.625v-11.375h7.609v1.898h-5.266v2.711h4.5V1120.782z"/>
			<path fill="#4D4D4F" d="M1675,1120.782h-4.5v3.047h5.281v1.883h-7.625v-11.375h7.609v1.898h-5.266v2.711h4.5V1120.782z"/>
			<path fill="#4D4D4F" d="M1686.406,1125.711h-2.344l-4.563-7.484v7.484h-2.344v-11.375h2.344l4.57,7.5v-7.5h2.336V1125.711z"/>
			<path fill="#4D4D4F" d="M1696.648,1121.547h-1.867v4.164h-2.344v-11.375h4.227c1.344,0,2.381,0.299,3.109,0.898
				c0.729,0.598,1.094,1.445,1.094,2.539c0,0.775-0.168,1.422-0.504,1.941c-0.336,0.518-0.845,0.93-1.527,1.238l2.461,4.648v0.109
				h-2.516L1696.648,1121.547z M1694.781,1119.649h1.891c0.589,0,1.045-0.15,1.367-0.449c0.323-0.301,0.484-0.713,0.484-1.238
				c0-0.537-0.152-0.959-0.457-1.266c-0.305-0.309-0.771-0.461-1.402-0.461h-1.883V1119.649z"/>
			<path fill="#4D4D4F" d="M1711.992,1120.282c0,1.119-0.197,2.102-0.594,2.945c-0.396,0.844-0.962,1.494-1.699,1.953
				c-0.736,0.457-1.582,0.688-2.535,0.688c-0.942,0-1.783-0.227-2.523-0.68c-0.739-0.453-1.313-1.102-1.719-1.941
				c-0.406-0.842-0.611-1.809-0.617-2.902v-0.563c0-1.121,0.202-2.105,0.605-2.957c0.404-0.852,0.975-1.506,1.711-1.961
				c0.737-0.457,1.58-0.684,2.527-0.684c0.948,0,1.791,0.227,2.527,0.684c0.737,0.455,1.308,1.109,1.711,1.961
				c0.404,0.852,0.605,1.834,0.605,2.949V1120.282z M1709.617,1119.766c0-1.193-0.213-2.1-0.641-2.719
				c-0.427-0.621-1.036-0.93-1.828-0.93c-0.786,0-1.393,0.305-1.82,0.918c-0.427,0.611-0.643,1.508-0.648,2.691v0.555
				c0,1.16,0.214,2.063,0.641,2.703c0.428,0.641,1.042,0.961,1.844,0.961c0.787,0,1.391-0.309,1.813-0.926s0.636-1.518,0.641-2.699
				V1119.766z"/>
			<path fill="#4D4D4F" d="M1723.039,1120.282c0,1.119-0.197,2.102-0.594,2.945c-0.396,0.844-0.962,1.494-1.699,1.953
				c-0.736,0.457-1.582,0.688-2.535,0.688c-0.942,0-1.783-0.227-2.523-0.68c-0.739-0.453-1.313-1.102-1.719-1.941
				c-0.406-0.842-0.611-1.809-0.617-2.902v-0.563c0-1.121,0.202-2.105,0.605-2.957c0.404-0.852,0.975-1.506,1.711-1.961
				c0.737-0.457,1.58-0.684,2.527-0.684c0.948,0,1.791,0.227,2.527,0.684c0.737,0.455,1.308,1.109,1.711,1.961
				c0.404,0.852,0.605,1.834,0.605,2.949V1120.282z M1720.664,1119.766c0-1.193-0.213-2.1-0.641-2.719
				c-0.427-0.621-1.036-0.93-1.828-0.93c-0.786,0-1.393,0.305-1.82,0.918c-0.427,0.611-0.643,1.508-0.648,2.691v0.555
				c0,1.16,0.214,2.063,0.641,2.703c0.428,0.641,1.042,0.961,1.844,0.961c0.787,0,1.391-0.309,1.813-0.926s0.636-1.518,0.641-2.699
				V1119.766z"/>
			<path fill="#4D4D4F" d="M1727.805,1114.336l2.922,8.25l2.906-8.25h3.078v11.375h-2.352v-3.109l0.234-5.367l-3.07,8.477h-1.609
				l-3.063-8.469l0.234,5.359v3.109h-2.344v-11.375H1727.805z"/>
		</g>
		<g>
			<path fill="#4D4D4F" d="M1703.053,1063.583c0-2.643-2.143-4.785-4.785-4.785h-21.76c-2.643,0-4.787,2.143-4.787,4.785v21.761
				c0,2.644,2.145,4.786,4.787,4.786h21.76c2.643,0,4.785-2.143,4.785-4.786V1063.583z"/>
			<g>
				<path fill="#FFFFFF" d="M1680.23,1084.625v-19.906h6.973c2.414,0,4.246,0.463,5.496,1.387c1.248,0.926,1.873,2.281,1.873,4.068
					c0,0.975-0.252,1.834-0.752,2.576c-0.502,0.744-1.199,1.287-2.092,1.635c1.02,0.254,1.824,0.77,2.412,1.545
					c0.588,0.773,0.883,1.723,0.883,2.844c0,1.914-0.611,3.363-1.832,4.348c-1.223,0.984-2.963,1.484-5.223,1.504H1680.23z
					 M1684.332,1073.059h3.035c2.068-0.037,3.104-0.861,3.104-2.475c0-0.902-0.263-1.553-0.787-1.949
					c-0.523-0.396-1.352-0.594-2.48-0.594h-2.871V1073.059z M1684.332,1075.958v5.373h3.514c0.965,0,1.72-0.23,2.262-0.691
					c0.543-0.459,0.814-1.096,0.814-1.906c0-1.824-0.943-2.748-2.83-2.775H1684.332z"/>
			</g>
		</g>
	</g>
	<g>
		<g>
			<path fill="#4D4D4F" d="M1416.098,93.807c0-0.442-0.156-0.782-0.469-1.02s-0.875-0.487-1.688-0.75s-1.456-0.522-1.93-0.777
				c-1.292-0.698-1.938-1.638-1.938-2.82c0-0.614,0.173-1.163,0.52-1.645c0.346-0.481,0.844-0.858,1.492-1.129
				s1.376-0.406,2.184-0.406c0.813,0,1.536,0.147,2.172,0.441c0.635,0.294,1.129,0.71,1.48,1.246s0.527,1.146,0.527,1.828h-2.344
				c0-0.521-0.164-0.926-0.492-1.215s-0.789-0.434-1.383-0.434c-0.573,0-1.019,0.121-1.336,0.363
				c-0.318,0.242-0.477,0.562-0.477,0.957c0,0.37,0.186,0.68,0.559,0.93c0.372,0.25,0.92,0.484,1.645,0.703
				c1.333,0.401,2.305,0.898,2.914,1.492s0.914,1.333,0.914,2.219c0,0.984-0.373,1.757-1.117,2.316
				c-0.745,0.56-1.748,0.84-3.008,0.84c-0.875,0-1.672-0.16-2.391-0.48s-1.268-0.759-1.645-1.316
				c-0.378-0.558-0.566-1.203-0.566-1.938h2.352c0,1.255,0.75,1.883,2.25,1.883c0.557,0,0.992-0.113,1.305-0.34
				S1416.098,94.213,1416.098,93.807z"/>
			<path fill="#4D4D4F" d="M1426.457,94.447h-4.109l-0.781,2.344h-2.492l4.234-11.375h2.172l4.258,11.375h-2.492L1426.457,94.447z
				 M1422.98,92.549h2.844l-1.43-4.258L1422.98,92.549z"/>
			<path fill="#4D4D4F" d="M1433.145,94.908h4.977v1.883h-7.32V85.416h2.344V94.908z"/>
			<path fill="#4D4D4F" d="M1446.035,94.447h-4.109l-0.781,2.344h-2.492l4.234-11.375h2.172l4.258,11.375h-2.492L1446.035,94.447z
				 M1442.559,92.549h2.844l-1.43-4.258L1442.559,92.549z"/>
			<path fill="#4D4D4F" d="M1454.363,96.791V85.416h3.984c1.38,0,2.427,0.265,3.141,0.793c0.713,0.528,1.07,1.304,1.07,2.324
				c0,0.558-0.144,1.048-0.43,1.473c-0.287,0.425-0.686,0.735-1.195,0.934c0.583,0.146,1.043,0.44,1.379,0.883
				s0.504,0.984,0.504,1.625c0,1.094-0.35,1.922-1.047,2.484c-0.698,0.563-1.693,0.849-2.984,0.859H1454.363z M1456.707,90.182
				h1.734c1.182-0.021,1.773-0.492,1.773-1.414c0-0.516-0.15-0.887-0.449-1.113c-0.3-0.227-0.772-0.34-1.418-0.34h-1.641V90.182z
				 M1456.707,91.838v3.07h2.008c0.552,0,0.982-0.132,1.293-0.395c0.31-0.263,0.465-0.626,0.465-1.09
				c0-1.042-0.539-1.57-1.617-1.586H1456.707z"/>
			<path fill="#4D4D4F" d="M1467.066,96.791h-2.344V85.416h2.344V96.791z"/>
			<path fill="#4D4D4F" d="M1475.801,94.447h-4.109l-0.781,2.344h-2.492l4.234-11.375h2.172l4.258,11.375h-2.492L1475.801,94.447z
				 M1472.324,92.549h2.844l-1.43-4.258L1472.324,92.549z"/>
			<path fill="#4D4D4F" d="M1482.746,89.799l1.68-0.484v1.297l-1.68,0.484v3.813h4.977v1.883h-7.32v-5.016l-1.047,0.297v-1.297
				l1.047-0.297v-5.063h2.344V89.799z"/>
			<path fill="#4D4D4F" d="M1495.488,94.447h-4.109l-0.781,2.344h-2.492l4.234-11.375h2.172l4.258,11.375h-2.492L1495.488,94.447z
				 M1492.012,92.549h2.844l-1.43-4.258L1492.012,92.549z"/>
			<path fill="#4D4D4F" d="M1414.406,109.51l1.531-8.094h2.336l-2.523,11.375h-2.359l-1.852-7.609l-1.852,7.609h-2.359
				l-2.523-11.375h2.336l1.539,8.078l1.875-8.078h1.984L1414.406,109.51z"/>
			<path fill="#4D4D4F" d="M1428.797,112.791h-2.344v-4.875h-4.57v4.875h-2.344v-11.375h2.344v4.609h4.57v-4.609h2.344V112.791z"/>
			<path fill="#4D4D4F" d="M1433.336,112.791h-2.344v-11.375h2.344V112.791z"/>
			<path fill="#4D4D4F" d="M1443.844,103.314h-3.484v9.477h-2.344v-9.477h-3.438v-1.898h9.266V103.314z"/>
			<path fill="#4D4D4F" d="M1452.023,107.861h-4.5v3.047h5.281v1.883h-7.625v-11.375h7.609v1.898h-5.266v2.711h4.5V107.861z"/>
			<path fill="#4D4D4F" d="M1462.375,108.627h-1.867v4.164h-2.344v-11.375h4.227c1.344,0,2.38,0.3,3.109,0.898
				c0.729,0.599,1.094,1.445,1.094,2.539c0,0.776-0.168,1.423-0.504,1.941s-0.846,0.931-1.527,1.238l2.461,4.648v0.109h-2.516
				L1462.375,108.627z M1460.508,106.729h1.891c0.588,0,1.044-0.149,1.367-0.449c0.322-0.3,0.484-0.712,0.484-1.238
				c0-0.536-0.152-0.958-0.457-1.266s-0.772-0.461-1.402-0.461h-1.883V106.729z"/>
			<path fill="#4D4D4F" d="M1477.719,107.361c0,1.12-0.198,2.102-0.594,2.945c-0.396,0.844-0.963,1.495-1.699,1.953
				c-0.737,0.458-1.582,0.688-2.535,0.688c-0.943,0-1.784-0.227-2.523-0.68c-0.74-0.453-1.313-1.101-1.719-1.941
				s-0.612-1.809-0.617-2.902v-0.563c0-1.12,0.201-2.105,0.605-2.957c0.403-0.852,0.974-1.505,1.711-1.961
				c0.736-0.456,1.579-0.684,2.527-0.684c0.947,0,1.79,0.228,2.527,0.684c0.736,0.456,1.307,1.109,1.711,1.961
				c0.403,0.852,0.605,1.835,0.605,2.949V107.361z M1475.344,106.846c0-1.192-0.214-2.099-0.641-2.719
				c-0.428-0.62-1.037-0.93-1.828-0.93c-0.787,0-1.394,0.306-1.82,0.918c-0.428,0.612-0.644,1.509-0.648,2.691v0.555
				c0,1.161,0.213,2.063,0.641,2.703c0.427,0.641,1.041,0.961,1.844,0.961c0.786,0,1.391-0.309,1.813-0.926s0.635-1.517,0.641-2.699
				V106.846z"/>
			<path fill="#4D4D4F" d="M1488.766,107.361c0,1.12-0.198,2.102-0.594,2.945c-0.396,0.844-0.963,1.495-1.699,1.953
				c-0.737,0.458-1.582,0.688-2.535,0.688c-0.943,0-1.784-0.227-2.523-0.68c-0.74-0.453-1.313-1.101-1.719-1.941
				s-0.612-1.809-0.617-2.902v-0.563c0-1.12,0.201-2.105,0.605-2.957c0.403-0.852,0.974-1.505,1.711-1.961
				c0.736-0.456,1.579-0.684,2.527-0.684c0.947,0,1.79,0.228,2.527,0.684c0.736,0.456,1.307,1.109,1.711,1.961
				c0.403,0.852,0.605,1.835,0.605,2.949V107.361z M1486.391,106.846c0-1.192-0.214-2.099-0.641-2.719
				c-0.428-0.62-1.037-0.93-1.828-0.93c-0.787,0-1.394,0.306-1.82,0.918c-0.428,0.612-0.644,1.509-0.648,2.691v0.555
				c0,1.161,0.213,2.063,0.641,2.703c0.427,0.641,1.041,0.961,1.844,0.961c0.786,0,1.391-0.309,1.813-0.926s0.635-1.517,0.641-2.699
				V106.846z"/>
			<path fill="#4D4D4F" d="M1493.531,101.416l2.922,8.25l2.906-8.25h3.078v11.375h-2.352v-3.109l0.234-5.367l-3.07,8.477h-1.609
				l-3.063-8.469l0.234,5.359v3.109h-2.344v-11.375H1493.531z"/>
		</g>
		<g>
			<path fill="#4D4D4F" d="M1469.665,50.663c0-2.643-2.143-4.785-4.785-4.785h-21.76c-2.643,0-4.787,2.143-4.787,4.785v21.761
				c0,2.644,2.145,4.786,4.787,4.786h21.76c2.643,0,4.785-2.143,4.785-4.786V50.663z"/>
			<g>
				<path fill="#FFFFFF" d="M1462.244,65.074c-0.156,2.142-0.946,3.828-2.373,5.059c-1.426,1.23-3.307,1.846-5.639,1.846
					c-2.553,0-4.561-0.859-6.023-2.577s-2.193-4.076-2.193-7.075v-1.217c0-1.914,0.336-3.601,1.012-5.059
					c0.674-1.458,1.638-2.577,2.891-3.356c1.254-0.779,2.709-1.169,4.369-1.169c2.297,0,4.146,0.615,5.551,1.846
					c1.402,1.23,2.215,2.958,2.434,5.182h-4.102c-0.102-1.285-0.459-2.217-1.074-2.796s-1.551-0.868-2.809-0.868
					c-1.367,0-2.391,0.49-3.07,1.47c-0.679,0.979-1.027,2.5-1.045,4.56v1.504c0,2.151,0.325,3.724,0.977,4.717
					c0.652,0.993,1.68,1.49,3.084,1.49c1.266,0,2.212-0.289,2.836-0.868c0.625-0.579,0.982-1.475,1.074-2.687H1462.244z"/>
			</g>
		</g>
	</g>
	<g>
		<g>
			<path fill="#4D4D4F" d="M942.957,93.807c0-0.442-0.156-0.782-0.469-1.02s-0.875-0.487-1.688-0.75s-1.455-0.522-1.93-0.777
				c-1.291-0.698-1.938-1.638-1.938-2.82c0-0.614,0.174-1.163,0.52-1.645s0.844-0.858,1.492-1.129s1.377-0.406,2.184-0.406
				c0.813,0,1.537,0.147,2.172,0.441s1.129,0.71,1.48,1.246s0.527,1.146,0.527,1.828h-2.344c0-0.521-0.164-0.926-0.492-1.215
				s-0.789-0.434-1.383-0.434c-0.572,0-1.018,0.121-1.336,0.363s-0.477,0.562-0.477,0.957c0,0.37,0.186,0.68,0.559,0.93
				s0.92,0.484,1.645,0.703c1.334,0.401,2.305,0.898,2.914,1.492s0.914,1.333,0.914,2.219c0,0.984-0.373,1.757-1.117,2.316
				s-1.748,0.84-3.008,0.84c-0.875,0-1.672-0.16-2.391-0.48s-1.268-0.759-1.645-1.316s-0.566-1.203-0.566-1.938h2.352
				c0,1.255,0.75,1.883,2.25,1.883c0.557,0,0.992-0.113,1.305-0.34S942.957,94.213,942.957,93.807z"/>
			<path fill="#4D4D4F" d="M953.316,94.447h-4.109l-0.781,2.344h-2.492l4.234-11.375h2.172l4.258,11.375h-2.492L953.316,94.447z
				 M949.84,92.549h2.844l-1.43-4.258L949.84,92.549z"/>
			<path fill="#4D4D4F" d="M960.004,94.908h4.977v1.883h-7.32V85.416h2.344V94.908z"/>
			<path fill="#4D4D4F" d="M972.895,94.447h-4.109l-0.781,2.344h-2.492l4.234-11.375h2.172l4.258,11.375h-2.492L972.895,94.447z
				 M969.418,92.549h2.844l-1.43-4.258L969.418,92.549z"/>
			<path fill="#4D4D4F" d="M981.223,96.791V85.416h3.5c1,0,1.895,0.226,2.684,0.676s1.404,1.091,1.848,1.922
				s0.664,1.774,0.664,2.832v0.523c0,1.058-0.217,1.997-0.652,2.82s-1.049,1.461-1.84,1.914s-1.686,0.683-2.68,0.688H981.223z
				 M983.566,87.314v7.594h1.133c0.916,0,1.617-0.3,2.102-0.898s0.732-1.456,0.742-2.57v-0.602c0-1.156-0.24-2.032-0.719-2.629
				s-1.18-0.895-2.102-0.895H983.566z"/>
			<path fill="#4D4D4F" d="M998.465,91.861h-4.5v3.047h5.281v1.883h-1.188c-0.385,0.219-0.682,0.434-0.891,0.645
				s-0.313,0.454-0.313,0.73c0,0.339,0.172,0.508,0.516,0.508c0.172,0,0.381-0.052,0.625-0.156l0.227,1.227
				c-0.381,0.229-0.811,0.344-1.289,0.344c-0.521,0-0.947-0.145-1.277-0.434s-0.496-0.688-0.496-1.199
				c0-0.661,0.303-1.216,0.906-1.664h-4.445V85.416h7.609v1.898h-5.266v2.711h4.5V91.861z"/>
			<path fill="#4D4D4F" d="M1000.621,96.791V85.416h3.984c1.381,0,2.428,0.265,3.141,0.793s1.07,1.304,1.07,2.324
				c0,0.558-0.143,1.048-0.43,1.473s-0.686,0.735-1.195,0.934c0.584,0.146,1.043,0.44,1.379,0.883s0.504,0.984,0.504,1.625
				c0,1.094-0.35,1.922-1.047,2.484s-1.693,0.849-2.984,0.859H1000.621z M1002.965,90.182h1.734
				c1.182-0.021,1.773-0.492,1.773-1.414c0-0.516-0.15-0.887-0.449-1.113s-0.771-0.34-1.418-0.34h-1.641V90.182z M1002.965,91.838
				v3.07h2.008c0.553,0,0.982-0.132,1.293-0.395s0.465-0.626,0.465-1.09c0-1.042-0.539-1.57-1.617-1.586H1002.965z"/>
			<path fill="#4D4D4F" d="M1020.176,91.361c0,1.12-0.197,2.102-0.594,2.945s-0.963,1.495-1.699,1.953s-1.582,0.688-2.535,0.688
				c-0.943,0-1.783-0.227-2.523-0.68s-1.313-1.101-1.719-1.941s-0.611-1.809-0.617-2.902v-0.563c0-1.12,0.201-2.105,0.605-2.957
				s0.975-1.505,1.711-1.961s1.58-0.684,2.527-0.684s1.791,0.228,2.527,0.684s1.307,1.109,1.711,1.961s0.605,1.835,0.605,2.949
				V91.361z M1017.801,90.846c0-1.192-0.213-2.099-0.641-2.719s-1.037-0.93-1.828-0.93c-0.787,0-1.393,0.306-1.82,0.918
				s-0.643,1.509-0.648,2.691v0.555c0,1.161,0.213,2.063,0.641,2.703s1.041,0.961,1.844,0.961c0.787,0,1.391-0.309,1.813-0.926
				s0.635-1.517,0.641-2.699V90.846z"/>
			<path fill="#4D4D4F" d="M1030.738,93.51l1.531-8.094h2.336l-2.523,11.375h-2.359l-1.852-7.609l-1.852,7.609h-2.359l-2.523-11.375
				h2.336l1.539,8.078l1.875-8.078h1.984L1030.738,93.51z"/>
			<path fill="#4D4D4F" d="M1041.957,94.447h-4.109l-0.781,2.344h-2.492l4.234-11.375h2.172l4.258,11.375h-2.492L1041.957,94.447z
				 M1038.48,92.549h2.844l-1.43-4.258L1038.48,92.549z"/>
			<path fill="#4D4D4F" d="M959.969,107.361c0,1.12-0.197,2.102-0.594,2.945s-0.963,1.495-1.699,1.953s-1.582,0.688-2.535,0.688
				c-0.943,0-1.783-0.227-2.523-0.68s-1.313-1.101-1.719-1.941s-0.611-1.809-0.617-2.902v-0.563c0-1.12,0.201-2.105,0.605-2.957
				s0.975-1.505,1.711-1.961s1.58-0.684,2.527-0.684s1.791,0.228,2.527,0.684s1.307,1.109,1.711,1.961s0.605,1.835,0.605,2.949
				V107.361z M957.594,106.846c0-1.192-0.213-2.099-0.641-2.719s-1.037-0.93-1.828-0.93c-0.787,0-1.393,0.306-1.82,0.918
				s-0.643,1.509-0.648,2.691v0.555c0,1.161,0.213,2.063,0.641,2.703s1.041,0.961,1.844,0.961c0.787,0,1.391-0.309,1.813-0.926
				s0.635-1.517,0.641-2.699V106.846z"/>
			<path fill="#4D4D4F" d="M967.93,110.447h-4.109l-0.781,2.344h-2.492l4.234-11.375h2.172l4.258,11.375h-2.492L967.93,110.447z
				 M964.453,108.549h2.844l-1.43-4.258L964.453,108.549z"/>
			<path fill="#4D4D4F" d="M975.836,108.229l-1.219,1.313v3.25h-2.344v-11.375h2.344v5.156l1.031-1.414l2.898-3.742h2.883
				l-4.039,5.055l4.156,6.32h-2.789L975.836,108.229z"/>
			<path fill="#4D4D4F" d="M990.625,108.627h-1.867v4.164h-2.344v-11.375h4.227c1.344,0,2.381,0.3,3.109,0.898
				s1.094,1.445,1.094,2.539c0,0.776-0.168,1.423-0.504,1.941s-0.846,0.931-1.527,1.238l2.461,4.648v0.109h-2.516L990.625,108.627z
				 M988.758,106.729h1.891c0.588,0,1.045-0.149,1.367-0.449s0.484-0.712,0.484-1.238c0-0.536-0.152-0.958-0.457-1.266
				s-0.771-0.461-1.402-0.461h-1.883V106.729z"/>
			<path fill="#4D4D4F" d="M1005.969,107.361c0,1.12-0.197,2.102-0.594,2.945s-0.963,1.495-1.699,1.953s-1.582,0.688-2.535,0.688
				c-0.943,0-1.783-0.227-2.523-0.68s-1.313-1.101-1.719-1.941s-0.611-1.809-0.617-2.902v-0.563c0-1.12,0.201-2.105,0.605-2.957
				s0.975-1.505,1.711-1.961s1.58-0.684,2.527-0.684s1.791,0.228,2.527,0.684s1.307,1.109,1.711,1.961s0.605,1.835,0.605,2.949
				V107.361z M1003.594,106.846c0-1.192-0.213-2.099-0.641-2.719s-1.037-0.93-1.828-0.93c-0.787,0-1.393,0.306-1.82,0.918
				s-0.643,1.509-0.648,2.691v0.555c0,1.161,0.213,2.063,0.641,2.703s1.041,0.961,1.844,0.961c0.787,0,1.391-0.309,1.813-0.926
				s0.635-1.517,0.641-2.699V106.846z"/>
			<path fill="#4D4D4F" d="M1017.016,107.361c0,1.12-0.197,2.102-0.594,2.945s-0.963,1.495-1.699,1.953s-1.582,0.688-2.535,0.688
				c-0.943,0-1.783-0.227-2.523-0.68s-1.313-1.101-1.719-1.941s-0.611-1.809-0.617-2.902v-0.563c0-1.12,0.201-2.105,0.605-2.957
				s0.975-1.505,1.711-1.961s1.58-0.684,2.527-0.684s1.791,0.228,2.527,0.684s1.307,1.109,1.711,1.961s0.605,1.835,0.605,2.949
				V107.361z M1014.641,106.846c0-1.192-0.213-2.099-0.641-2.719s-1.037-0.93-1.828-0.93c-0.787,0-1.393,0.306-1.82,0.918
				s-0.643,1.509-0.648,2.691v0.555c0,1.161,0.213,2.063,0.641,2.703s1.041,0.961,1.844,0.961c0.787,0,1.391-0.309,1.813-0.926
				s0.635-1.517,0.641-2.699V106.846z"/>
			<path fill="#4D4D4F" d="M1021.781,101.416l2.922,8.25l2.906-8.25h3.078v11.375h-2.352v-3.109l0.234-5.367l-3.07,8.477h-1.609
				l-3.063-8.469l0.234,5.359v3.109h-2.344v-11.375H1021.781z"/>
		</g>
		<g>
			<path fill="#4D4D4F" d="M1006.33,50.663c0-2.643-2.143-4.785-4.785-4.785h-21.76c-2.643,0-4.787,2.143-4.787,4.785v21.761
				c0,2.644,2.145,4.786,4.787,4.786h21.76c2.643,0,4.785-2.143,4.785-4.786V50.663z"/>
			<g>
				<path fill="#FFFFFF" d="M983.343,71.705V51.799h6.125c1.75,0,3.315,0.395,4.696,1.183s2.459,1.909,3.233,3.363
					s1.162,3.105,1.162,4.956v0.916c0,1.851-0.381,3.495-1.142,4.936c-0.762,1.44-1.834,2.557-3.22,3.35s-2.948,1.194-4.689,1.203
					H983.343z M987.444,55.121V68.41h1.982c1.604,0,2.83-0.524,3.678-1.572s1.28-2.548,1.299-4.498v-1.053
					c0-2.023-0.419-3.557-1.258-4.601s-2.064-1.565-3.678-1.565H987.444z"/>
			</g>
		</g>
	</g>
	<g>
		<g>
			<path fill="#4D4D4F" d="M947.097,713.117c0-0.442-0.156-0.782-0.469-1.02s-0.875-0.487-1.688-0.75s-1.456-0.522-1.93-0.777
				c-1.292-0.698-1.938-1.638-1.938-2.82c0-0.614,0.173-1.163,0.52-1.645s0.844-0.858,1.492-1.129s1.376-0.406,2.184-0.406
				c0.813,0,1.536,0.147,2.172,0.441s1.129,0.71,1.48,1.246s0.527,1.146,0.527,1.828h-2.344c0-0.521-0.164-0.926-0.492-1.215
				s-0.789-0.434-1.383-0.434c-0.573,0-1.019,0.121-1.336,0.363s-0.477,0.562-0.477,0.957c0,0.37,0.187,0.68,0.559,0.93
				s0.921,0.484,1.645,0.703c1.333,0.401,2.305,0.898,2.914,1.492s0.914,1.333,0.914,2.219c0,0.984-0.372,1.757-1.117,2.316
				s-1.747,0.84-3.008,0.84c-0.875,0-1.672-0.16-2.391-0.48s-1.267-0.759-1.645-1.316s-0.566-1.203-0.566-1.938h2.352
				c0,1.255,0.75,1.883,2.25,1.883c0.558,0,0.992-0.113,1.305-0.34S947.097,713.523,947.097,713.117z"/>
			<path fill="#4D4D4F" d="M957.456,713.757h-4.109l-0.781,2.344h-2.492l4.234-11.375h2.172l4.258,11.375h-2.492L957.456,713.757z
				 M953.979,711.859h2.844l-1.43-4.258L953.979,711.859z"/>
			<path fill="#4D4D4F" d="M964.144,714.218h4.977v1.883h-7.32v-11.375h2.344V714.218z"/>
			<path fill="#4D4D4F" d="M977.034,713.757h-4.109l-0.781,2.344h-2.492l4.234-11.375h2.172l4.258,11.375h-2.492L977.034,713.757z
				 M973.558,711.859h2.844l-1.43-4.258L973.558,711.859z"/>
			<path fill="#4D4D4F" d="M988.925,711.539l-1.219,1.313v3.25h-2.344v-11.375h2.344v5.156l1.031-1.414l2.898-3.742h2.883
				l-4.039,5.055l4.156,6.32h-2.789L988.925,711.539z"/>
			<path fill="#4D4D4F" d="M1004.62,710.671c0,1.12-0.198,2.102-0.594,2.945s-0.962,1.495-1.699,1.953s-1.582,0.688-2.535,0.688
				c-0.942,0-1.784-0.227-2.523-0.68s-1.313-1.101-1.719-1.941s-0.612-1.809-0.617-2.902v-0.563c0-1.12,0.202-2.105,0.605-2.957
				s0.974-1.505,1.711-1.961s1.579-0.684,2.527-0.684s1.79,0.228,2.527,0.684s1.308,1.109,1.711,1.961s0.605,1.835,0.605,2.949
				V710.671z M1002.245,710.156c0-1.192-0.214-2.099-0.641-2.719s-1.036-0.93-1.828-0.93c-0.786,0-1.394,0.306-1.82,0.918
				s-0.644,1.509-0.648,2.691v0.555c0,1.161,0.214,2.063,0.641,2.703s1.042,0.961,1.844,0.961c0.786,0,1.391-0.309,1.813-0.926
				s0.636-1.517,0.641-2.699V710.156z"/>
			<path fill="#4D4D4F" d="M1015.573,716.101h-2.344l-4.563-7.484v7.484h-2.344v-11.375h2.344l4.57,7.5v-7.5h2.336V716.101z"/>
			<path fill="#4D4D4F" d="M1026.62,714.664c-0.422,0.505-1.019,0.897-1.789,1.176s-1.625,0.418-2.563,0.418
				c-0.984,0-1.848-0.215-2.59-0.645s-1.315-1.054-1.719-1.871s-0.61-1.778-0.621-2.883v-0.773c0-1.136,0.191-2.118,0.574-2.949
				s0.935-1.466,1.656-1.906s1.566-0.66,2.535-0.66c1.349,0,2.403,0.321,3.164,0.965s1.211,1.579,1.352,2.809h-2.281
				c-0.104-0.651-0.335-1.128-0.691-1.43s-0.848-0.453-1.473-0.453c-0.797,0-1.403,0.3-1.82,0.898s-0.628,1.489-0.633,2.672v0.727
				c0,1.192,0.227,2.094,0.68,2.703s1.117,0.914,1.992,0.914c0.88,0,1.508-0.188,1.883-0.563v-1.961h-2.133v-1.727h4.477V714.664z"
				/>
			<path fill="#4D4D4F" d="M1032.729,711.937h-1.867v4.164h-2.344v-11.375h4.227c1.344,0,2.38,0.3,3.109,0.898
				s1.094,1.445,1.094,2.539c0,0.776-0.168,1.423-0.504,1.941s-0.845,0.931-1.527,1.238l2.461,4.648v0.109h-2.516L1032.729,711.937z
				 M1030.862,710.039h1.891c0.589,0,1.044-0.149,1.367-0.449s0.484-0.712,0.484-1.238c0-0.536-0.152-0.958-0.457-1.266
				s-0.772-0.461-1.402-0.461h-1.883V710.039z"/>
			<path fill="#4D4D4F" d="M1045.573,711.171h-4.5v3.047h5.281v1.883h-7.625v-11.375h7.609v1.898h-5.266v2.711h4.5V711.171z"/>
			<path fill="#4D4D4F" d="M1053.628,713.117c0-0.442-0.156-0.782-0.469-1.02s-0.875-0.487-1.688-0.75s-1.456-0.522-1.93-0.777
				c-1.292-0.698-1.938-1.638-1.938-2.82c0-0.614,0.173-1.163,0.52-1.645s0.844-0.858,1.492-1.129s1.376-0.406,2.184-0.406
				c0.813,0,1.536,0.147,2.172,0.441s1.129,0.71,1.48,1.246s0.527,1.146,0.527,1.828h-2.344c0-0.521-0.164-0.926-0.492-1.215
				s-0.789-0.434-1.383-0.434c-0.573,0-1.019,0.121-1.336,0.363s-0.477,0.562-0.477,0.957c0,0.37,0.187,0.68,0.559,0.93
				s0.921,0.484,1.645,0.703c1.333,0.401,2.305,0.898,2.914,1.492s0.914,1.333,0.914,2.219c0,0.984-0.372,1.757-1.117,2.316
				s-1.747,0.84-3.008,0.84c-0.875,0-1.672-0.16-2.391-0.48s-1.267-0.759-1.645-1.316s-0.566-1.203-0.566-1.938h2.352
				c0,1.255,0.75,1.883,2.25,1.883c0.558,0,0.992-0.113,1.305-0.34S1053.628,713.523,1053.628,713.117z"/>
			<path fill="#4D4D4F" d="M1066.909,710.671c0,1.12-0.198,2.102-0.594,2.945s-0.962,1.495-1.699,1.953s-1.582,0.688-2.535,0.688
				c-0.942,0-1.784-0.227-2.523-0.68s-1.313-1.101-1.719-1.941s-0.612-1.809-0.617-2.902v-0.563c0-1.12,0.202-2.105,0.605-2.957
				s0.974-1.505,1.711-1.961s1.579-0.684,2.527-0.684s1.79,0.228,2.527,0.684s1.308,1.109,1.711,1.961s0.605,1.835,0.605,2.949
				V710.671z M1064.534,710.156c0-1.192-0.214-2.099-0.641-2.719s-1.036-0.93-1.828-0.93c-0.786,0-1.394,0.306-1.82,0.918
				s-0.644,1.509-0.648,2.691v0.555c0,1.161,0.214,2.063,0.641,2.703s1.042,0.961,1.844,0.961c0.786,0,1.391-0.309,1.813-0.926
				s0.636-1.517,0.641-2.699V710.156z"/>
			<path fill="#4D4D4F" d="M1077.472,712.82l1.531-8.094h2.336l-2.523,11.375h-2.359l-1.852-7.609l-1.852,7.609h-2.359
				l-2.523-11.375h2.336l1.539,8.078l1.875-8.078h1.984L1077.472,712.82z"/>
			<path fill="#4D4D4F" d="M1088.69,713.757h-4.109l-0.781,2.344h-2.492l4.234-11.375h2.172l4.258,11.375h-2.492L1088.69,713.757z
				 M1085.214,711.859h2.844l-1.43-4.258L1085.214,711.859z"/>
			<path fill="#4D4D4F" d="M962.987,728.312c-0.089,1.224-0.54,2.188-1.355,2.891s-1.89,1.055-3.223,1.055
				c-1.458,0-2.605-0.491-3.441-1.473s-1.254-2.329-1.254-4.043v-0.695c0-1.094,0.192-2.058,0.578-2.891s0.937-1.473,1.652-1.918
				s1.548-0.668,2.496-0.668c1.313,0,2.37,0.352,3.172,1.055s1.266,1.69,1.391,2.961h-2.344c-0.058-0.734-0.262-1.267-0.613-1.598
				s-0.887-0.496-1.605-0.496c-0.781,0-1.366,0.28-1.754,0.84s-0.587,1.429-0.598,2.605v0.859c0,1.229,0.187,2.128,0.559,2.695
				s0.96,0.852,1.762,0.852c0.724,0,1.265-0.165,1.621-0.496s0.562-0.843,0.613-1.535H962.987z"/>
			<path fill="#4D4D4F" d="M973.87,726.671c0,1.12-0.198,2.102-0.594,2.945s-0.962,1.495-1.699,1.953s-1.582,0.688-2.535,0.688
				c-0.942,0-1.784-0.227-2.523-0.68s-1.313-1.101-1.719-1.941s-0.612-1.809-0.617-2.902v-0.563c0-1.12,0.202-2.105,0.605-2.957
				s0.974-1.505,1.711-1.961s1.579-0.684,2.527-0.684s1.79,0.228,2.527,0.684s1.308,1.109,1.711,1.961s0.605,1.835,0.605,2.949
				V726.671z M971.495,726.156c0-1.192-0.214-2.099-0.641-2.719s-1.036-0.93-1.828-0.93c-0.786,0-1.394,0.306-1.82,0.918
				s-0.644,1.509-0.648,2.691v0.555c0,1.161,0.214,2.063,0.641,2.703s1.042,0.961,1.844,0.961c0.786,0,1.391-0.309,1.813-0.926
				s0.636-1.517,0.641-2.699V726.156z"/>
			<path fill="#4D4D4F" d="M984.823,732.101h-2.344l-4.563-7.484v7.484h-2.344v-11.375h2.344l4.57,7.5v-7.5h2.336V732.101z"/>
			<path fill="#4D4D4F" d="M995.87,730.664c-0.422,0.505-1.019,0.897-1.789,1.176s-1.625,0.418-2.563,0.418
				c-0.984,0-1.848-0.215-2.59-0.645s-1.315-1.054-1.719-1.871s-0.61-1.778-0.621-2.883v-0.773c0-1.136,0.191-2.118,0.574-2.949
				s0.935-1.466,1.656-1.906s1.566-0.66,2.535-0.66c1.349,0,2.403,0.321,3.164,0.965s1.211,1.579,1.352,2.809h-2.281
				c-0.104-0.651-0.335-1.128-0.691-1.43s-0.848-0.453-1.473-0.453c-0.797,0-1.403,0.3-1.82,0.898s-0.628,1.489-0.633,2.672v0.727
				c0,1.192,0.227,2.094,0.68,2.703s1.117,0.914,1.992,0.914c0.88,0,1.508-0.188,1.883-0.563v-1.961h-2.133v-1.727h4.477V730.664z"
				/>
			<path fill="#4D4D4F" d="M1001.979,727.937h-1.867v4.164h-2.344v-11.375h4.227c1.344,0,2.38,0.3,3.109,0.898
				s1.094,1.445,1.094,2.539c0,0.776-0.168,1.423-0.504,1.941s-0.845,0.931-1.527,1.238l2.461,4.648v0.109h-2.516L1001.979,727.937z
				 M1000.112,726.039h1.891c0.589,0,1.044-0.149,1.367-0.449s0.484-0.712,0.484-1.238c0-0.536-0.152-0.958-0.457-1.266
				s-0.772-0.461-1.402-0.461h-1.883V726.039z"/>
			<path fill="#4D4D4F" d="M1014.823,727.171h-4.5v3.047h5.281v1.883h-7.625v-11.375h7.609v1.898h-5.266v2.711h4.5V727.171z"/>
			<path fill="#4D4D4F" d="M1022.878,729.117c0-0.442-0.156-0.782-0.469-1.02s-0.875-0.487-1.688-0.75s-1.456-0.522-1.93-0.777
				c-1.292-0.698-1.938-1.638-1.938-2.82c0-0.614,0.173-1.163,0.52-1.645s0.844-0.858,1.492-1.129s1.376-0.406,2.184-0.406
				c0.813,0,1.536,0.147,2.172,0.441s1.129,0.71,1.48,1.246s0.527,1.146,0.527,1.828h-2.344c0-0.521-0.164-0.926-0.492-1.215
				s-0.789-0.434-1.383-0.434c-0.573,0-1.019,0.121-1.336,0.363s-0.477,0.562-0.477,0.957c0,0.37,0.187,0.68,0.559,0.93
				s0.921,0.484,1.645,0.703c1.333,0.401,2.305,0.898,2.914,1.492s0.914,1.333,0.914,2.219c0,0.984-0.372,1.757-1.117,2.316
				s-1.747,0.84-3.008,0.84c-0.875,0-1.672-0.16-2.391-0.48s-1.267-0.759-1.645-1.316s-0.566-1.203-0.566-1.938h2.352
				c0,1.255,0.75,1.883,2.25,1.883c0.558,0,0.992-0.113,1.305-0.34S1022.878,729.523,1022.878,729.117z"/>
			<path fill="#4D4D4F" d="M1032.714,729.117c0-0.442-0.156-0.782-0.469-1.02s-0.875-0.487-1.688-0.75s-1.456-0.522-1.93-0.777
				c-1.292-0.698-1.938-1.638-1.938-2.82c0-0.614,0.173-1.163,0.52-1.645s0.844-0.858,1.492-1.129s1.376-0.406,2.184-0.406
				c0.813,0,1.536,0.147,2.172,0.441s1.129,0.71,1.48,1.246s0.527,1.146,0.527,1.828h-2.344c0-0.521-0.164-0.926-0.492-1.215
				s-0.789-0.434-1.383-0.434c-0.573,0-1.019,0.121-1.336,0.363s-0.477,0.562-0.477,0.957c0,0.37,0.187,0.68,0.559,0.93
				s0.921,0.484,1.645,0.703c1.333,0.401,2.305,0.898,2.914,1.492s0.914,1.333,0.914,2.219c0,0.984-0.372,1.757-1.117,2.316
				s-1.747,0.84-3.008,0.84c-0.875,0-1.672-0.16-2.391-0.48s-1.267-0.759-1.645-1.316s-0.566-1.203-0.566-1.938h2.352
				c0,1.255,0.75,1.883,2.25,1.883c0.558,0,0.992-0.113,1.305-0.34S1032.714,729.523,1032.714,729.117z"/>
			<path fill="#4D4D4F" d="M1049.894,732.101h-2.344v-4.875h-4.57v4.875h-2.344v-11.375h2.344v4.609h4.57v-4.609h2.344V732.101z"/>
			<path fill="#4D4D4F" d="M1058.503,729.757h-4.109l-0.781,2.344h-2.492l4.234-11.375h2.172l4.258,11.375h-2.492L1058.503,729.757z
				 M1055.026,727.859h2.844l-1.43-4.258L1055.026,727.859z"/>
			<path fill="#4D4D4F" d="M1065.19,730.218h4.977v1.883h-7.32v-11.375h2.344V730.218z"/>
			<path fill="#4D4D4F" d="M1073.854,730.218h4.977v1.883h-7.32v-11.375h2.344V730.218z"/>
		</g>
		<g>
			<path fill="#4D4D4F" d="M1031.767,669.973c0-2.643-2.144-4.785-4.786-4.785h-21.76c-2.643,0-4.786,2.143-4.786,4.785v21.76
				c0,2.645,2.144,4.787,4.786,4.787h21.76c2.643,0,4.786-2.143,4.786-4.787V669.973z"/>
			<g>
				<path fill="#FFFFFF" d="M1019.696,686.914h-7.191l-1.367,4.102h-4.361l7.41-19.906h3.801l7.451,19.906h-4.361L1019.696,686.914z
					 M1013.612,683.591h4.977l-2.502-7.451L1013.612,683.591z"/>
			</g>
		</g>
	</g>
	<g>
		<path fill="#4D4D4F" d="M1558.189,159.252c0-2.643-2.143-4.785-4.785-4.785h-198.807c-2.643,0-4.787,2.143-4.787,4.785v21.761
			c0,2.644,2.145,4.786,4.787,4.786h198.807c2.643,0,4.785-2.143,4.785-4.786V159.252z"/>
		<g>
			<g>
				<path fill="#FFFFFF" d="M1369.801,171.311h-1.867v4.164h-2.344V164.1h4.227c1.344,0,2.381,0.3,3.109,0.898
					s1.094,1.445,1.094,2.539c0,0.776-0.168,1.423-0.504,1.941s-0.846,0.931-1.527,1.238l2.461,4.648v0.109h-2.516L1369.801,171.311
					z M1367.934,169.413h1.891c0.588,0,1.045-0.149,1.367-0.449s0.484-0.712,0.484-1.238c0-0.536-0.152-0.958-0.457-1.266
					s-0.771-0.461-1.402-0.461h-1.883V169.413z"/>
				<path fill="#FFFFFF" d="M1382.645,170.545h-4.5v3.047h5.281v1.883h-7.625V164.1h7.609v1.898h-5.266v2.711h4.5V170.545z"/>
				<path fill="#FFFFFF" d="M1393.73,171.686c-0.088,1.224-0.541,2.188-1.355,2.891s-1.889,1.055-3.223,1.055
					c-1.459,0-2.605-0.491-3.441-1.473s-1.254-2.329-1.254-4.043v-0.695c0-1.094,0.193-2.058,0.578-2.891s0.936-1.473,1.652-1.918
					s1.549-0.668,2.496-0.668c1.313,0,2.369,0.352,3.172,1.055s1.266,1.69,1.391,2.961h-2.344c-0.057-0.734-0.262-1.267-0.613-1.598
					s-0.887-0.496-1.605-0.496c-0.781,0-1.365,0.28-1.754,0.84s-0.588,1.429-0.598,2.605v0.859c0,1.229,0.186,2.128,0.559,2.695
					s0.959,0.852,1.762,0.852c0.725,0,1.264-0.165,1.621-0.496s0.561-0.843,0.613-1.535H1393.73z"/>
				<path fill="#FFFFFF" d="M1402.113,170.545h-4.5v3.047h5.281v1.883h-7.625V164.1h7.609v1.898h-5.266v2.711h4.5V170.545z"/>
				<path fill="#FFFFFF" d="M1406.613,171.467v4.008h-2.344V164.1h4.438c0.854,0,1.605,0.156,2.254,0.469s1.146,0.757,1.496,1.332
					s0.523,1.23,0.523,1.965c0,1.114-0.381,1.993-1.145,2.637s-1.818,0.965-3.168,0.965H1406.613z M1406.613,169.569h2.094
					c0.619,0,1.092-0.146,1.418-0.438s0.488-0.708,0.488-1.25c0-0.558-0.164-1.008-0.492-1.352s-0.781-0.521-1.359-0.531h-2.148
					V169.569z"/>
				<path fill="#FFFFFF" d="M1423.52,171.686c-0.088,1.224-0.541,2.188-1.355,2.891s-1.889,1.055-3.223,1.055
					c-1.459,0-2.605-0.491-3.441-1.473s-1.254-2.329-1.254-4.043v-0.695c0-1.094,0.193-2.058,0.578-2.891s0.936-1.473,1.652-1.918
					s1.549-0.668,2.496-0.668c1.313,0,2.369,0.352,3.172,1.055s1.266,1.69,1.391,2.961h-2.344c-0.057-0.734-0.262-1.267-0.613-1.598
					s-0.887-0.496-1.605-0.496c-0.781,0-1.365,0.28-1.754,0.84s-0.588,1.429-0.598,2.605v0.859c0,1.229,0.186,2.128,0.559,2.695
					s0.959,0.852,1.762,0.852c0.725,0,1.264-0.165,1.621-0.496s0.561-0.843,0.613-1.535H1423.52z"/>
				<path fill="#FFFFFF" d="M1429.645,164.1h2.344v7.875c0,0.724-0.16,1.363-0.48,1.918s-0.771,0.983-1.355,1.285
					s-1.242,0.453-1.977,0.453c-1.203,0-2.141-0.306-2.813-0.918s-1.008-1.478-1.008-2.598h2.359c0,0.558,0.117,0.969,0.352,1.234
					s0.604,0.398,1.109,0.398c0.447,0,0.805-0.153,1.07-0.461s0.398-0.745,0.398-1.313V164.1z"/>
				<path fill="#FFFFFF" d="M1440.246,173.131h-4.109l-0.781,2.344h-2.492l4.234-11.375h2.172l4.258,11.375h-2.492L1440.246,173.131
					z M1436.77,171.233h2.844l-1.43-4.258L1436.77,171.233z"/>
				<path fill="#FFFFFF" d="M1449.137,176.452h-1.68l4.188-12.352h1.68L1449.137,176.452z"/>
				<path fill="#FFFFFF" d="M1462.746,171.311h-1.867v4.164h-2.344V164.1h4.227c1.344,0,2.381,0.3,3.109,0.898
					s1.094,1.445,1.094,2.539c0,0.776-0.168,1.423-0.504,1.941s-0.846,0.931-1.527,1.238l2.461,4.648v0.109h-2.516L1462.746,171.311
					z M1460.879,169.413h1.891c0.588,0,1.045-0.149,1.367-0.449s0.484-0.712,0.484-1.238c0-0.536-0.152-0.958-0.457-1.266
					s-0.771-0.461-1.402-0.461h-1.883V169.413z"/>
				<path fill="#FFFFFF" d="M1475.59,170.545h-4.5v3.047h5.281v1.883h-7.625V164.1h7.609v1.898h-5.266v2.711h4.5V170.545z"/>
				<path fill="#FFFFFF" d="M1486.676,171.686c-0.088,1.224-0.541,2.188-1.355,2.891s-1.889,1.055-3.223,1.055
					c-1.459,0-2.605-0.491-3.441-1.473s-1.254-2.329-1.254-4.043v-0.695c0-1.094,0.193-2.058,0.578-2.891s0.936-1.473,1.652-1.918
					s1.549-0.668,2.496-0.668c1.313,0,2.369,0.352,3.172,1.055s1.266,1.69,1.391,2.961h-2.344c-0.057-0.734-0.262-1.267-0.613-1.598
					s-0.887-0.496-1.605-0.496c-0.781,0-1.365,0.28-1.754,0.84s-0.588,1.429-0.598,2.605v0.859c0,1.229,0.186,2.128,0.559,2.695
					s0.959,0.852,1.762,0.852c0.725,0,1.264-0.165,1.621-0.496s0.561-0.843,0.613-1.535H1486.676z"/>
				<path fill="#FFFFFF" d="M1495.059,170.545h-4.5v3.047h5.281v1.883h-7.625V164.1h7.609v1.898h-5.266v2.711h4.5V170.545z"/>
				<path fill="#FFFFFF" d="M1499.559,171.467v4.008h-2.344V164.1h4.438c0.854,0,1.605,0.156,2.254,0.469s1.146,0.757,1.496,1.332
					s0.523,1.23,0.523,1.965c0,1.114-0.381,1.993-1.145,2.637s-1.818,0.965-3.168,0.965H1499.559z M1499.559,169.569h2.094
					c0.619,0,1.092-0.146,1.418-0.438s0.488-0.708,0.488-1.25c0-0.558-0.164-1.008-0.492-1.352s-0.781-0.521-1.359-0.531h-2.148
					V169.569z"/>
				<path fill="#FFFFFF" d="M1516.098,165.999h-3.484v9.477h-2.344v-9.477h-3.438V164.1h9.266V165.999z"/>
				<path fill="#FFFFFF" d="M1519.926,175.475h-2.344V164.1h2.344V175.475z"/>
				<path fill="#FFFFFF" d="M1531.441,170.045c0,1.12-0.197,2.102-0.594,2.945s-0.963,1.495-1.699,1.953s-1.582,0.688-2.535,0.688
					c-0.943,0-1.783-0.227-2.523-0.68s-1.313-1.101-1.719-1.941s-0.611-1.809-0.617-2.902v-0.563c0-1.12,0.201-2.105,0.605-2.957
					s0.975-1.505,1.711-1.961s1.58-0.684,2.527-0.684s1.791,0.228,2.527,0.684s1.307,1.109,1.711,1.961s0.605,1.835,0.605,2.949
					V170.045z M1529.066,169.53c0-1.192-0.213-2.099-0.641-2.719s-1.037-0.93-1.828-0.93c-0.787,0-1.393,0.306-1.82,0.918
					s-0.643,1.509-0.648,2.691v0.555c0,1.161,0.213,2.063,0.641,2.703s1.041,0.961,1.844,0.961c0.787,0,1.391-0.309,1.813-0.926
					s0.635-1.517,0.641-2.699V169.53z"/>
				<path fill="#FFFFFF" d="M1542.395,175.475h-2.344l-4.563-7.484v7.484h-2.344V164.1h2.344l4.57,7.5v-7.5h2.336V175.475z"/>
			</g>
		</g>
	</g>
	<g>
		<path fill="#4D4D4F" d="M1094.854,159.252c0-2.643-2.143-4.785-4.785-4.785H891.262c-2.643,0-4.787,2.143-4.787,4.785v21.761
			c0,2.644,2.145,4.786,4.787,4.786h198.807c2.643,0,4.785-2.143,4.785-4.786V159.252z"/>
		<g>
			<g>
				<path fill="#FFFFFF" d="M909.113,172.491c0-0.442-0.156-0.782-0.469-1.02s-0.875-0.487-1.688-0.75s-1.456-0.522-1.93-0.777
					c-1.292-0.698-1.938-1.638-1.938-2.82c0-0.614,0.173-1.163,0.52-1.645s0.844-0.858,1.492-1.129s1.376-0.406,2.184-0.406
					c0.813,0,1.537,0.147,2.172,0.441s1.129,0.71,1.48,1.246s0.527,1.146,0.527,1.828h-2.344c0-0.521-0.164-0.926-0.492-1.215
					s-0.789-0.434-1.383-0.434c-0.573,0-1.018,0.121-1.336,0.363s-0.477,0.562-0.477,0.957c0,0.37,0.186,0.68,0.559,0.93
					s0.92,0.484,1.645,0.703c1.334,0.401,2.305,0.898,2.914,1.492s0.914,1.333,0.914,2.219c0,0.984-0.373,1.757-1.117,2.316
					s-1.748,0.84-3.008,0.84c-0.875,0-1.672-0.16-2.391-0.48s-1.267-0.759-1.645-1.316s-0.566-1.203-0.566-1.938h2.352
					c0,1.255,0.75,1.883,2.25,1.883c0.557,0,0.992-0.113,1.305-0.34S909.113,172.897,909.113,172.491z"/>
				<path fill="#FFFFFF" d="M915.535,173.592h5.734v1.883h-8.664V174.1l5.625-8.102h-5.617V164.1h8.531v1.344L915.535,173.592z"/>
				<path fill="#FFFFFF" d="M929.27,173.131h-4.109l-0.781,2.344h-2.492l4.234-11.375h2.172l4.258,11.375h-2.492L929.27,173.131z
					 M925.793,171.233h2.844l-1.43-4.258L925.793,171.233z"/>
				<path fill="#FFFFFF" d="M941.238,165.999h-3.484v9.477h-2.344v-9.477h-3.438V164.1h9.266V165.999z"/>
				<path fill="#FFFFFF" d="M951.824,175.475h-2.344l-4.563-7.484v7.484h-2.344V164.1h2.344l4.57,7.5v-7.5h2.336V175.475z"/>
				<path fill="#FFFFFF" d="M956.363,175.475h-2.344V164.1h2.344V175.475z"/>
				<path fill="#FFFFFF" d="M965.098,173.131h-4.109l-0.781,2.344h-2.492l4.234-11.375h2.172l4.258,11.375h-2.492L965.098,173.131z
					 M961.621,171.233h2.844l-1.43-4.258L961.621,171.233z"/>
				<path fill="#FFFFFF" d="M973.988,176.452h-1.68l4.188-12.352h1.68L973.988,176.452z"/>
				<path fill="#FFFFFF" d="M992.316,171.686c-0.088,1.224-0.541,2.188-1.355,2.891s-1.889,1.055-3.223,1.055
					c-1.459,0-2.605-0.491-3.441-1.473s-1.254-2.329-1.254-4.043v-0.695c0-1.094,0.193-2.058,0.578-2.891s0.936-1.473,1.652-1.918
					s1.549-0.668,2.496-0.668c1.313,0,2.369,0.352,3.172,1.055s1.266,1.69,1.391,2.961h-2.344c-0.057-0.734-0.262-1.267-0.613-1.598
					s-0.887-0.496-1.605-0.496c-0.781,0-1.365,0.28-1.754,0.84s-0.588,1.429-0.598,2.605v0.859c0,1.229,0.186,2.128,0.559,2.695
					s0.959,0.852,1.762,0.852c0.725,0,1.264-0.165,1.621-0.496s0.561-0.843,0.613-1.535H992.316z"/>
				<path fill="#FFFFFF" d="M996.199,173.592h4.977v1.883h-7.32V164.1h2.344V173.592z"/>
				<path fill="#FFFFFF" d="M1011.363,170.045c0,1.12-0.197,2.102-0.594,2.945s-0.963,1.495-1.699,1.953s-1.582,0.688-2.535,0.688
					c-0.943,0-1.783-0.227-2.523-0.68s-1.313-1.101-1.719-1.941s-0.611-1.809-0.617-2.902v-0.563c0-1.12,0.201-2.105,0.605-2.957
					s0.975-1.505,1.711-1.961s1.58-0.684,2.527-0.684s1.791,0.228,2.527,0.684s1.307,1.109,1.711,1.961s0.605,1.835,0.605,2.949
					V170.045z M1008.988,169.53c0-1.192-0.213-2.099-0.641-2.719s-1.037-0.93-1.828-0.93c-0.787,0-1.393,0.306-1.82,0.918
					s-0.643,1.509-0.648,2.691v0.555c0,1.161,0.213,2.063,0.641,2.703s1.041,0.961,1.844,0.961c0.787,0,1.391-0.309,1.813-0.926
					s0.635-1.517,0.641-2.699V169.53z"/>
				<path fill="#FFFFFF" d="M1019.324,173.131h-4.109l-0.781,2.344h-2.492l4.234-11.375h2.172l4.258,11.375h-2.492L1019.324,173.131
					z M1015.848,171.233h2.844l-1.43-4.258L1015.848,171.233z"/>
				<path fill="#FFFFFF" d="M1027.23,170.913l-1.219,1.313v3.25h-2.344V164.1h2.344v5.156l1.031-1.414l2.898-3.742h2.883
					l-4.039,5.055l4.156,6.32h-2.789L1027.23,170.913z"/>
				<path fill="#FFFFFF" d="M1038.035,171.311h-1.867v4.164h-2.344V164.1h4.227c1.344,0,2.381,0.3,3.109,0.898
					s1.094,1.445,1.094,2.539c0,0.776-0.168,1.423-0.504,1.941s-0.846,0.931-1.527,1.238l2.461,4.648v0.109h-2.516L1038.035,171.311
					z M1036.168,169.413h1.891c0.588,0,1.045-0.149,1.367-0.449s0.484-0.712,0.484-1.238c0-0.536-0.152-0.958-0.457-1.266
					s-0.771-0.461-1.402-0.461h-1.883V169.413z"/>
				<path fill="#FFFFFF" d="M1053.379,170.045c0,1.12-0.197,2.102-0.594,2.945s-0.963,1.495-1.699,1.953s-1.582,0.688-2.535,0.688
					c-0.943,0-1.783-0.227-2.523-0.68s-1.313-1.101-1.719-1.941s-0.611-1.809-0.617-2.902v-0.563c0-1.12,0.201-2.105,0.605-2.957
					s0.975-1.505,1.711-1.961s1.58-0.684,2.527-0.684s1.791,0.228,2.527,0.684s1.307,1.109,1.711,1.961s0.605,1.835,0.605,2.949
					V170.045z M1051.004,169.53c0-1.192-0.213-2.099-0.641-2.719s-1.037-0.93-1.828-0.93c-0.787,0-1.393,0.306-1.82,0.918
					s-0.643,1.509-0.648,2.691v0.555c0,1.161,0.213,2.063,0.641,2.703s1.041,0.961,1.844,0.961c0.787,0,1.391-0.309,1.813-0.926
					s0.635-1.517,0.641-2.699V169.53z"/>
				<path fill="#FFFFFF" d="M1064.426,170.045c0,1.12-0.197,2.102-0.594,2.945s-0.963,1.495-1.699,1.953s-1.582,0.688-2.535,0.688
					c-0.943,0-1.783-0.227-2.523-0.68s-1.313-1.101-1.719-1.941s-0.611-1.809-0.617-2.902v-0.563c0-1.12,0.201-2.105,0.605-2.957
					s0.975-1.505,1.711-1.961s1.58-0.684,2.527-0.684s1.791,0.228,2.527,0.684s1.307,1.109,1.711,1.961s0.605,1.835,0.605,2.949
					V170.045z M1062.051,169.53c0-1.192-0.213-2.099-0.641-2.719s-1.037-0.93-1.828-0.93c-0.787,0-1.393,0.306-1.82,0.918
					s-0.643,1.509-0.648,2.691v0.555c0,1.161,0.213,2.063,0.641,2.703s1.041,0.961,1.844,0.961c0.787,0,1.391-0.309,1.813-0.926
					s0.635-1.517,0.641-2.699V169.53z"/>
				<path fill="#FFFFFF" d="M1069.191,164.1l2.922,8.25l2.906-8.25h3.078v11.375h-2.352v-3.109l0.234-5.367l-3.07,8.477h-1.609
					l-3.063-8.469l0.234,5.359v3.109h-2.344V164.1H1069.191z"/>
			</g>
		</g>
	</g>
	<path fill="#4D4D4F" d="M1797.226,693.67c-2.642,0-4.784,2.143-4.784,4.785v158.807c0,2.643,2.143,4.787,4.784,4.787h37.762
		c2.644,0,4.786-2.145,4.786-4.787V698.456c0-2.643-2.143-4.785-4.786-4.785H1797.226z"/>
	<g>
		<g>
			<path fill="#FFFFFF" d="M1810.166,835.504l-8.094-1.531v-2.336l11.375,2.523v2.359l-7.609,1.852l7.609,1.852v2.359l-11.375,2.523
				v-2.336l8.078-1.539l-8.078-1.875v-1.984L1810.166,835.504z"/>
			<path fill="#FFFFFF" d="M1808.518,823.528v4.5h3.047v-5.281h1.883v7.625h-11.375v-7.609h1.898v5.266h2.711v-4.5H1808.518z"/>
			<path fill="#FFFFFF" d="M1802.072,816.786v-2.344h7.875c0.724,0,1.363,0.16,1.918,0.48s0.983,0.771,1.285,1.355
				s0.453,1.242,0.453,1.977c0,1.203-0.306,2.141-0.918,2.813s-1.478,1.008-2.598,1.008v-2.359c0.558,0,0.969-0.117,1.234-0.352
				s0.398-0.604,0.398-1.109c0-0.447-0.153-0.805-0.461-1.07s-0.745-0.398-1.313-0.398H1802.072z"/>
			<path fill="#FFFFFF" d="M1799.025,807.934v-2.461l2.422,2.164v1.836L1799.025,807.934z M1810.463,806.536
				c-0.442,0-0.782,0.156-1.02,0.469s-0.487,0.875-0.75,1.688s-0.522,1.455-0.777,1.93c-0.698,1.291-1.638,1.938-2.82,1.938
				c-0.614,0-1.163-0.174-1.645-0.52s-0.858-0.844-1.129-1.492s-0.406-1.377-0.406-2.184c0-0.813,0.147-1.537,0.441-2.172
				s0.71-1.129,1.246-1.48s1.146-0.527,1.828-0.527v2.344c-0.521,0-0.926,0.164-1.215,0.492s-0.434,0.789-0.434,1.383
				c0,0.572,0.121,1.018,0.363,1.336s0.562,0.477,0.957,0.477c0.37,0,0.68-0.186,0.93-0.559s0.484-0.92,0.703-1.645
				c0.401-1.334,0.898-2.305,1.492-2.914s1.333-0.914,2.219-0.914c0.984,0,1.757,0.373,2.316,1.117s0.84,1.748,0.84,3.008
				c0,0.875-0.16,1.672-0.48,2.391s-0.759,1.268-1.316,1.645s-1.203,0.566-1.938,0.566v-2.352c1.255,0,1.883-0.75,1.883-2.25
				c0-0.557-0.113-0.992-0.34-1.305S1810.869,806.536,1810.463,806.536z"/>
			<path fill="#FFFFFF" d="M1809.658,793.668c1.224,0.088,2.188,0.541,2.891,1.355s1.055,1.889,1.055,3.223
				c0,1.459-0.491,2.605-1.473,3.441s-2.329,1.254-4.043,1.254h-0.695c-1.094,0-2.058-0.193-2.891-0.578s-1.473-0.936-1.918-1.652
				s-0.668-1.549-0.668-2.496c0-1.313,0.352-2.369,1.055-3.172s1.69-1.266,2.961-1.391v2.344c-0.734,0.057-1.267,0.262-1.598,0.613
				s-0.496,0.887-0.496,1.605c0,0.781,0.28,1.365,0.84,1.754s1.429,0.588,2.605,0.598h0.859c1.229,0,2.128-0.186,2.695-0.559
				s0.852-0.959,0.852-1.762c0-0.725-0.165-1.264-0.496-1.621s-0.843-0.561-1.535-0.613V793.668z"/>
			<path fill="#FFFFFF" d="M1813.447,789.637v2.344h-11.375v-2.344H1813.447z"/>
			<path fill="#FFFFFF" d="M1808.518,780.622v4.5h3.047v-5.281h1.883v7.625h-11.375v-7.609h1.898v5.266h2.711v-4.5H1808.518z"/>
			<path fill="#FFFFFF" d="M1812.01,765.481c0.505,0.422,0.897,1.018,1.176,1.789s0.418,1.625,0.418,2.563
				c0,0.984-0.215,1.848-0.645,2.59s-1.054,1.314-1.871,1.719s-1.778,0.611-2.883,0.621h-0.773c-1.136,0-2.118-0.191-2.949-0.574
				s-1.466-0.936-1.906-1.656s-0.66-1.566-0.66-2.535c0-1.35,0.321-2.404,0.965-3.164s1.579-1.211,2.809-1.352v2.281
				c-0.651,0.104-1.128,0.334-1.43,0.691s-0.453,0.848-0.453,1.473c0,0.797,0.3,1.404,0.898,1.82s1.489,0.627,2.672,0.633h0.727
				c1.192,0,2.094-0.227,2.703-0.68s0.914-1.117,0.914-1.992c0-0.881-0.188-1.508-0.563-1.883h-1.961v2.133h-1.727v-4.477H1812.01z"
				/>
			<path fill="#FFFFFF" d="M1806.455,760.981l-0.484-1.68h1.297l0.484,1.68h3.813v-4.977h1.883v7.32h-5.016l0.297,1.047h-1.297
				l-0.297-1.047h-5.063v-2.344H1806.455z"/>
			<path fill="#FFFFFF" d="M1799.025,749.708v-2.461l2.422,2.164v1.836L1799.025,749.708z M1808.018,745.317
				c1.12,0,2.102,0.197,2.945,0.594s1.495,0.963,1.953,1.699s0.688,1.582,0.688,2.535c0,0.943-0.227,1.783-0.68,2.523
				s-1.101,1.313-1.941,1.719s-1.809,0.611-2.902,0.617h-0.563c-1.12,0-2.105-0.201-2.957-0.605s-1.505-0.975-1.961-1.711
				s-0.684-1.58-0.684-2.527s0.228-1.791,0.684-2.527s1.109-1.307,1.961-1.711s1.835-0.605,2.949-0.605H1808.018z M1807.502,747.692
				c-1.192,0-2.099,0.213-2.719,0.641s-0.93,1.037-0.93,1.828c0,0.787,0.306,1.393,0.918,1.82s1.509,0.643,2.691,0.648h0.555
				c1.161,0,2.063-0.213,2.703-0.641s0.961-1.041,0.961-1.844c0-0.787-0.309-1.391-0.926-1.813s-1.517-0.635-2.699-0.641H1807.502z"
				/>
			<path fill="#FFFFFF" d="M1810.166,734.754l-8.094-1.531v-2.336l11.375,2.523v2.359l-7.609,1.852l7.609,1.852v2.359l-11.375,2.523
				v-2.336l8.078-1.539l-8.078-1.875v-1.984L1810.166,734.754z"/>
			<path fill="#FFFFFF" d="M1813.447,720.372v2.344l-7.484,4.563h7.484v2.344h-11.375v-2.344l7.5-4.57h-7.5v-2.336H1813.447z"/>
			<path fill="#FFFFFF" d="M1808.518,711.481v4.5h3.047V710.7h1.883v7.625h-11.375v-7.609h1.898v5.266h2.711v-4.5H1808.518z"/>
			<path fill="#FFFFFF" d="M1818.072,837.071l8.25-2.922l-8.25-2.906v-3.078h11.375v2.352h-3.109l-5.367-0.234l8.477,3.07v1.609
				l-8.469,3.063l5.359-0.234h3.109v2.344h-11.375V837.071z"/>
			<path fill="#FFFFFF" d="M1827.104,819.555v4.109l2.344,0.781v2.492l-11.375-4.234v-2.172l11.375-4.258v2.492L1827.104,819.555z
				 M1825.205,823.032v-2.844l-4.258,1.43L1825.205,823.032z"/>
			<path fill="#FFFFFF" d="M1829.447,812.719v2.344h-11.375v-2.344H1829.447z"/>
			<path fill="#FFFFFF" d="M1829.447,801.297v2.344l-7.484,4.563h7.484v2.344h-11.375v-2.344l7.5-4.57h-7.5v-2.336H1829.447z"/>
			<path fill="#FFFFFF" d="M1824.518,788.422v4.5h3.047v-5.281h1.883v7.625h-11.375v-7.609h1.898v5.266h2.711v-4.5H1824.518z"/>
			<path fill="#FFFFFF" d="M1829.447,777.016v2.344l-7.484,4.563h7.484v2.344h-11.375v-2.344l7.5-4.57h-7.5v-2.336H1829.447z"/>
			<path fill="#FFFFFF" d="M1819.971,766.633v3.484h9.477v2.344h-9.477v3.438h-1.898v-9.266H1819.971z"/>
			<path fill="#FFFFFF" d="M1825.283,761.086v1.867h4.164v2.344h-11.375v-4.227c0-1.344,0.3-2.381,0.898-3.109
				s1.445-1.094,2.539-1.094c0.776,0,1.423,0.168,1.941,0.504s0.931,0.846,1.238,1.527l4.648-2.461h0.109v2.516L1825.283,761.086z
				 M1823.385,762.954v-1.891c0-0.588-0.149-1.045-0.449-1.367s-0.712-0.484-1.238-0.484c-0.536,0-0.958,0.152-1.266,0.457
				s-0.461,0.771-0.461,1.402v1.883H1823.385z"/>
			<path fill="#FFFFFF" d="M1827.104,748.665v4.109l2.344,0.781v2.492l-11.375-4.234v-2.172l11.375-4.258v2.492L1827.104,748.665z
				 M1825.205,752.141v-2.844l-4.258,1.43L1825.205,752.141z"/>
			<path fill="#FFFFFF" d="M1829.447,735.071v2.344l-7.484,4.563h7.484v2.344h-11.375v-2.344l7.5-4.57h-7.5v-2.336H1829.447z"/>
			<path fill="#FFFFFF" d="M1825.658,724.094c1.224,0.088,2.188,0.541,2.891,1.355s1.055,1.889,1.055,3.223
				c0,1.459-0.491,2.605-1.473,3.441s-2.329,1.254-4.043,1.254h-0.695c-1.094,0-2.058-0.193-2.891-0.578s-1.473-0.936-1.918-1.652
				s-0.668-1.549-0.668-2.496c0-1.313,0.352-2.369,1.055-3.172s1.69-1.266,2.961-1.391v2.344c-0.734,0.057-1.267,0.262-1.598,0.613
				s-0.496,0.887-0.496,1.605c0,0.781,0.28,1.365,0.84,1.754s1.429,0.588,2.605,0.598h0.859c1.229,0,2.128-0.186,2.695-0.559
				s0.852-0.959,0.852-1.762c0-0.725-0.165-1.264-0.496-1.621s-0.843-0.561-1.535-0.613V724.094z"/>
			<path fill="#FFFFFF" d="M1824.518,715.711v4.5h3.047v-5.281h1.883v7.625h-11.375v-7.609h1.898v5.266h2.711v-4.5H1824.518z"/>
		</g>
	</g>
</g>
</svg>
