<?xml version="1.0" encoding="utf-8"?>
<!-- Generator: Adobe Illustrator 15.0.0, SVG Export Plug-In . SVG Version: 6.00 Build 0)  -->
<!DOCTYPE svg PUBLIC "-//W3C//DTD SVG 1.1//EN" "http://www.w3.org/Graphics/SVG/1.1/DTD/svg11.dtd">
<svg version="1.1" xmlns="http://www.w3.org/2000/svg" xmlns:xlink="http://www.w3.org/1999/xlink" x="0px" y="0px" width="1876px"
	 height="1202.94px" viewBox="0 0 1876 1202.94" enable-background="new 0 0 1876 1202.94" xml:space="preserve">
<symbol  id="drzwi" viewBox="-19.209 -18.761 38.417 37.521">
	<path fill="none" stroke="#B7B0B3" stroke-width="2" stroke-miterlimit="10" d="M-16.313,17.761
		c0-19.618,15.902-35.521,35.521-35.521"/>
	<line fill="none" stroke="#6D636A" stroke-width="2" stroke-miterlimit="10" x1="19.208" y1="17.761" x2="-19.209" y2="17.761"/>
</symbol>
<g id="kolory_sal">
	<rect x="1541.8" y="1008.575" fill="#C4E3C3" width="291.175" height="171.694"/>
	<rect x="770.827" y="24.778" fill="#FBCFD0" width="439.673" height="113.449"/>
	<rect x="1275" y="24.778" fill="#C7C6C6" width="358" height="113.449"/>
	<path fill="#D3D4E5" d="M1319.313,482.065l-53.33-53.331l-21.098,25.367l-44.949-47.033c0,0-12.623-15.767-51.623-15.767
		s-312.143,0-312.143,0s-29.857-1.968-55.857,25.032s-38.5,38.5-38.5,38.5l-21.202-21.202l-48.865,48.865l24.56,24.56
		c0,0-41.711,26.992-41.711,73.326s0,203.167,0,203.167s-5.427,42.666,21.74,69.166S757,939.05,757,939.05l-5.057,5.166
		l-43.776,1.669h-37.833l-9.434,4.165v56.602h135.268l43.667-72.102l115.5,0.166h98.834l95.667,0.834l6.666,6.666l27,28.667
		l27.833,34l68.833,1.769h38.879v-60.767H1222.5l43.166-41.002l43.834-45.667c0,0,26-11.833,26-84.5s-1.834-193.667-1.834-193.667
		s-2.667-29.166-10.5-43.666c-7.833-14.5-28.056-33.854-28.056-33.854L1319.313,482.065z"/>
</g>
<g id="kontury">
	<g>
		
			<use xlink:href="#drzwi"  width="38.417" height="37.521" x="-19.209" y="-18.761" transform="matrix(0 1.0395 1.0395 0 1012.543 914.4165)" overflow="visible"/>
		
			<use xlink:href="#drzwi"  width="38.417" height="37.521" x="-19.209" y="-18.761" transform="matrix(0 1.0395 -1.0395 0 975.4609 914.4165)" overflow="visible"/>
	</g>
	<g>
		
			<use xlink:href="#drzwi"  width="38.417" height="37.521" x="-19.209" y="-18.761" transform="matrix(0 0.7042 0.7042 0 1645.7578 994.8267)" overflow="visible"/>
		
			<use xlink:href="#drzwi"  width="38.417" height="37.521" x="-19.209" y="-18.761" transform="matrix(0 0.7042 -0.7042 0 1620.6377 994.8267)" overflow="visible"/>
	</g>
	
		<use xlink:href="#drzwi"  width="38.417" height="37.521" x="-19.209" y="-18.761" transform="matrix(0 0.8839 -0.8839 0 1489.0723 770.5903)" overflow="visible"/>
	
		<use xlink:href="#drzwi"  width="38.417" height="37.521" x="-19.209" y="-18.761" transform="matrix(0 -0.8839 -0.8839 0 1489.0723 864.7485)" overflow="visible"/>
	
		<use xlink:href="#drzwi"  width="38.417" height="37.521" x="-19.209" y="-18.761" transform="matrix(-0.8839 0 0 0.8839 1482.0615 811.3667)" overflow="visible"/>
	
		<use xlink:href="#drzwi"  width="38.417" height="37.521" x="-19.209" y="-18.761" transform="matrix(-0.6441 0 0 0.6441 1477.501 895.6528)" overflow="visible"/>
	
		<use xlink:href="#drzwi"  width="38.417" height="37.521" x="-19.209" y="-18.761" transform="matrix(-0.7418 0 0 -0.7418 1479.2344 716.2104)" overflow="visible"/>
	
		<use xlink:href="#drzwi"  width="38.417" height="37.521" x="-19.209" y="-18.761" transform="matrix(-0.6072 0 0 0.6072 1433.2285 712.4644)" overflow="visible"/>
	<g>
		
			<use xlink:href="#drzwi"  width="38.417" height="37.521" x="-19.209" y="-18.761" transform="matrix(0 0.3961 0.3961 0 1528.3945 1000.7446)" overflow="visible"/>
		
			<use xlink:href="#drzwi"  width="38.417" height="37.521" x="-19.209" y="-18.761" transform="matrix(0 0.3961 -0.3961 0 1514.2646 1000.7446)" overflow="visible"/>
	</g>
	<g>
		
			<use xlink:href="#drzwi"  width="38.417" height="37.521" x="-19.209" y="-18.761" transform="matrix(0 0.7042 0.7042 0 1748.5967 994.8267)" overflow="visible"/>
		
			<use xlink:href="#drzwi"  width="38.417" height="37.521" x="-19.209" y="-18.761" transform="matrix(0 0.7042 -0.7042 0 1723.4766 994.8267)" overflow="visible"/>
	</g>
	
		<use xlink:href="#drzwi"  width="38.417" height="37.521" x="-19.209" y="-18.761" transform="matrix(0.5993 -0.5993 0.5993 0.5993 1156.668 966.646)" overflow="visible"/>
	
		<use xlink:href="#drzwi"  width="38.417" height="37.521" x="-19.209" y="-18.761" transform="matrix(0.9253 0 0 0.9253 643.1265 970.2075)" overflow="visible"/>
	
		<use xlink:href="#drzwi"  width="38.417" height="37.521" x="-19.209" y="-18.761" transform="matrix(0.9253 0 0 0.9253 570.2935 970.2075)" overflow="visible"/>
	
		<use xlink:href="#drzwi"  width="38.417" height="37.521" x="-19.209" y="-18.761" transform="matrix(0 0.818 0.818 0 691.9229 930.1724)" overflow="visible"/>
	
		<use xlink:href="#drzwi"  width="38.417" height="37.521" x="-19.209" y="-18.761" transform="matrix(0 -0.7825 0.7825 0 560.249 960.9155)" overflow="visible"/>
	
		<use xlink:href="#drzwi"  width="38.417" height="37.521" x="-19.209" y="-18.761" transform="matrix(0 -0.7825 -0.7825 0 553.4658 622.8628)" overflow="visible"/>
	
		<use xlink:href="#drzwi"  width="38.417" height="37.521" x="-19.209" y="-18.761" transform="matrix(0.6978 0.6978 0.6978 -0.6978 636.708 396.5796)" overflow="visible"/>
	
		<use xlink:href="#drzwi"  width="38.417" height="37.521" x="-19.209" y="-18.761" transform="matrix(0 0.7805 -0.7805 0 743.606 315.5576)" overflow="visible"/>
	
		<use xlink:href="#drzwi"  width="38.417" height="37.521" x="-19.209" y="-18.761" transform="matrix(0.6978 0.6978 0.6978 -0.6978 683.7627 443.6343)" overflow="visible"/>
	
		<use xlink:href="#drzwi"  width="38.417" height="37.521" x="-19.209" y="-18.761" transform="matrix(-0.6978 0.6978 -0.6978 -0.6978 1354.3398 396.5796)" overflow="visible"/>
	
		<use xlink:href="#drzwi"  width="38.417" height="37.521" x="-19.209" y="-18.761" transform="matrix(-0.6978 0.6978 -0.6978 -0.6978 1307.2852 443.6343)" overflow="visible"/>
	
		<use xlink:href="#drzwi"  width="38.417" height="37.521" x="-19.209" y="-18.761" transform="matrix(0.7507 0 0 0.7507 1417.0244 482.4922)" overflow="visible"/>
	
		<use xlink:href="#drzwi"  width="38.417" height="37.521" x="-19.209" y="-18.761" transform="matrix(0 0.7177 -0.7177 0 167.9072 716.0981)" overflow="visible"/>
	
		<rect x="1255.098" y="945.885" fill="none" stroke="#B3B2B1" stroke-width="2" stroke-miterlimit="10" width="9.368" height="60.751"/>
	
		<rect x="1264.466" y="945.885" fill="none" stroke="#B3B2B1" stroke-width="2" stroke-miterlimit="10" width="9.368" height="60.751"/>
	<g>
		
			<rect x="1738.937" y="361.408" transform="matrix(0.7071 -0.7071 0.7071 0.7071 236.7635 1345.3273)" fill="none" stroke="#B3B2B1" stroke-width="2" stroke-miterlimit="10" width="6.796" height="50.914"/>
		
			<rect x="1743.743" y="356.601" transform="matrix(0.7071 -0.7071 0.7071 0.7071 241.5695 1347.3177)" fill="none" stroke="#B3B2B1" stroke-width="2" stroke-miterlimit="10" width="6.796" height="50.915"/>
		
			<rect x="1748.548" y="351.796" transform="matrix(0.7071 -0.7071 0.7071 0.7071 246.4247 1349.3848)" fill="none" stroke="#B3B2B1" stroke-width="2" stroke-miterlimit="10" width="6.797" height="50.915"/>
		
			<rect x="1753.355" y="346.991" transform="matrix(0.7071 -0.7071 0.7071 0.7071 251.1809 1351.2993)" fill="none" stroke="#B3B2B1" stroke-width="2" stroke-miterlimit="10" width="6.796" height="50.913"/>
		
			<rect x="1758.161" y="342.185" transform="matrix(0.7072 -0.707 0.707 0.7072 255.8364 1353.0608)" fill="none" stroke="#B3B2B1" stroke-width="2" stroke-miterlimit="10" width="6.797" height="50.914"/>
		
			<rect x="1702.935" y="325.404" transform="matrix(0.7071 -0.7071 0.7071 0.7071 251.7253 1309.399)" fill="none" stroke="#B3B2B1" stroke-width="2" stroke-miterlimit="10" width="6.797" height="50.915"/>
		
			<rect x="1707.741" y="320.599" transform="matrix(0.7071 -0.7071 0.7071 0.7071 256.4819 1311.3154)" fill="none" stroke="#B3B2B1" stroke-width="2" stroke-miterlimit="10" width="6.796" height="50.915"/>
		
			<rect x="1712.547" y="315.795" transform="matrix(0.7072 -0.707 0.707 0.7072 261.1395 1313.0854)" fill="none" stroke="#B3B2B1" stroke-width="2" stroke-miterlimit="10" width="6.797" height="50.913"/>
		
			<rect x="1717.353" y="310.988" transform="matrix(0.7071 -0.7071 0.7071 0.7071 266.1433 1315.3711)" fill="none" stroke="#B3B2B1" stroke-width="2" stroke-miterlimit="10" width="6.797" height="50.915"/>
		
			<rect x="1722.159" y="306.182" transform="matrix(0.7071 -0.7071 0.7071 0.7071 270.8992 1317.2878)" fill="none" stroke="#B3B2B1" stroke-width="2" stroke-miterlimit="10" width="6.796" height="50.915"/>
	</g>
	
		<rect x="1617.836" y="446.862" fill="none" stroke="#B3B2B1" stroke-width="2" stroke-miterlimit="10" width="124.499" height="8.789"/>
	
		<rect x="1617.836" y="455.65" fill="none" stroke="#B3B2B1" stroke-width="2" stroke-miterlimit="10" width="124.499" height="8.789"/>
	
		<rect x="1477.591" y="459.88" fill="none" stroke="#B3B2B1" stroke-width="2" stroke-miterlimit="10" width="134.199" height="4.56"/>
	<path fill="none" stroke="#8B8C8C" stroke-width="5" stroke-miterlimit="10" d="M804.105,911.75l-31.855-19.117l-56.75-57.25
		c0,0-20.25-17.5-20.25-44.25s0-206.5,0-206.5s-4.586-18.65,31.414-54.9"/>
	<path fill="none" stroke="#8B8C8C" stroke-width="5" stroke-miterlimit="10" d="M818.481,886.987l-28.599-16.83l-46.786-47.197
		l-3.921-3.918c-3.923-5.211-15.578-16.992-15.578-54.824V596.051c0-8.334,3.683-26.705,23.186-46.344"/>
	<path fill="none" stroke="#8B8C8C" stroke-width="5" stroke-miterlimit="10" d="M777.583,945.885l19.083-21.584l40.19-67.365
		v-19.711h-39.705l-25.884-26.111c-19.325-23.896-19.093-47.77-19.325-48.396v-151c0-16.834,5.257-32.26,14.962-42.031"/>
	<path fill="none" stroke="#8B8C8C" stroke-width="5" stroke-miterlimit="10" d="M1221.276,486.529l-34.109-32.646
		c0,0-20.5-21-56.5-21s-107,0-107,0H966.5c0,0-71,0-107,0s-56.5,21-56.5,21l-32.821,31.414"/>
	<path fill="none" stroke="#8B8C8C" stroke-width="5" stroke-miterlimit="10" d="M1186.063,911.75l31.854-19.117l56.75-57.25
		c0,0,20.25-17.5,20.25-44.25s0-206.5,0-206.5s4.625-18.611-31.375-54.861"/>
	<path fill="none" stroke="#8B8C8C" stroke-width="5" stroke-miterlimit="10" d="M1200.623,506l-28.856-27.619
		c-1.849-1.668-19.55-17.152-41.1-17.152h-78.653h-113.86H859.5c-21.55,0-39.25,15.484-41.1,17.152l-28.099,26.895"/>
	<path fill="none" stroke="#8B8C8C" stroke-width="5" stroke-miterlimit="10" d="M1171.686,886.987l28.6-16.83l46.785-47.197
		l3.922-3.918c3.924-5.211,15.578-16.992,15.578-54.824V596.051c0-8.334-3.933-26.961-23.436-46.598"/>
	<path fill="none" stroke="#8B8C8C" stroke-width="5" stroke-miterlimit="10" d="M1181.594,527.024l-26.758-25.61
		c-1.125-0.881-16.684-11.838-38.189-11.838h-36.286H909.807h-36.286c-21.506,0-37.065,10.957-38.19,11.838l-24.907,23.84"/>
	<path fill="none" stroke="#8B8C8C" stroke-width="5" stroke-miterlimit="10" d="M1212.584,945.885l-19.084-21.584l-40.189-67.365
		v-19.711h39.705l25.883-26.111c19.325-23.896,19.094-47.77,19.325-48.396v-151c0-16.834-5.421-32.432-15.126-42.203"/>
	<path fill="none" stroke="#8B8C8C" stroke-width="5" stroke-miterlimit="10" d="M701.844,505.09l85.979,85.364
		c-3.391,3.416-7.533,18.43-7.533,38.264v121.166c0,0-0.79,25.834,12.963,43.143c1.793,2.258,3.661,4.473,5.553,6.619v38.061"/>
	<path fill="none" stroke="#8B8C8C" stroke-width="5" stroke-miterlimit="10" d="M1245.572,462.027l-84.181,84.899l-14.793-14.158
		c-18.649-15.858-40.491-14.846-40.655-14.846h-19.205h-183.31h-19.205c-0.164,0-22.006-1.012-40.655,14.846l-12.756,12.729
		l-85.979-85.364"/>
	<path fill="none" stroke="#8B8C8C" stroke-width="5" stroke-miterlimit="10" d="M1287.572,506.598l-85.245,82.209
		c3.392,3.416,7.55,20.076,7.55,39.91v121.166c0,0,0.79,25.834-12.963,43.143c-1.793,2.258-3.66,4.473-5.553,6.619v38.061"/>
	<g>
		
			<use xlink:href="#drzwi"  width="38.417" height="37.521" x="-19.209" y="-18.761" transform="matrix(-0.7938 0 0 0.7938 1768.4971 756.5522)" overflow="visible"/>
		
			<use xlink:href="#drzwi"  width="38.417" height="37.521" x="-19.209" y="-18.761" transform="matrix(-0.7938 0 0 -0.7938 1768.4971 728.2319)" overflow="visible"/>
	</g>
	<g>
		
			<use xlink:href="#drzwi"  width="38.417" height="37.521" x="-19.209" y="-18.761" transform="matrix(-0.7938 0 0 0.7938 1768.4971 828.0347)" overflow="visible"/>
		
			<use xlink:href="#drzwi"  width="38.417" height="37.521" x="-19.209" y="-18.761" transform="matrix(-0.7938 0 0 -0.7938 1768.4971 799.7144)" overflow="visible"/>
	</g>
	
		<use xlink:href="#drzwi"  width="38.417" height="37.521" x="-19.209" y="-18.761" transform="matrix(0 -0.72 -0.72 0 764.1123 1020.4819)" overflow="visible"/>
	
		<use xlink:href="#drzwi"  width="38.417" height="37.521" x="-19.209" y="-18.761" transform="matrix(0 -0.72 -0.72 0 484.2881 1020.4819)" overflow="visible"/>
	
		<use xlink:href="#drzwi"  width="38.417" height="37.521" x="-19.209" y="-18.761" transform="matrix(-0.6072 0 0 0.6072 1433.2285 741.4565)" overflow="visible"/>
	
		<use xlink:href="#drzwi"  width="38.417" height="37.521" x="-19.209" y="-18.761" transform="matrix(-0.6072 0 0 0.6072 1433.2285 770.4497)" overflow="visible"/>
	
		<use xlink:href="#drzwi"  width="38.417" height="37.521" x="-19.209" y="-18.761" transform="matrix(0 -0.6072 -0.6072 0 1442.6055 885.0688)" overflow="visible"/>
	
		<use xlink:href="#drzwi"  width="38.417" height="37.521" x="-19.209" y="-18.761" transform="matrix(0 -0.6072 -0.6072 0 1413.6123 885.0688)" overflow="visible"/>
	
		<use xlink:href="#drzwi"  width="38.417" height="37.521" x="-19.209" y="-18.761" transform="matrix(0 0.8049 -0.8049 0 1290.2588 930.4233)" overflow="visible"/>
	
		<use xlink:href="#drzwi"  width="38.417" height="37.521" x="-19.209" y="-18.761" transform="matrix(-0.8049 0 0 0.8049 1334.6563 969.6733)" overflow="visible"/>
	
		<use xlink:href="#drzwi"  width="38.417" height="37.521" x="-19.209" y="-18.761" transform="matrix(-0.8049 0 0 0.8049 1426.6563 969.6733)" overflow="visible"/>
	
		<use xlink:href="#drzwi"  width="38.417" height="37.521" x="-19.209" y="-18.761" transform="matrix(0 0.6509 0.6509 0 1295.2188 994.1333)" overflow="visible"/>
</g>
<g id="wypelnienia">
	<g>
		<path fill="#8B8C8C" d="M524.5,952.885h21.221v-14H538.5V499.782l71.3-71.298l19.881,20.151L585.5,492.817v111.536h-17.332v7
			H585.5v327.532h-10.389v14h101.394v-14H599.5V498.616l40.014-40.015l46.01,46.636C647.162,541.25,647.81,577.513,648,581.41
			v210.476c0,43.659,19.986,62.67,23.236,65.472l80.077,81.528h-43.979v14h77.354L680.994,847.312l-0.253-0.269l-0.339-0.269
			c-0.751-0.62-18.402-15.627-18.402-54.89V581.217l-0.014-0.444c-0.084-1.449-1.601-35.893,38.227-69.899l5.721-4.884
			l-26.179-26.535l6.821-6.821l-4.95-4.95l-6.788,6.788l-41.82-42.389l6.503-6.503l-4.95-4.95l-6.47,6.47l-18.233-18.481
			L524.5,493.983V952.885z"/>
		<path fill="#8B8C8C" d="M728.875,337.549v-14h-31.476l-46.257,47.042l16.733,16.733l-7.024,7.024l4.95,4.95l7.024-7.024
			l42.104,42.104l-7.024,7.024l4.95,4.95l7.024-7.024l25.88,25.88l4.948-5.136c0.176-0.183,17.791-18.446,36.775-36.443
			c22.99-21.796,41.732-22.411,41.851-22.414l332.886,0c0.187,0.004,18.929,0.619,41.918,22.415
			c18.984,17.997,36.6,36.26,36.775,36.443l4.948,5.135l25.594-25.594l6.737,6.738l4.949-4.949l-6.737-6.738l42.105-42.105
			l6.737,6.738l4.949-4.949l-6.737-6.738l17.021-17.021l-46.259-47.042H758v14h530.354l32.409,32.958l-74.745,74.746
			c-6.649-6.777-19.123-19.34-32.247-31.783c-27.378-25.956-50.512-26.254-51.483-26.254H829.333
			c-0.972,0-24.105,0.298-51.483,26.254c-13.125,12.442-25.599,25.006-32.248,31.783l-74.745-74.746l32.41-32.958H728.875z"/>
		<polygon fill="#8B8C8C" points="1152.27,948.11 1162.771,938.85 1152.66,927.383 1032.25,927.383 1032.25,941.383 
			1146.34,941.383 		"/>
		<g>
			<rect x="1307.559" y="1000.383" fill="#8B8C8C" width="199.109" height="14"/>
			<polygon fill="#8B8C8C" points="1282.807,1000.383 1217.029,1000.383 1183.528,962.39 1173.028,971.65 1198.364,1000.383 
				1072,1000.383 1072,1014.383 1282.807,1014.383 			"/>
		</g>
		<polygon fill="#8B8C8C" points="842.108,941.383 955.333,941.383 955.333,927.383 834.058,927.383 792.755,998.363 
			791.496,1000.383 778.111,1000.383 778.111,1014.383 970,1014.383 970,1000.383 807.777,1000.383 		"/>
		<rect x="6.5" y="673.133" fill="#8B8C8C" width="14" height="213.75"/>
		<polygon fill="#8B8C8C" points="20.5,544.879 48.375,544.879 48.375,530.879 6.5,530.879 6.5,604.883 20.5,604.883 		"/>
		<path fill="#8B8C8C" d="M693,17.134v185.249h-40.438L417,442.375v88.504H111.252v14h32.999v88.004h7v-24.5H307.5v-63.504H431
			v-96.782l227.438-231.715H707V31.134h983.5v286.03h14V31.134h149v281.499h-27.75v71.961h-6.915v17.849h-56.231v43.441h-24.31
			v19.833h26.04v0.021h55.058v-61.31h6.358v100.311h-72.514V532h-12.127v14h84.641v125.633h-76v41.5h7v-34.5h82.9v-5.5h0.1v-346.5
			h27.75V17.134H693z M300.5,601.383H151.251v-56.504H300.5V601.383z M1812.392,458.252h-42.788v-48.81h42.788V458.252z
			 M1760.236,532v-20.262h65.514V532H1760.236z"/>
		<rect x="1659.5" y="1000.383" fill="#8B8C8C" width="50.448" height="14"/>
		<path fill="#8B8C8C" d="M1633,130.383h-358v79.5h170.045h14H1633V130.383z M1619,195.883h-330v-51.5h330V195.883z"/>
		<path fill="#8B8C8C" d="M1210.5,130.383H770.827v79.5h170.045h14H1210.5V130.383z M1196.5,195.883H784.827v-51.5H1196.5V195.883z"
			/>
		<polygon fill="#8B8C8C" points="667.9,987.602 653.9,987.602 653.9,1000.383 591.567,1000.383 591.567,987.57 584.567,987.57 
			584.567,1000.383 498.152,1000.383 498.152,1014.383 750.324,1014.383 750.324,1000.383 667.9,1000.383 		"/>
		<rect x="1436.996" y="530.258" fill="#8B8C8C" width="7" height="139.196"/>
		<polygon fill="#8B8C8C" points="144.251,684.379 144.251,877.383 151.251,877.383 151.251,819.883 307.5,819.883 307.5,726.383 
			181.667,726.383 181.667,733.383 300.5,733.383 300.5,812.883 151.251,812.883 151.251,733.383 154.385,733.383 154.385,726.383 
			151.251,726.383 151.251,684.379 		"/>
		<path fill="#8B8C8C" d="M307.5,939.133H151.251v-11.166h-7v22.916h7v-4.75H300.5v26H167.25v28.25h-15.999v-22.166h-7v22.166h-17.4
			v14H318.5v157.5h-298v-157.5h53.222v-14H20.5v-49.5h-14v235h326v-171.5h138v-14h-163V939.133z M174.25,979.133H300.5v21.25H174.25
			V979.133z"/>
		<rect x="1595.662" y="671.647" fill="#8B8C8C" width="7" height="216.188"/>
		<polygon fill="#8B8C8C" points="1839.65,877.633 1756.75,877.633 1756.75,843.133 1749.75,843.133 1749.75,884.633 
			1825.773,884.633 1825.773,1000.383 1762.5,1000.383 1762.5,1014.383 1825.773,1014.383 1825.773,1172.883 1550.038,1172.883 
			1550.038,1014.383 1607,1014.383 1607,1000.383 1536.038,1000.383 1536.038,1186.883 1839.773,1186.883 1839.773,883.383 
			1839.65,883.383 		"/>
		<rect x="1749.75" y="771.465" fill="#8B8C8C" width="7" height="13.335"/>
		<rect x="184.108" y="685.422" fill="#8B8C8C" width="117.639" height="7"/>
		<rect x="625.808" y="765.208" fill="#8B8C8C" width="12.899" height="12.899"/>
		<rect x="625.808" y="594.933" fill="#8B8C8C" width="12.899" height="12.899"/>
		<rect x="1352.541" y="765.208" fill="#8B8C8C" width="12.9" height="12.899"/>
		<rect x="1352.541" y="594.933" fill="#8B8C8C" width="12.9" height="12.899"/>
		<rect x="1539.345" y="296.433" fill="#8B8C8C" width="12.9" height="12.899"/>
		<rect x="1352.54" y="296.433" fill="#8B8C8C" width="12.9" height="12.899"/>
		<rect x="1168.995" y="296.433" fill="#8B8C8C" width="12.9" height="12.899"/>
		<rect x="987.706" y="296.433" fill="#8B8C8C" width="12.9" height="12.899"/>
		<rect x="807.42" y="296.433" fill="#8B8C8C" width="12.9" height="12.899"/>
		<rect x="590.496" y="296.433" fill="#8B8C8C" width="12.9" height="12.899"/>
		<rect x="440.033" y="446.896" fill="#8B8C8C" width="12.9" height="12.899"/>
		<rect x="289.85" y="850.822" fill="#8B8C8C" width="12.9" height="12.899"/>
		<path fill="#8B8C8C" d="M1617.836,528.288h-34.098v-3.972h-36.237v-20.683H1617v-7h-224.415v-3.815l-38.1-38.101l25.882-26.233
			l42.1,42.099l9.9-9.899l-52.066-52.066l-17.797,18.038l-6.026-6.027l-4.949,4.949l6.06,6.061l-41.821,42.389l-6.344-6.344
			l-4.949,4.949l6.377,6.378l-26.617,26.979l5.721,4.884c39.828,34.006,38.312,68.45,38.229,69.862l-0.017,0.24v210.909
			c0,39.263-17.65,54.27-18.352,54.849l-0.339,0.27l-103.997,105.882h69.354v-14h-35.979l80.076-81.528
			c3.251-2.802,23.236-21.813,23.236-65.472V581.41c0.19-3.896,0.839-40.16-37.524-76.173l40.01-40.553l33.933,33.933v435.836
			h-72.923v14h160.005v-0.023h81.834V844.717h-40.833v7h33.833v60h-68.281v-3.757h-7.283v26.492h-72.352v-96.569h65.246v45.5h14
			v-55.52h-14v3.02h-65.246v-42h65.126v5.842h14v-64.46h-14v51.618h-65.126v-81.107h59.082v2.485h14v-2.485h74.834v83.273h-33.833v7
			h40.833V659.217h-7v16.832h-74.834v-3.897h-14v21.624h-59.082V503.633h147.916v56.75h7v-9.129h36.237v-1.801h34.098V528.288z
			 M1540.501,918.717v22h-68.281v-22H1540.501z M1465.667,683.049h74.834v10.727h-74.834V683.049z"/>
		<rect x="1472.001" y="445.883" fill="#8B8C8C" width="13" height="19.833"/>
		<rect x="1539.295" y="445.883" fill="#8B8C8C" width="13" height="19.833"/>
		<rect x="1606.128" y="445.883" fill="#8B8C8C" width="13" height="19.833"/>
		<polygon fill="#8B8C8C" points="385.216,862.811 391.902,862.811 391.902,871.743 416.206,871.743 416.206,873.939 
			434.07,873.939 434.07,871.743 458.373,871.743 458.373,862.811 462.714,862.811 462.714,849.586 458.373,849.586 
			458.373,842.935 434.07,842.935 434.07,840.604 416.206,840.604 416.206,842.935 391.902,842.935 391.902,849.586 
			385.216,849.586 		"/>
		<polygon fill="#8B8C8C" points="416.206,672.255 416.206,674.452 391.902,674.452 391.902,683.383 385.216,683.383 
			385.216,696.608 391.902,696.608 391.902,703.259 416.206,703.259 416.206,705.59 434.07,705.59 434.07,703.259 458.373,703.259 
			458.373,696.608 462.714,696.608 462.714,683.383 458.373,683.383 458.373,674.452 434.07,674.452 434.07,672.255 		"/>
	</g>
	<rect x="1389.25" y="723.856" fill="#8B8C8C" width="33.903" height="6.209"/>
	<rect x="1389.25" y="752.848" fill="#8B8C8C" width="33.903" height="6.21"/>
	<rect x="1425.004" y="836.307" fill="#8B8C8C" width="6.21" height="38.687"/>
	<rect x="1388.575" y="870.302" fill="#8B8C8C" width="13.652" height="6.21"/>
	<rect x="1315.94" y="984.965" fill="#8B8C8C" width="6.21" height="18.517"/>
	<rect x="1315.94" y="940.8" fill="#8B8C8C" width="6.21" height="13.557"/>
	<rect x="1407.94" y="984.965" fill="#8B8C8C" width="6.21" height="18.517"/>
	<rect x="1407.94" y="940.8" fill="#8B8C8C" width="6.21" height="13.557"/>
	<rect x="1454.055" y="870.302" fill="#8B8C8C" width="13.652" height="6.21"/>
	<rect x="1443.088" y="920.716" fill="#8B8C8C" width="6.152" height="17.078"/>
	<rect x="1414.709" y="920.716" fill="#8B8C8C" width="6.152" height="17.078"/>
</g>
<g id="Layer_7_copy">
	<g>
		<path fill="#4D4D4F" d="M1547.371,807.363c0-2.643-2.143-4.785-4.785-4.785h-34.325c-2.643,0-4.787,2.143-4.787,4.785v21.761
			c0,2.644,2.145,4.786,4.787,4.786h34.325c2.643,0,4.785-2.143,4.785-4.786V807.363z"/>
		<g>
			<text transform="matrix(1 0 0 1 1513.1914 823.7749)" fill="#FFFFFF" font-family="'Roboto-Bold'" font-size="16">WC</text>
		</g>
	</g>
	<g>
		<text transform="matrix(1 0 0 1 1632.8125 1109.7114)"><tspan x="0" y="0" fill="#4D4D4F" font-family="'Roboto-Bold'" font-size="16">SALA ZIELONA</tspan><tspan x="4.219" y="16" fill="#4D4D4F" font-family="'Roboto-Bold'" font-size="16">GREEN ROOM</tspan></text>
		<g>
			<path fill="#4D4D4F" d="M1703.053,1063.583c0-2.643-2.143-4.785-4.785-4.785h-21.76c-2.643,0-4.787,2.143-4.787,4.785v21.761
				c0,2.644,2.145,4.786,4.787,4.786h21.76c2.643,0,4.785-2.143,4.785-4.786V1063.583z"/>
			<text transform="matrix(1 0 0 1 1678.4531 1084.6255)" fill="#FFFFFF" font-family="'Roboto-Bold'" font-size="28">B</text>
		</g>
	</g>
	<g>
		<text transform="matrix(1 0 0 1 1409.3281 96.7905)"><tspan x="0" y="0" fill="#4D4D4F" font-family="'Roboto-Bold'" font-size="16">SALA BIAŁA</tspan><tspan x="-4.91" y="16" fill="#4D4D4F" font-family="'Roboto-Bold'" font-size="16">WHITE ROOM</tspan></text>
		<g>
			<path fill="#4D4D4F" d="M1469.665,50.663c0-2.643-2.143-4.785-4.785-4.785h-21.76c-2.643,0-4.787,2.143-4.787,4.785v21.761
				c0,2.644,2.145,4.786,4.787,4.786h21.76c2.643,0,4.785-2.143,4.785-4.786V50.663z"/>
			<text transform="matrix(1 0 0 1 1444.8398 71.7056)" fill="#FFFFFF" font-family="'Roboto-Bold'" font-size="28">C</text>
		</g>
	</g>
	<g>
		<text transform="matrix(1 0 0 1 935.9492 96.7905)"><tspan x="0" y="0" fill="#4D4D4F" font-family="'Roboto-Bold'" font-size="16">SALA DĘBOWA</tspan><tspan x="13.578" y="16" fill="#4D4D4F" font-family="'Roboto-Bold'" font-size="16">OAK ROOM</tspan></text>
		<g>
			<path fill="#4D4D4F" d="M1006.33,50.663c0-2.643-2.143-4.785-4.785-4.785h-21.76c-2.643,0-4.787,2.143-4.787,4.785v21.761
				c0,2.644,2.145,4.786,4.787,4.786h21.76c2.643,0,4.785-2.143,4.785-4.786V50.663z"/>
			<text transform="matrix(1 0 0 1 981.5654 71.7056)" fill="#FFFFFF" font-family="'Roboto-Bold'" font-size="28">D</text>
		</g>
	</g>
	<g>
		<text transform="matrix(1 0 0 1 939.9678 716.1011)"><tspan x="0" y="0" fill="#4D4D4F" font-family="'Roboto-Bold'" font-size="16">SALA KONGRESOWA</tspan><tspan x="13.145" y="16" fill="#4D4D4F" font-family="'Roboto-Bold'" font-size="16">CONGRESS HALL</tspan></text>
		<g>
			<path fill="#4D4D4F" d="M1031.767,669.973c0-2.643-2.144-4.785-4.786-4.785h-21.76c-2.643,0-4.786,2.143-4.786,4.785v21.76
				c0,2.645,2.144,4.787,4.786,4.787h21.76c2.643,0,4.786-2.143,4.786-4.787V669.973z"/>
			<text transform="matrix(1 0 0 1 1006.6807 691.0151)" fill="#FFFFFF" font-family="'Roboto-Bold'" font-size="28">A</text>
		</g>
	</g>
	<g>
		<path fill="#4D4D4F" d="M1558.189,159.252c0-2.643-2.143-4.785-4.785-4.785h-198.807c-2.643,0-4.787,2.143-4.787,4.785v21.761
			c0,2.644,2.145,4.786,4.787,4.786h198.807c2.643,0,4.785-2.143,4.785-4.786V159.252z"/>
		<g>
			<text transform="matrix(1 0 0 1 1364.4883 175.4751)" fill="#FFFFFF" font-family="'Roboto-Bold'" font-size="16">RECEPCJA / RECEPTION</text>
		</g>
	</g>
	<g>
		<path fill="#4D4D4F" d="M1094.854,159.252c0-2.643-2.143-4.785-4.785-4.785H891.262c-2.643,0-4.787,2.143-4.787,4.785v21.761
			c0,2.644,2.145,4.786,4.787,4.786h198.807c2.643,0,4.785-2.143,4.785-4.786V159.252z"/>
		<g>
			<text transform="matrix(1 0 0 1 901.5195 175.4751)" fill="#FFFFFF" font-family="'Roboto-Bold'" font-size="16">SZATNIA / CLOAKROOM</text>
		</g>
	</g>
	<path fill="#4D4D4F" d="M1797.226,693.67c-2.642,0-4.784,2.143-4.784,4.785v158.807c0,2.643,2.143,4.787,4.784,4.787h37.762
		c2.644,0,4.786-2.145,4.786-4.787V698.456c0-2.643-2.143-4.785-4.786-4.785H1797.226z"/>
	<g>
		<text transform="matrix(0 -1 1 0 1813.3604 845.4429)"><tspan x="0" y="0" fill="#FFFFFF" font-family="'Roboto-Bold'" font-size="16">WEJŚCIE GŁÓWNE</tspan><tspan x="4.188" y="16" fill="#FFFFFF" font-family="'Roboto-Bold'" font-size="16">MAIN ENTRANCE</tspan></text>
	</g>
</g>
<g id="dymki">
</g>
</svg>
